VotoSerifGX-ExtendedLightDisplay.ufo
<glyph name="exclam" format="2">
  <advance width="326"/>
  <unicode hex="0021"/>
  <outline>
    <contour>
      <point x="146" y="208" type="line"/>
      <point x="162" y="208" type="line"/>
      <point x="167" y="714" type="line"/>
      <point x="139" y="714" type="line"/>
    </contour>
    <contour>
      <point x="160" y="-5" type="curve" smooth="yes"/>
      <point x="171" y="-5"/>
      <point x="180" y="4"/>
      <point x="180" y="35" type="curve" smooth="yes"/>
      <point x="180" y="65"/>
      <point x="171" y="73"/>
      <point x="160" y="73" type="curve" smooth="yes"/>
      <point x="150" y="73"/>
      <point x="140" y="65"/>
      <point x="140" y="35" type="curve" smooth="yes"/>
      <point x="140" y="4"/>
      <point x="150" y="-5"/>
    </contour>
  </outline>
</glyph>
<glyph name="percent" format="2">
  <advance width="1096"/>
  <unicode hex="0025"/>
  <outline>
    <contour>
      <point x="292" y="0" type="line"/>
      <point x="306" y="0" type="line"/>
      <point x="796" y="714" type="line"/>
      <point x="782" y="714" type="line"/>
    </contour>
    <contour>
      <point x="251" y="280" type="curve" smooth="yes"/>
      <point x="383" y="280"/>
      <point x="425" y="383"/>
      <point x="425" y="503" type="curve" smooth="yes"/>
      <point x="425" y="629"/>
      <point x="368" y="724"/>
      <point x="252" y="724" type="curve" smooth="yes"/>
      <point x="126" y="724"/>
      <point x="75" y="627"/>
      <point x="75" y="503" type="curve" smooth="yes"/>
      <point x="75" y="376"/>
      <point x="123" y="280"/>
    </contour>
    <contour>
      <point x="247" y="290" type="curve" smooth="yes"/>
      <point x="153" y="290"/>
      <point x="103" y="361"/>
      <point x="103" y="503" type="curve" smooth="yes"/>
      <point x="103" y="610"/>
      <point x="143" y="714"/>
      <point x="249" y="714" type="curve" smooth="yes"/>
      <point x="342" y="714"/>
      <point x="397" y="650"/>
      <point x="397" y="503" type="curve" smooth="yes"/>
      <point x="397" y="387"/>
      <point x="356" y="290"/>
    </contour>
    <contour>
      <point x="846" y="-10" type="curve" smooth="yes"/>
      <point x="978" y="-10"/>
      <point x="1020" y="93"/>
      <point x="1020" y="213" type="curve" smooth="yes"/>
      <point x="1020" y="339"/>
      <point x="963" y="434"/>
      <point x="847" y="434" type="curve" smooth="yes"/>
      <point x="721" y="434"/>
      <point x="670" y="337"/>
      <point x="670" y="213" type="curve" smooth="yes"/>
      <point x="670" y="86"/>
      <point x="718" y="-10"/>
    </contour>
    <contour>
      <point x="842" y="0" type="curve" smooth="yes"/>
      <point x="748" y="0"/>
      <point x="698" y="71"/>
      <point x="698" y="213" type="curve" smooth="yes"/>
      <point x="698" y="320"/>
      <point x="738" y="424"/>
      <point x="844" y="424" type="curve" smooth="yes"/>
      <point x="937" y="424"/>
      <point x="992" y="360"/>
      <point x="992" y="213" type="curve" smooth="yes"/>
      <point x="992" y="97"/>
      <point x="951" y="0"/>
    </contour>
  </outline>
</glyph>
<glyph name="one" format="2">
  <advance width="693"/>
  <unicode hex="0031"/>
  <outline>
    <contour>
      <point x="177" y="0" type="line"/>
      <point x="502" y="0" type="line"/>
      <point x="502" y="10" type="line"/>
      <point x="409" y="10" type="line" smooth="yes"/>
      <point x="357" y="10"/>
      <point x="353" y="22"/>
      <point x="353" y="101" type="curve" smooth="yes"/>
      <point x="353" y="718" type="line"/>
      <point x="333" y="718" type="line"/>
      <point x="306" y="684" type="line" smooth="yes"/>
      <point x="267" y="633"/>
      <point x="216" y="590"/>
      <point x="124" y="591" type="curve"/>
      <point x="124" y="579"/>
      <point x="135" y="567"/>
      <point x="163" y="567" type="curve" smooth="yes"/>
      <point x="212" y="567"/>
      <point x="257" y="603"/>
      <point x="325" y="692" type="curve"/>
      <point x="325" y="101" type="line" smooth="yes"/>
      <point x="325" y="22"/>
      <point x="321" y="10"/>
      <point x="269" y="10" type="curve" smooth="yes"/>
      <point x="177" y="10" type="line"/>
    </contour>
  </outline>
</glyph>
<glyph name="two" format="2">
  <advance width="693"/>
  <unicode hex="0032"/>
  <outline>
    <contour>
      <point x="93" y="0" type="line"/>
      <point x="606" y="0" type="line"/>
      <point x="614" y="123" type="line"/>
      <point x="604" y="123" type="line"/>
      <point x="601" y="94" type="line" smooth="yes"/>
      <point x="596" y="33"/>
      <point x="590" y="22"/>
      <point x="539" y="22" type="curve" smooth="yes"/>
      <point x="111" y="22" type="line"/>
      <point x="276" y="149" type="line" smooth="yes"/>
      <point x="536" y="354"/>
      <point x="588" y="407"/>
      <point x="588" y="524" type="curve" smooth="yes"/>
      <point x="588" y="613"/>
      <point x="522" y="724"/>
      <point x="343" y="724" type="curve" smooth="yes"/>
      <point x="193" y="724"/>
      <point x="120" y="660"/>
      <point x="120" y="612" type="curve" smooth="yes"/>
      <point x="120" y="592"/>
      <point x="121" y="575"/>
      <point x="146" y="575" type="curve"/>
      <point x="136" y="684"/>
      <point x="227" y="714"/>
      <point x="343" y="714" type="curve" smooth="yes"/>
      <point x="502" y="714"/>
      <point x="560" y="608"/>
      <point x="560" y="525" type="curve" smooth="yes"/>
      <point x="560" y="401"/>
      <point x="511" y="362"/>
      <point x="313" y="199" type="curve" smooth="yes"/>
      <point x="93" y="22" type="line"/>
    </contour>
  </outline>
</glyph>
<glyph name="three" format="2">
  <advance width="693"/>
  <unicode hex="0033"/>
  <outline>
    <contour>
      <point x="342" y="-9" type="curve"/>
      <point x="489" y="-9"/>
      <point x="601" y="60"/>
      <point x="601" y="191" type="curve" smooth="yes"/>
      <point x="601" y="344"/>
      <point x="479" y="371"/>
      <point x="398" y="373" type="curve"/>
      <point x="446" y="378"/>
      <point x="570" y="417"/>
      <point x="570" y="545" type="curve" smooth="yes"/>
      <point x="570" y="665"/>
      <point x="495" y="724"/>
      <point x="343" y="724" type="curve" smooth="yes"/>
      <point x="194" y="724"/>
      <point x="134" y="651"/>
      <point x="134" y="611" type="curve" smooth="yes"/>
      <point x="134" y="606"/>
      <point x="142" y="585"/>
      <point x="160" y="585" type="curve"/>
      <point x="160" y="683"/>
      <point x="231" y="714"/>
      <point x="353" y="714" type="curve" smooth="yes"/>
      <point x="472" y="714"/>
      <point x="542" y="662"/>
      <point x="542" y="538" type="curve" smooth="yes"/>
      <point x="542" y="431"/>
      <point x="470" y="384"/>
      <point x="365" y="384" type="curve"/>
      <point x="307" y="384" type="line"/>
      <point x="307" y="364" type="line"/>
      <point x="365" y="364" type="line" smooth="yes"/>
      <point x="516" y="364"/>
      <point x="573" y="333"/>
      <point x="573" y="190" type="curve" smooth="yes"/>
      <point x="573" y="67"/>
      <point x="469" y="1"/>
      <point x="349" y="1" type="curve" smooth="yes"/>
      <point x="200" y="1"/>
      <point x="143" y="40"/>
      <point x="143" y="136" type="curve"/>
      <point x="134" y="136"/>
      <point x="115" y="133"/>
      <point x="115" y="109" type="curve" smooth="yes"/>
      <point x="115" y="53"/>
      <point x="181" y="-9"/>
    </contour>
  </outline>
</glyph>
<glyph name="seven" format="2">
  <advance width="693"/>
  <unicode hex="0037"/>
  <outline>
    <contour>
      <point x="222" y="0" type="line"/>
      <point x="252" y="0" type="line"/>
      <point x="608" y="690" type="line"/>
      <point x="608" y="712" type="line"/>
      <point x="79" y="712" type="line"/>
      <point x="71" y="568" type="line"/>
      <point x="81" y="568" type="line"/>
      <point x="86" y="634" type="line" smooth="yes"/>
      <point x="89" y="682"/>
      <point x="102" y="684"/>
      <point x="139" y="684" type="curve" smooth="yes"/>
      <point x="585" y="684" type="line"/>
    </contour>
  </outline>
</glyph>
<glyph name="G" format="2">
  <advance width="788"/>
  <unicode hex="0047"/>
  <anchor x="464" y="0" name="bottom"/>
  <anchor x="484" y="714" name="top"/>
  <anchor x="768" y="714" name="topright"/>
  <outline>
    <contour>
      <point x="458" y="-10" type="curve" smooth="yes"/>
      <point x="556" y="-10"/>
      <point x="625" y="1"/>
      <point x="688" y="25" type="curve"/>
      <point x="688" y="213" type="line" smooth="yes"/>
      <point x="688" y="297"/>
      <point x="692" y="311"/>
      <point x="747" y="311" type="curve" smooth="yes"/>
      <point x="781" y="311" type="line"/>
      <point x="781" y="321" type="line"/>
      <point x="555" y="321" type="line"/>
      <point x="555" y="311" type="line"/>
      <point x="610" y="311" type="line" smooth="yes"/>
      <point x="656" y="311"/>
      <point x="660" y="267"/>
      <point x="660" y="182" type="curve" smooth="yes"/>
      <point x="660" y="27" type="line"/>
      <point x="615" y="10"/>
      <point x="539" y="0"/>
      <point x="478" y="0" type="curve" smooth="yes"/>
      <point x="217" y="0"/>
      <point x="102" y="148"/>
      <point x="102" y="358" type="curve" smooth="yes"/>
      <point x="102" y="578"/>
      <point x="247" y="714"/>
      <point x="460" y="714" type="curve" smooth="yes"/>
      <point x="627" y="714"/>
      <point x="664" y="681"/>
      <point x="664" y="567" type="curve"/>
      <point x="687" y="567"/>
      <point x="690" y="579"/>
      <point x="690" y="607" type="curve" smooth="yes"/>
      <point x="690" y="673"/>
      <point x="639" y="724"/>
      <point x="470" y="724" type="curve" smooth="yes"/>
      <point x="226" y="724"/>
      <point x="74" y="567"/>
      <point x="74" y="358" type="curve" smooth="yes"/>
      <point x="74" y="153"/>
      <point x="202" y="-10"/>
    </contour>
  </outline>
</glyph>
<glyph name="N" format="2">
  <advance width="903"/>
  <unicode hex="004E"/>
  <anchor x="452" y="0" name="bottom"/>
  <anchor x="452" y="714" name="top"/>
  <anchor x="883" y="714" name="topright"/>
  <outline>
    <contour>
      <point x="64" y="0" type="line"/>
      <point x="308" y="0" type="line"/>
      <point x="308" y="10" type="line"/>
      <point x="254" y="10" type="line" smooth="yes"/>
      <point x="204" y="10"/>
      <point x="198" y="21"/>
      <point x="198" y="98" type="curve" smooth="yes"/>
      <point x="198" y="633" type="line"/>
      <point x="732" y="0" type="line"/>
      <point x="727" y="0" type="line"/>
      <point x="727" y="616" type="line" smooth="yes"/>
      <point x="727" y="693"/>
      <point x="733" y="704"/>
      <point x="783" y="704" type="curve" smooth="yes"/>
      <point x="847" y="704" type="line"/>
      <point x="847" y="714" type="line"/>
      <point x="607" y="714" type="line"/>
      <point x="607" y="704" type="line"/>
      <point x="661" y="704" type="line" smooth="yes"/>
      <point x="711" y="704"/>
      <point x="717" y="693"/>
      <point x="717" y="616" type="curve" smooth="yes"/>
      <point x="717" y="77" type="line"/>
      <point x="179" y="714" type="line"/>
      <point x="64" y="714" type="line"/>
      <point x="64" y="704" type="line"/>
      <point x="132" y="704" type="line" smooth="yes"/>
      <point x="182" y="704"/>
      <point x="188" y="693"/>
      <point x="188" y="616" type="curve" smooth="yes"/>
      <point x="188" y="98" type="line" smooth="yes"/>
      <point x="188" y="21"/>
      <point x="182" y="10"/>
      <point x="132" y="10" type="curve" smooth="yes"/>
      <point x="64" y="10" type="line"/>
    </contour>
  </outline>
</glyph>
<glyph name="O" format="2">
  <advance width="842"/>
  <unicode hex="004F"/>
  <anchor x="421" y="0" name="bottom"/>
  <anchor x="421" y="357" name="center"/>
  <anchor x="421" y="714" name="top"/>
  <anchor x="822" y="714" name="topright"/>
  <outline>
    <contour>
      <point x="422" y="-10" type="curve" smooth="yes"/>
      <point x="686" y="-10"/>
      <point x="769" y="145"/>
      <point x="769" y="358" type="curve" smooth="yes"/>
      <point x="769" y="570"/>
      <point x="680" y="725"/>
      <point x="423" y="725" type="curve" smooth="yes"/>
      <point x="196" y="725"/>
      <point x="72" y="588"/>
      <point x="72" y="359" type="curve" smooth="yes"/>
      <point x="72" y="113"/>
      <point x="190" y="-10"/>
    </contour>
    <contour>
      <point x="422" y="0" type="curve" smooth="yes"/>
      <point x="207" y="0"/>
      <point x="100" y="118"/>
      <point x="100" y="358" type="curve" smooth="yes"/>
      <point x="100" y="587"/>
      <point x="213" y="715"/>
      <point x="423" y="715" type="curve" smooth="yes"/>
      <point x="654" y="715"/>
      <point x="741" y="587"/>
      <point x="741" y="358" type="curve" smooth="yes"/>
      <point x="741" y="129"/>
      <point x="656" y="0"/>
    </contour>
  </outline>
</glyph>
<glyph name="S" format="2">
  <advance width="598"/>
  <unicode hex="0053"/>
  <anchor x="319" y="0" name="bottom"/>
  <anchor x="339" y="714" name="top"/>
  <anchor x="578" y="714" name="topright"/>
  <outline>
    <contour>
      <point x="327" y="-10" type="curve" smooth="yes"/>
      <point x="465" y="-10"/>
      <point x="534" y="76"/>
      <point x="534" y="171" type="curve" smooth="yes"/>
      <point x="534" y="287"/>
      <point x="420" y="334"/>
      <point x="314" y="392" type="curve" smooth="yes"/>
      <point x="222" y="440"/>
      <point x="165" y="477"/>
      <point x="165" y="552" type="curve" smooth="yes"/>
      <point x="165" y="650"/>
      <point x="224" y="714"/>
      <point x="341" y="714" type="curve" smooth="yes"/>
      <point x="448" y="714"/>
      <point x="502" y="688"/>
      <point x="502" y="577" type="curve"/>
      <point x="529" y="577"/>
      <point x="531" y="593"/>
      <point x="531" y="616" type="curve" smooth="yes"/>
      <point x="531" y="685"/>
      <point x="445" y="724"/>
      <point x="343" y="724" type="curve" smooth="yes"/>
      <point x="219" y="724"/>
      <point x="137" y="643"/>
      <point x="137" y="563" type="curve" smooth="yes"/>
      <point x="137" y="467"/>
      <point x="165" y="437"/>
      <point x="311" y="361" type="curve" smooth="yes"/>
      <point x="450" y="290"/>
      <point x="506" y="234"/>
      <point x="506" y="173" type="curve" smooth="yes"/>
      <point x="506" y="77"/>
      <point x="457" y="0"/>
      <point x="325" y="0" type="curve" smooth="yes"/>
      <point x="203" y="0"/>
      <point x="131" y="28"/>
      <point x="131" y="164" type="curve"/>
      <point x="113" y="164"/>
      <point x="102" y="160"/>
      <point x="102" y="128" type="curve" smooth="yes"/>
      <point x="102" y="54"/>
      <point x="176" y="-10"/>
    </contour>
  </outline>
</glyph>
<glyph name="n" format="2">
  <advance width="761"/>
  <unicode hex="006E"/>
  <anchor x="381" y="0" name="bottom"/>
  <anchor x="381" y="536" name="top"/>
  <anchor x="661" y="536" name="topright"/>
  <outline>
    <contour>
      <point x="48" y="0" type="line"/>
      <point x="315" y="0" type="line"/>
      <point x="315" y="10" type="line"/>
      <point x="289" y="10" type="line" smooth="yes"/>
      <point x="203" y="10"/>
      <point x="201" y="12"/>
      <point x="201" y="82" type="curve" smooth="yes"/>
      <point x="201" y="355" type="line" smooth="yes"/>
      <point x="201" y="389"/>
      <point x="218" y="527"/>
      <point x="413" y="527" type="curve" smooth="yes"/>
      <point x="542" y="527"/>
      <point x="587" y="461"/>
      <point x="587" y="386" type="curve" smooth="yes"/>
      <point x="587" y="0" type="line"/>
      <point x="731" y="0" type="line"/>
      <point x="731" y="10" type="line"/>
      <point x="705" y="10" type="line" smooth="yes"/>
      <point x="617" y="10"/>
      <point x="615" y="12"/>
      <point x="615" y="82" type="curve" smooth="yes"/>
      <point x="615" y="351" type="line" smooth="yes"/>
      <point x="615" y="478"/>
      <point x="553" y="542"/>
      <point x="413" y="542" type="curve" smooth="yes"/>
      <point x="323" y="542"/>
      <point x="234" y="503"/>
      <point x="204" y="423" type="curve"/>
      <point x="202" y="423" type="line"/>
      <point x="202" y="536" type="line"/>
      <point x="55" y="536" type="line"/>
      <point x="55" y="526" type="line"/>
      <point x="106" y="526" type="line" smooth="yes"/>
      <point x="165" y="526"/>
      <point x="173" y="521"/>
      <point x="173" y="453" type="curve" smooth="yes"/>
      <point x="173" y="82" type="line" smooth="yes"/>
      <point x="173" y="12"/>
      <point x="171" y="10"/>
      <point x="86" y="10" type="curve" smooth="yes"/>
      <point x="48" y="10" type="line"/>
    </contour>
  </outline>
</glyph>
<glyph name="o" format="2">
  <advance width="652"/>
  <unicode hex="006F"/>
  <anchor x="327" y="0" name="bottom"/>
  <anchor x="327" y="268" name="center"/>
  <anchor x="327" y="536" name="top"/>
  <anchor x="612" y="536" name="topright"/>
  <outline>
    <contour>
      <point x="325" y="-10" type="curve" smooth="yes"/>
      <point x="486" y="-10"/>
      <point x="570" y="85"/>
      <point x="570" y="267" type="curve" smooth="yes"/>
      <point x="570" y="469"/>
      <point x="478" y="542"/>
      <point x="333" y="542" type="curve" smooth="yes"/>
      <point x="173" y="542"/>
      <point x="82" y="457"/>
      <point x="82" y="267" type="curve" smooth="yes"/>
      <point x="82" y="82"/>
      <point x="177" y="-10"/>
    </contour>
    <contour>
      <point x="324" y="0" type="curve" smooth="yes"/>
      <point x="175" y="0"/>
      <point x="110" y="99"/>
      <point x="110" y="267" type="curve" smooth="yes"/>
      <point x="110" y="447"/>
      <point x="178" y="532"/>
      <point x="335" y="532" type="curve" smooth="yes"/>
      <point x="471" y="532"/>
      <point x="542" y="457"/>
      <point x="542" y="267" type="curve" smooth="yes"/>
      <point x="542" y="112"/>
      <point x="485" y="0"/>
    </contour>
  </outline>
</glyph>
<glyph name="r" format="2">
  <advance width="492"/>
  <unicode hex="0072"/>
  <anchor x="187" y="0" name="bottom"/>
  <anchor x="297" y="536" name="top"/>
  <anchor x="492" y="536" name="topright"/>
  <outline>
    <contour>
      <point x="62" y="0" type="line"/>
      <point x="324" y="0" type="line"/>
      <point x="324" y="10" type="line"/>
      <point x="265" y="10" type="line" smooth="yes"/>
      <point x="208" y="10"/>
      <point x="200" y="13"/>
      <point x="200" y="90" type="curve" smooth="yes"/>
      <point x="200" y="320" type="line" smooth="yes"/>
      <point x="200" y="423"/>
      <point x="273" y="529"/>
      <point x="363" y="529" type="curve" smooth="yes"/>
      <point x="419" y="529"/>
      <point x="447" y="499"/>
      <point x="447" y="443" type="curve"/>
      <point x="469" y="443"/>
      <point x="473" y="456"/>
      <point x="473" y="468" type="curve" smooth="yes"/>
      <point x="473" y="511"/>
      <point x="427" y="544"/>
      <point x="369" y="544" type="curve" smooth="yes"/>
      <point x="283" y="544"/>
      <point x="219" y="445"/>
      <point x="201" y="390" type="curve"/>
      <point x="199" y="390" type="line"/>
      <point x="199" y="536" type="line"/>
      <point x="55" y="536" type="line"/>
      <point x="55" y="526" type="line"/>
      <point x="88" y="526" type="line" smooth="yes"/>
      <point x="170" y="526"/>
      <point x="172" y="523"/>
      <point x="172" y="454" type="curve" smooth="yes"/>
      <point x="172" y="90" type="line" smooth="yes"/>
      <point x="172" y="13"/>
      <point x="164" y="10"/>
      <point x="105" y="10" type="curve" smooth="yes"/>
      <point x="62" y="10" type="line"/>
    </contour>
  </outline>
</glyph>
<glyph name="cent" format="2">
  <advance width="695"/>
  <unicode hex="00A2"/>
  <outline>
    <contour>
      <point x="387" y="0" type="line"/>
      <point x="390" y="0" type="line"/>
      <point x="390" y="92" type="line"/>
      <point x="516" y="91"/>
      <point x="575" y="165"/>
      <point x="575" y="192" type="curve" smooth="yes"/>
      <point x="575" y="207"/>
      <point x="568" y="219"/>
      <point x="560" y="220" type="curve"/>
      <point x="538" y="145"/>
      <point x="496" y="103"/>
      <point x="390" y="102" type="curve"/>
      <point x="390" y="632" type="line"/>
      <point x="494" y="630"/>
      <point x="540" y="557"/>
      <point x="540" y="508" type="curve"/>
      <point x="567" y="510"/>
      <point x="570" y="525"/>
      <point x="570" y="525" type="curve" smooth="yes"/>
      <point x="570" y="588"/>
      <point x="503" y="643"/>
      <point x="390" y="642" type="curve"/>
      <point x="390" y="714" type="line"/>
      <point x="387" y="714" type="line"/>
      <point x="387" y="643" type="line"/>
      <point x="245" y="641"/>
      <point x="147" y="567"/>
      <point x="147" y="360" type="curve" smooth="yes"/>
      <point x="147" y="203"/>
      <point x="251" y="88"/>
      <point x="387" y="90" type="curve"/>
    </contour>
    <contour>
      <point x="387" y="100" type="line"/>
      <point x="277" y="98"/>
      <point x="175" y="203"/>
      <point x="175" y="363" type="curve" smooth="yes"/>
      <point x="175" y="549"/>
      <point x="251" y="634"/>
      <point x="387" y="633" type="curve"/>
    </contour>
  </outline>
</glyph>
<glyph name="guillemotleft" format="2">
  <advance width="569"/>
  <unicode hex="00AB"/>
  <outline>
    <contour>
      <point x="441" y="93" type="line"/>
      <point x="464" y="93" type="line"/>
      <point x="319" y="270" type="line"/>
      <point x="464" y="447" type="line"/>
      <point x="441" y="447" type="line"/>
      <point x="285" y="274" type="line"/>
      <point x="285" y="266" type="line"/>
    </contour>
    <contour>
      <point x="244" y="93" type="line"/>
      <point x="266" y="93" type="line"/>
      <point x="121" y="270" type="line"/>
      <point x="266" y="447" type="line"/>
      <point x="244" y="447" type="line"/>
      <point x="87" y="274" type="line"/>
      <point x="87" y="266" type="line"/>
    </contour>
  </outline>
</glyph>
<glyph name="cedilla" format="2">
  <advance width="414"/>
  <unicode hex="00B8"/>
  <outline>
    <contour>
      <point x="169" y="-224" type="curve" smooth="yes"/>
      <point x="228" y="-224"/>
      <point x="283" y="-213"/>
      <point x="283" y="-132" type="curve" smooth="yes"/>
      <point x="283" y="-68"/>
      <point x="224" y="-66"/>
      <point x="181" y="-56" type="curve"/>
      <point x="195" y="-4" type="line"/>
      <point x="185" y="-4" type="line"/>
      <point x="163" y="-85" type="line"/>
      <point x="226" y="-92"/>
      <point x="263" y="-103"/>
      <point x="263" y="-137" type="curve" smooth="yes"/>
      <point x="263" y="-204"/>
      <point x="223" y="-214"/>
      <point x="171" y="-214" type="curve" smooth="yes"/>
      <point x="135" y="-214"/>
      <point x="122" y="-212"/>
      <point x="91" y="-204" type="curve"/>
      <point x="91" y="-216" type="line"/>
      <point x="122" y="-223"/>
      <point x="147" y="-224"/>
    </contour>
  </outline>
</glyph>
<glyph name="guillemotright" format="2">
  <advance width="569"/>
  <unicode hex="00BB"/>
  <outline>
    <contour>
      <point x="295" y="93" type="line"/>
      <point x="317" y="93" type="line"/>
      <point x="474" y="266" type="line"/>
      <point x="474" y="274" type="line"/>
      <point x="317" y="447" type="line"/>
      <point x="295" y="447" type="line"/>
      <point x="440" y="270" type="line"/>
    </contour>
    <contour>
      <point x="97" y="93" type="line"/>
      <point x="120" y="93" type="line"/>
      <point x="276" y="266" type="line"/>
      <point x="276" y="274" type="line"/>
      <point x="120" y="447" type="line"/>
      <point x="97" y="447" type="line"/>
      <point x="242" y="270" type="line"/>
    </contour>
  </outline>
</glyph>
<glyph name="AE" format="2">
  <advance width="1063"/>
  <unicode hex="00C6"/>
  <anchor x="514" y="0" name="bottom"/>
  <anchor x="514" y="714" name="top"/>
  <outline>
    <contour>
      <point x="-6" y="0" type="line"/>
      <point x="226" y="0" type="line"/>
      <point x="226" y="10" type="line"/>
      <point x="150" y="10" type="line" smooth="yes"/>
      <point x="113" y="10"/>
      <point x="92" y="10"/>
      <point x="92" y="31" type="curve" smooth="yes"/>
      <point x="92" y="41"/>
      <point x="104" y="55"/>
      <point x="116" y="72" type="curve" smooth="yes"/>
      <point x="238" y="286" type="line"/>
      <point x="531" y="286" type="line"/>
      <point x="531" y="105" type="line" smooth="yes"/>
      <point x="531" y="21"/>
      <point x="531" y="10"/>
      <point x="456" y="10" type="curve" smooth="yes"/>
      <point x="406" y="10" type="line"/>
      <point x="406" y="0" type="line"/>
      <point x="984" y="0" type="line"/>
      <point x="994" y="162" type="line"/>
      <point x="984" y="162" type="line"/>
      <point x="976" y="49" type="line" smooth="yes"/>
      <point x="973" y="11"/>
      <point x="954" y="10"/>
      <point x="900" y="10" type="curve" smooth="yes"/>
      <point x="559" y="10" type="line"/>
      <point x="557" y="363" type="line"/>
      <point x="857" y="363" type="line"/>
      <point x="857" y="373" type="line"/>
      <point x="557" y="373" type="line"/>
      <point x="557" y="704" type="line"/>
      <point x="905" y="704" type="line" smooth="yes"/>
      <point x="903" y="704"/>
      <point x="930" y="693"/>
      <point x="931" y="691" type="curve" smooth="yes"/>
      <point x="941" y="552" type="line"/>
      <point x="951" y="552" type="line"/>
      <point x="942" y="714" type="line"/>
      <point x="376" y="714" type="line"/>
      <point x="376" y="704" type="line"/>
      <point x="480" y="704" type="line"/>
      <point x="66" y="-1" type="line" smooth="yes"/>
      <point x="63" y="12"/>
      <point x="34" y="10"/>
      <point x="33" y="10" type="curve" smooth="yes"/>
      <point x="-6" y="10" type="line"/>
    </contour>
    <contour>
      <point x="244" y="296" type="line"/>
      <point x="491" y="704" type="line"/>
      <point x="531" y="704" type="line"/>
      <point x="531" y="296" type="line"/>
    </contour>
  </outline>
</glyph>
<glyph name="Eth" format="2">
  <advance width="832"/>
  <unicode hex="00D0"/>
  <anchor x="417" y="0" name="bottom"/>
  <anchor x="417" y="714" name="top"/>
  <outline>
    <contour>
      <point x="64" y="0" type="line"/>
      <point x="404" y="0" type="line" smooth="yes"/>
      <point x="643" y="0"/>
      <point x="755" y="122"/>
      <point x="755" y="341" type="curve" smooth="yes"/>
      <point x="755" y="562"/>
      <point x="633" y="714"/>
      <point x="395" y="714" type="curve" smooth="yes"/>
      <point x="64" y="714" type="line"/>
      <point x="64" y="704" type="line"/>
      <point x="147" y="704" type="line" smooth="yes"/>
      <point x="182" y="704"/>
      <point x="188" y="688"/>
      <point x="188" y="611" type="curve" smooth="yes"/>
      <point x="188" y="377" type="line"/>
      <point x="47" y="377" type="line"/>
      <point x="47" y="367" type="line"/>
      <point x="188" y="367" type="line"/>
      <point x="188" y="96" type="line" smooth="yes"/>
      <point x="188" y="25"/>
      <point x="182" y="10"/>
      <point x="142" y="10" type="curve" smooth="yes"/>
      <point x="64" y="10" type="line"/>
    </contour>
    <contour>
      <point x="216" y="10" type="line"/>
      <point x="216" y="367" type="line"/>
      <point x="502" y="367" type="line"/>
      <point x="502" y="377" type="line"/>
      <point x="216" y="377" type="line"/>
      <point x="216" y="704" type="line"/>
      <point x="377" y="704" type="line" smooth="yes"/>
      <point x="628" y="704"/>
      <point x="727" y="562"/>
      <point x="727" y="341" type="curve" smooth="yes"/>
      <point x="727" y="121"/>
      <point x="632" y="10"/>
      <point x="376" y="10" type="curve" smooth="yes"/>
    </contour>
  </outline>
</glyph>
<glyph name="Oslash" format="2">
  <advance width="843"/>
  <unicode hex="00D8"/>
  <anchor x="421" y="0" name="bottom"/>
  <anchor x="421" y="714" name="top"/>
  <outline>
    <contour>
      <point x="116" y="-40" type="line"/>
      <point x="127" y="-40" type="line"/>
      <point x="192" y="56" type="line"/>
      <point x="251" y="13"/>
      <point x="327" y="-10"/>
      <point x="422" y="-10" type="curve" smooth="yes"/>
      <point x="686" y="-10"/>
      <point x="769" y="145"/>
      <point x="769" y="358" type="curve" smooth="yes"/>
      <point x="769" y="504"/>
      <point x="730" y="618"/>
      <point x="630" y="678" type="curve"/>
      <point x="684" y="755" type="line"/>
      <point x="673" y="755" type="line"/>
      <point x="622" y="683" type="line"/>
      <point x="570" y="709"/>
      <point x="505" y="725"/>
      <point x="423" y="725" type="curve" smooth="yes"/>
      <point x="196" y="725"/>
      <point x="72" y="588"/>
      <point x="72" y="359" type="curve" smooth="yes"/>
      <point x="72" y="221"/>
      <point x="111" y="123"/>
      <point x="186" y="62" type="curve"/>
    </contour>
    <contour>
      <point x="422" y="0" type="curve" smooth="yes"/>
      <point x="329" y="0"/>
      <point x="255" y="24"/>
      <point x="202" y="70" type="curve"/>
      <point x="621" y="670" type="line"/>
      <point x="706" y="613"/>
      <point x="741" y="507"/>
      <point x="741" y="358" type="curve" smooth="yes"/>
      <point x="741" y="129"/>
      <point x="656" y="0"/>
    </contour>
    <contour>
      <point x="197" y="74" type="line"/>
      <point x="133" y="135"/>
      <point x="100" y="228"/>
      <point x="100" y="358" type="curve" smooth="yes"/>
      <point x="100" y="587"/>
      <point x="213" y="715"/>
      <point x="423" y="715" type="curve" smooth="yes"/>
      <point x="503" y="715"/>
      <point x="566" y="701"/>
      <point x="614" y="674" type="curve"/>
    </contour>
  </outline>
</glyph>
<glyph name="germandbls" format="2">
  <advance width="708"/>
  <unicode hex="00DF"/>
  <anchor x="354" y="0" name="bottom"/>
  <anchor x="354" y="755" name="top"/>
  <outline>
    <contour>
      <point x="469" y="-10" type="curve" smooth="yes"/>
      <point x="559" y="-10"/>
      <point x="642" y="42"/>
      <point x="642" y="127" type="curve" smooth="yes"/>
      <point x="642" y="179"/>
      <point x="610" y="236"/>
      <point x="486" y="293" type="curve" smooth="yes"/>
      <point x="375" y="339"/>
      <point x="357" y="378"/>
      <point x="357" y="397" type="curve" smooth="yes"/>
      <point x="357" y="460"/>
      <point x="368" y="517"/>
      <point x="552" y="517" type="curve" smooth="yes"/>
      <point x="579" y="517" type="line"/>
      <point x="577" y="631"/>
      <point x="559" y="755"/>
      <point x="363" y="755" type="curve" smooth="yes"/>
      <point x="279" y="755"/>
      <point x="167" y="723"/>
      <point x="167" y="594" type="curve" smooth="yes"/>
      <point x="167" y="536" type="line"/>
      <point x="47" y="536" type="line"/>
      <point x="47" y="526" type="line"/>
      <point x="167" y="526" type="line"/>
      <point x="167" y="75" type="line" smooth="yes"/>
      <point x="167" y="9"/>
      <point x="161" y="10"/>
      <point x="81" y="10" type="curve" smooth="yes"/>
      <point x="42" y="10" type="line"/>
      <point x="42" y="0" type="line"/>
      <point x="195" y="0" type="line"/>
      <point x="195" y="604" type="line" smooth="yes"/>
      <point x="195" y="697"/>
      <point x="253" y="745"/>
      <point x="369" y="745" type="curve" smooth="yes"/>
      <point x="517" y="745"/>
      <point x="549" y="656"/>
      <point x="549" y="527" type="curve"/>
      <point x="388" y="524"/>
      <point x="329" y="487"/>
      <point x="329" y="404" type="curve" smooth="yes"/>
      <point x="329" y="325"/>
      <point x="419" y="295"/>
      <point x="491" y="265" type="curve" smooth="yes"/>
      <point x="577" y="225"/>
      <point x="614" y="178"/>
      <point x="614" y="132" type="curve" smooth="yes"/>
      <point x="614" y="47"/>
      <point x="561" y="0"/>
      <point x="472" y="0" type="curve" smooth="yes"/>
      <point x="400" y="0"/>
      <point x="324" y="11"/>
      <point x="324" y="142" type="curve"/>
      <point x="302" y="142"/>
      <point x="287" y="123"/>
      <point x="287" y="104" type="curve" smooth="yes"/>
      <point x="287" y="32"/>
      <point x="385" y="-10"/>
    </contour>
  </outline>
</glyph>
<glyph name="idotless" format="2">
  <advance width="341"/>
  <unicode hex="0131"/>
  <anchor x="170" y="0" name="bottom"/>
  <anchor x="170" y="536" name="top"/>
  <outline>
    <contour>
      <point x="40" y="0" type="line"/>
      <point x="334" y="0" type="line"/>
      <point x="334" y="10" type="line"/>
      <point x="291" y="10" type="line" smooth="yes"/>
      <point x="201" y="10"/>
      <point x="199" y="12"/>
      <point x="199" y="82" type="curve" smooth="yes"/>
      <point x="199" y="536" type="line"/>
      <point x="69" y="536" type="line"/>
      <point x="69" y="526" type="line"/>
      <point x="99" y="526" type="line" smooth="yes"/>
      <point x="159" y="526"/>
      <point x="171" y="524"/>
      <point x="171" y="457" type="curve" smooth="yes"/>
      <point x="171" y="82" type="line" smooth="yes"/>
      <point x="171" y="12"/>
      <point x="167" y="10"/>
      <point x="84" y="10" type="curve" smooth="yes"/>
      <point x="40" y="10" type="line"/>
    </contour>
  </outline>
</glyph>
<glyph name="tbar" format="2">
  <advance width="343"/>
  <unicode hex="0167"/>
  <anchor x="171" y="0" name="bottom"/>
  <anchor x="171" y="657" name="top"/>
  <anchor x="263" y="657" name="topright"/>
  <anchor x="171" y="268" name="center"/>
  <outline>
    <contour>
      <point x="29" y="304" type="line"/>
      <point x="304" y="304" type="line"/>
      <point x="304" y="314" type="line"/>
      <point x="29" y="314" type="line"/>
    </contour>
    <component base="t"/>
  </outline>
</glyph>
<glyph name="longs" format="2">
  <advance width="296"/>
  <unicode hex="017F"/>
  <anchor x="148" y="0" name="bottom"/>
  <anchor x="328" y="772" name="top"/>
  <outline>
    <contour>
      <point x="24" y="0" type="line"/>
      <point x="326" y="0" type="line"/>
      <point x="326" y="10" type="line"/>
      <point x="269" y="10" type="line" smooth="yes"/>
      <point x="181" y="10"/>
      <point x="177" y="9"/>
      <point x="177" y="75" type="curve" smooth="yes"/>
      <point x="177" y="600" type="line" smooth="yes"/>
      <point x="177" y="714"/>
      <point x="240" y="762"/>
      <point x="326" y="762" type="curve" smooth="yes"/>
      <point x="412" y="762"/>
      <point x="428" y="713"/>
      <point x="428" y="658" type="curve"/>
      <point x="452" y="658"/>
      <point x="456" y="675"/>
      <point x="456" y="693" type="curve" smooth="yes"/>
      <point x="456" y="719"/>
      <point x="410" y="772"/>
      <point x="332" y="772" type="curve" smooth="yes"/>
      <point x="216" y="772"/>
      <point x="149" y="701"/>
      <point x="149" y="599" type="curve" smooth="yes"/>
      <point x="149" y="75" type="line" smooth="yes"/>
      <point x="149" y="9"/>
      <point x="145" y="10"/>
      <point x="59" y="10" type="curve" smooth="yes"/>
      <point x="24" y="10" type="line"/>
    </contour>
  </outline>
</glyph>
<glyph name="uni0181" format="2">
  <advance width="796"/>
  <unicode hex="0181"/>
  <anchor x="396" y="0" name="bottom"/>
  <anchor x="396" y="714" name="top"/>
  <outline>
    <contour>
      <point x="90" y="0" type="line"/>
      <point x="424" y="0" type="line" smooth="yes"/>
      <point x="597" y="0"/>
      <point x="690" y="58"/>
      <point x="690" y="211" type="curve" smooth="yes"/>
      <point x="690" y="303"/>
      <point x="634" y="381"/>
      <point x="477" y="376" type="curve"/>
      <point x="477" y="378" type="line"/>
      <point x="586" y="395"/>
      <point x="652" y="426"/>
      <point x="652" y="539" type="curve" smooth="yes"/>
      <point x="652" y="673"/>
      <point x="571" y="714"/>
      <point x="386" y="714" type="curve" smooth="yes"/>
      <point x="162" y="714" type="line" smooth="yes"/>
      <point x="70" y="714"/>
      <point x="26" y="685"/>
      <point x="26" y="633" type="curve" smooth="yes"/>
      <point x="26" y="600"/>
      <point x="46" y="576"/>
      <point x="61" y="576" type="curve" smooth="yes"/>
      <point x="75" y="576"/>
      <point x="79" y="582"/>
      <point x="84" y="584" type="curve"/>
      <point x="70" y="597"/>
      <point x="55" y="613"/>
      <point x="56" y="638" type="curve" smooth="yes"/>
      <point x="58" y="702"/>
      <point x="100" y="704"/>
      <point x="166" y="704" type="curve" smooth="yes"/>
      <point x="205" y="704"/>
      <point x="215" y="709"/>
      <point x="215" y="731" type="curve" smooth="yes"/>
      <point x="215" y="96" type="line" smooth="yes"/>
      <point x="215" y="21"/>
      <point x="207" y="10"/>
      <point x="163" y="10" type="curve" smooth="yes"/>
      <point x="90" y="10" type="line"/>
    </contour>
    <contour>
      <point x="243" y="10" type="line"/>
      <point x="243" y="372" type="line"/>
      <point x="419" y="372" type="line" smooth="yes"/>
      <point x="602" y="372"/>
      <point x="661" y="292"/>
      <point x="661" y="172" type="curve" smooth="yes"/>
      <point x="661" y="77"/>
      <point x="590" y="10"/>
      <point x="416" y="10" type="curve" smooth="yes"/>
    </contour>
    <contour>
      <point x="243" y="382" type="line"/>
      <point x="243" y="704" type="line"/>
      <point x="372" y="704" type="line" smooth="yes"/>
      <point x="552" y="704"/>
      <point x="623" y="671"/>
      <point x="623" y="544" type="curve" smooth="yes"/>
      <point x="623" y="430"/>
      <point x="565" y="382"/>
      <point x="381" y="382" type="curve" smooth="yes"/>
    </contour>
  </outline>
</glyph>
<glyph name="uni0185" format="2">
  <advance width="650"/>
  <unicode hex="0185"/>
  <anchor x="326" y="0" name="bottom"/>
  <anchor x="326" y="760" name="top"/>
  <outline>
    <contour>
      <point x="321" y="-10" type="curve" smooth="yes"/>
      <point x="469" y="-10"/>
      <point x="570" y="110"/>
      <point x="570" y="267" type="curve" smooth="yes"/>
      <point x="570" y="454"/>
      <point x="502" y="544"/>
      <point x="341" y="544" type="curve" smooth="yes"/>
      <point x="229" y="544"/>
      <point x="151" y="475"/>
      <point x="125" y="366" type="curve"/>
      <point x="122" y="366" type="line"/>
      <point x="123" y="443"/>
      <point x="125" y="518"/>
      <point x="125" y="559" type="curve" smooth="yes"/>
      <point x="125" y="760" type="line"/>
      <point x="-15" y="760" type="line"/>
      <point x="-15" y="750" type="line"/>
      <point x="28" y="750" type="line" smooth="yes"/>
      <point x="90" y="750"/>
      <point x="97" y="747"/>
      <point x="97" y="673" type="curve" smooth="yes"/>
      <point x="97" y="199" type="line" smooth="yes"/>
      <point x="97" y="-39"/>
      <point x="289" y="-10"/>
    </contour>
    <contour>
      <point x="325" y="0" type="curve" smooth="yes"/>
      <point x="167" y="0"/>
      <point x="124" y="101"/>
      <point x="124" y="270" type="curve" smooth="yes"/>
      <point x="124" y="408"/>
      <point x="183" y="524"/>
      <point x="332" y="524" type="curve" smooth="yes"/>
      <point x="485" y="524"/>
      <point x="542" y="450"/>
      <point x="542" y="271" type="curve" smooth="yes"/>
      <point x="542" y="115"/>
      <point x="460" y="0"/>
    </contour>
  </outline>
</glyph>
<glyph name="uni0187" format="2">
  <advance width="673"/>
  <unicode hex="0187"/>
  <anchor x="336" y="0" name="bottom"/>
  <anchor x="336" y="714" name="top"/>
  <outline>
    <contour>
      <point x="390" y="-10" type="curve" smooth="yes"/>
      <point x="517" y="-10"/>
      <point x="621" y="53"/>
      <point x="621" y="98" type="curve" smooth="yes"/>
      <point x="621" y="102"/>
      <point x="618" y="113"/>
      <point x="603" y="114" type="curve"/>
      <point x="574" y="45"/>
      <point x="510" y="0"/>
      <point x="385" y="0" type="curve" smooth="yes"/>
      <point x="198" y="0"/>
      <point x="98" y="116"/>
      <point x="98" y="358" type="curve" smooth="yes"/>
      <point x="98" y="594"/>
      <point x="197" y="714"/>
      <point x="375" y="714" type="curve" smooth="yes"/>
      <point x="496" y="714"/>
      <point x="592" y="701"/>
      <point x="592" y="570" type="curve"/>
      <point x="623" y="576"/>
      <point x="629" y="592"/>
      <point x="629" y="596" type="curve" smooth="yes"/>
      <point x="629" y="687" type="line" smooth="yes"/>
      <point x="629" y="772"/>
      <point x="648" y="809"/>
      <point x="693" y="809" type="curve" smooth="yes"/>
      <point x="714" y="809"/>
      <point x="727" y="804"/>
      <point x="753" y="798" type="curve"/>
      <point x="755" y="804"/>
      <point x="758" y="812"/>
      <point x="758" y="814" type="curve" smooth="yes"/>
      <point x="758" y="825"/>
      <point x="717" y="832"/>
      <point x="697" y="832" type="curve" smooth="yes"/>
      <point x="616" y="832"/>
      <point x="619" y="754"/>
      <point x="619" y="697" type="curve" smooth="yes"/>
      <point x="619" y="613" type="line"/>
      <point x="595" y="702"/>
      <point x="486" y="724"/>
      <point x="386" y="724" type="curve" smooth="yes"/>
      <point x="175" y="724"/>
      <point x="70" y="593"/>
      <point x="70" y="358" type="curve" smooth="yes"/>
      <point x="70" y="125"/>
      <point x="174" y="-10"/>
    </contour>
  </outline>
</glyph>
<glyph name="uni0195" format="2">
  <advance width="1075"/>
  <unicode hex="0195"/>
  <anchor x="538" y="0" name="bottom"/>
  <anchor x="538" y="536" name="top"/>
  <outline>
    <contour>
      <point x="771" y="-10" type="curve" smooth="yes"/>
      <point x="881" y="-10"/>
      <point x="971" y="56"/>
      <point x="971" y="145" type="curve" smooth="yes"/>
      <point x="971" y="536" type="line"/>
      <point x="810" y="536" type="line"/>
      <point x="810" y="526" type="line"/>
      <point x="891" y="526" type="line" smooth="yes"/>
      <point x="917" y="526"/>
      <point x="943" y="522"/>
      <point x="943" y="468" type="curve" smooth="yes"/>
      <point x="943" y="191" type="line" smooth="yes"/>
      <point x="943" y="115"/>
      <point x="919" y="0"/>
      <point x="771" y="0" type="curve" smooth="yes"/>
      <point x="608" y="0"/>
      <point x="593" y="133"/>
      <point x="593" y="196" type="curve" smooth="yes"/>
      <point x="593" y="360" type="line" smooth="yes"/>
      <point x="593" y="496"/>
      <point x="525" y="542"/>
      <point x="393" y="542" type="curve" smooth="yes"/>
      <point x="249" y="542"/>
      <point x="190" y="450"/>
      <point x="177" y="402" type="curve"/>
      <point x="175" y="402" type="line"/>
      <point x="174" y="438"/>
      <point x="176" y="447"/>
      <point x="176" y="469" type="curve" smooth="yes"/>
      <point x="176" y="760" type="line"/>
      <point x="25" y="760" type="line"/>
      <point x="25" y="750" type="line"/>
      <point x="77" y="750" type="line" smooth="yes"/>
      <point x="139" y="750"/>
      <point x="148" y="751"/>
      <point x="148" y="670" type="curve" smooth="yes"/>
      <point x="148" y="82" type="line" smooth="yes"/>
      <point x="148" y="12"/>
      <point x="144" y="10"/>
      <point x="69" y="10" type="curve" smooth="yes"/>
      <point x="20" y="10" type="line"/>
      <point x="20" y="0" type="line"/>
      <point x="297" y="0" type="line"/>
      <point x="297" y="10" type="line"/>
      <point x="258" y="10" type="line" smooth="yes"/>
      <point x="180" y="10"/>
      <point x="176" y="12"/>
      <point x="176" y="82" type="curve" smooth="yes"/>
      <point x="176" y="335" type="line" smooth="yes"/>
      <point x="176" y="473"/>
      <point x="270" y="527"/>
      <point x="399" y="527" type="curve" smooth="yes"/>
      <point x="511" y="527"/>
      <point x="565" y="484"/>
      <point x="565" y="356" type="curve" smooth="yes"/>
      <point x="565" y="147" type="line" smooth="yes"/>
      <point x="565" y="78"/>
      <point x="643" y="-10"/>
    </contour>
  </outline>
</glyph>
<glyph name="uni019A" format="2">
  <advance width="309"/>
  <unicode hex="019A"/>
  <anchor x="154" y="0" name="bottom"/>
  <anchor x="154" y="760" name="top"/>
  <outline>
    <contour>
      <point x="7" y="0" type="line"/>
      <point x="302" y="0" type="line"/>
      <point x="302" y="10" type="line"/>
      <point x="238" y="10" type="line" smooth="yes"/>
      <point x="175" y="10"/>
      <point x="169" y="14"/>
      <point x="169" y="84" type="curve" smooth="yes"/>
      <point x="169" y="382" type="line"/>
      <point x="280" y="382" type="line"/>
      <point x="280" y="392" type="line"/>
      <point x="169" y="392" type="line"/>
      <point x="169" y="760" type="line"/>
      <point x="7" y="760" type="line"/>
      <point x="7" y="750" type="line"/>
      <point x="68" y="750" type="line" smooth="yes"/>
      <point x="136" y="750"/>
      <point x="141" y="746"/>
      <point x="141" y="672" type="curve" smooth="yes"/>
      <point x="141" y="392" type="line"/>
      <point x="29" y="392" type="line"/>
      <point x="29" y="382" type="line"/>
      <point x="141" y="382" type="line"/>
      <point x="141" y="84" type="line" smooth="yes"/>
      <point x="141" y="14"/>
      <point x="135" y="10"/>
      <point x="68" y="10" type="curve" smooth="yes"/>
      <point x="7" y="10" type="line"/>
    </contour>
  </outline>
</glyph>
<glyph name="uni019D" format="2">
  <advance width="910"/>
  <unicode hex="019D"/>
  <anchor x="456" y="-240" name="bottom"/>
  <anchor x="456" y="714" name="top"/>
  <outline>
    <contour>
      <point x="1" y="-240" type="line"/>
      <point x="14" y="-240" type="line" smooth="yes"/>
      <point x="136" y="-240"/>
      <point x="198" y="-242"/>
      <point x="198" y="-30" type="curve" smooth="yes"/>
      <point x="198" y="639" type="line"/>
      <point x="732" y="0" type="line"/>
      <point x="727" y="0" type="line"/>
      <point x="727" y="614" type="line" smooth="yes"/>
      <point x="727" y="693"/>
      <point x="733" y="704"/>
      <point x="785" y="704" type="curve" smooth="yes"/>
      <point x="847" y="704" type="line"/>
      <point x="847" y="714" type="line"/>
      <point x="607" y="714" type="line"/>
      <point x="607" y="704" type="line"/>
      <point x="641" y="704" type="line" smooth="yes"/>
      <point x="721" y="704"/>
      <point x="717" y="693"/>
      <point x="717" y="614" type="curve" smooth="yes"/>
      <point x="717" y="71" type="line"/>
      <point x="179" y="714" type="line"/>
      <point x="64" y="714" type="line"/>
      <point x="64" y="704" type="line"/>
      <point x="140" y="704" type="line" smooth="yes"/>
      <point x="180" y="704"/>
      <point x="188" y="693"/>
      <point x="188" y="614" type="curve" smooth="yes"/>
      <point x="188" y="-40" type="line" smooth="yes"/>
      <point x="188" y="-173"/>
      <point x="167" y="-230"/>
      <point x="22" y="-230" type="curve" smooth="yes"/>
      <point x="1" y="-230" type="line"/>
    </contour>
  </outline>
</glyph>
<glyph name="uni01A6" format="2">
  <advance width="727"/>
  <unicode hex="01A6"/>
  <anchor x="362" y="-120" name="bottom"/>
  <anchor x="362" y="714" name="top"/>
  <outline>
    <contour>
      <point x="729" y="-120" type="curve" smooth="yes"/>
      <point x="736" y="-120" type="line"/>
      <point x="736" y="-110" type="line"/>
      <point x="715" y="-110" type="line" smooth="yes"/>
      <point x="669" y="-110"/>
      <point x="658" y="-102"/>
      <point x="589" y="-14" type="curve" smooth="yes"/>
      <point x="395" y="219" type="line"/>
      <point x="507" y="222"/>
      <point x="596" y="295"/>
      <point x="596" y="401" type="curve" smooth="yes"/>
      <point x="596" y="544"/>
      <point x="508" y="575"/>
      <point x="306" y="575" type="curve" smooth="yes"/>
      <point x="214" y="575" type="line"/>
      <point x="214" y="614" type="line" smooth="yes"/>
      <point x="214" y="693"/>
      <point x="218" y="704"/>
      <point x="272" y="704" type="curve" smooth="yes"/>
      <point x="330" y="704" type="line"/>
      <point x="330" y="714" type="line"/>
      <point x="64" y="714" type="line"/>
      <point x="64" y="704" type="line"/>
      <point x="124" y="704" type="line" smooth="yes"/>
      <point x="182" y="704"/>
      <point x="186" y="693"/>
      <point x="186" y="614" type="curve" smooth="yes"/>
      <point x="186" y="98" type="line" smooth="yes"/>
      <point x="186" y="21"/>
      <point x="180" y="10"/>
      <point x="128" y="10" type="curve" smooth="yes"/>
      <point x="64" y="10" type="line"/>
      <point x="64" y="0" type="line"/>
      <point x="330" y="0" type="line"/>
      <point x="330" y="10" type="line"/>
      <point x="268" y="10" type="line" smooth="yes"/>
      <point x="220" y="10"/>
      <point x="214" y="21"/>
      <point x="214" y="98" type="curve" smooth="yes"/>
      <point x="214" y="224" type="line"/>
      <point x="360" y="224" type="line"/>
      <point x="565" y="-30" type="line" smooth="yes"/>
      <point x="625" y="-104"/>
      <point x="638" y="-120"/>
    </contour>
    <contour>
      <point x="214" y="234" type="line"/>
      <point x="214" y="565" type="line"/>
      <point x="328" y="565" type="line" smooth="yes"/>
      <point x="517" y="565"/>
      <point x="568" y="511"/>
      <point x="568" y="398" type="curve" smooth="yes"/>
      <point x="568" y="258"/>
      <point x="458" y="234"/>
      <point x="384" y="234" type="curve" smooth="yes"/>
    </contour>
  </outline>
</glyph>
<glyph name="Uhorn" format="2">
  <advance width="832"/>
  <unicode hex="01AF"/>
  <anchor x="416" y="0" name="bottom"/>
  <anchor x="416" y="714" name="top"/>
  <outline>
    <contour>
      <point x="419" y="-10" type="curve" smooth="yes"/>
      <point x="581" y="-10"/>
      <point x="674" y="102"/>
      <point x="674" y="236" type="curve" smooth="yes"/>
      <point x="674" y="563" type="line"/>
      <point x="730" y="562"/>
      <point x="788" y="604"/>
      <point x="788" y="709" type="curve" smooth="yes"/>
      <point x="788" y="740"/>
      <point x="775" y="770"/>
      <point x="754" y="770" type="curve" smooth="yes"/>
      <point x="744" y="770"/>
      <point x="728" y="766"/>
      <point x="728" y="751" type="curve" smooth="yes"/>
      <point x="728" y="718"/>
      <point x="777" y="705"/>
      <point x="777" y="686" type="curve" smooth="yes"/>
      <point x="777" y="619"/>
      <point x="724" y="574"/>
      <point x="674" y="573" type="curve"/>
      <point x="674" y="714" type="line"/>
      <point x="560" y="714" type="line"/>
      <point x="560" y="704" type="line"/>
      <point x="610" y="704" type="line" smooth="yes"/>
      <point x="658" y="704"/>
      <point x="664" y="693"/>
      <point x="664" y="613" type="curve" smooth="yes"/>
      <point x="664" y="234" type="line" smooth="yes"/>
      <point x="664" y="97"/>
      <point x="571" y="5"/>
      <point x="418" y="5" type="curve" smooth="yes"/>
      <point x="259" y="5"/>
      <point x="165" y="71"/>
      <point x="165" y="210" type="curve" smooth="yes"/>
      <point x="165" y="614" type="line" smooth="yes"/>
      <point x="165" y="692"/>
      <point x="170" y="704"/>
      <point x="217" y="704" type="curve" smooth="yes"/>
      <point x="282" y="704" type="line"/>
      <point x="282" y="714" type="line"/>
      <point x="16" y="714" type="line"/>
      <point x="16" y="704" type="line"/>
      <point x="79" y="704" type="line" smooth="yes"/>
      <point x="133" y="704"/>
      <point x="137" y="693"/>
      <point x="137" y="611" type="curve" smooth="yes"/>
      <point x="137" y="214" type="line" smooth="yes"/>
      <point x="137" y="50"/>
      <point x="251" y="-10"/>
    </contour>
  </outline>
</glyph>
<glyph name="uni01B5" format="2">
  <advance width="605"/>
  <unicode hex="01B5"/>
  <anchor x="302" y="0" name="bottom"/>
  <anchor x="302" y="714" name="top"/>
  <outline>
    <contour>
      <point x="34" y="0" type="line"/>
      <point x="550" y="0" type="line"/>
      <point x="555" y="131" type="line"/>
      <point x="545" y="131" type="line"/>
      <point x="543" y="83" type="line" smooth="yes"/>
      <point x="541" y="29"/>
      <point x="532" y="15"/>
      <point x="480" y="15" type="curve" smooth="yes"/>
      <point x="63" y="15" type="line"/>
      <point x="319" y="368" type="line"/>
      <point x="489" y="368" type="line"/>
      <point x="489" y="378" type="line"/>
      <point x="327" y="378" type="line"/>
      <point x="546" y="677" type="line"/>
      <point x="546" y="714" type="line"/>
      <point x="62" y="714" type="line"/>
      <point x="57" y="582" type="line"/>
      <point x="67" y="582" type="line"/>
      <point x="71" y="630" type="line" smooth="yes"/>
      <point x="75" y="685"/>
      <point x="80" y="699"/>
      <point x="132" y="699" type="curve" smooth="yes"/>
      <point x="525" y="699" type="line"/>
      <point x="293" y="378" type="line"/>
      <point x="122" y="378" type="line"/>
      <point x="122" y="368" type="line"/>
      <point x="285" y="368" type="line"/>
      <point x="34" y="22" type="line"/>
    </contour>
  </outline>
</glyph>
<glyph name="uni01BB" format="2">
  <advance width="663"/>
  <unicode hex="01BB"/>
  <anchor x="310" y="0" name="bottom"/>
  <anchor x="310" y="756" name="top"/>
  <outline>
    <contour>
      <point x="71" y="0" type="line"/>
      <point x="584" y="0" type="line"/>
      <point x="592" y="123" type="line"/>
      <point x="582" y="123" type="line"/>
      <point x="579" y="94" type="line" smooth="yes"/>
      <point x="574" y="33"/>
      <point x="568" y="22"/>
      <point x="517" y="22" type="curve" smooth="yes"/>
      <point x="86" y="22" type="line"/>
      <point x="425" y="362" type="line" smooth="yes"/>
      <point x="425" y="347"/>
      <point x="452" y="377"/>
      <point x="463" y="377" type="curve"/>
      <point x="573" y="377" type="line"/>
      <point x="573" y="387" type="line"/>
      <point x="472" y="387" type="line"/>
      <point x="524" y="433"/>
      <point x="560" y="475"/>
      <point x="560" y="565" type="curve" smooth="yes"/>
      <point x="560" y="649"/>
      <point x="494" y="756"/>
      <point x="314" y="756" type="curve" smooth="yes"/>
      <point x="163" y="756"/>
      <point x="90" y="696"/>
      <point x="90" y="650" type="curve" smooth="yes"/>
      <point x="90" y="632"/>
      <point x="91" y="615"/>
      <point x="116" y="615" type="curve"/>
      <point x="116" y="720"/>
      <point x="197" y="746"/>
      <point x="314" y="746" type="curve" smooth="yes"/>
      <point x="473" y="746"/>
      <point x="532" y="644"/>
      <point x="532" y="566" type="curve" smooth="yes"/>
      <point x="532" y="477"/>
      <point x="499" y="439"/>
      <point x="445" y="387" type="curve"/>
      <point x="124" y="387" type="line"/>
      <point x="124" y="377" type="line"/>
      <point x="434" y="377" type="line"/>
      <point x="415" y="367"/>
      <point x="394" y="349"/>
      <point x="379" y="341" type="curve" smooth="yes"/>
      <point x="71" y="29" type="line"/>
    </contour>
  </outline>
</glyph>
<glyph name="uni01BE" format="2">
  <advance width="503"/>
  <unicode hex="01BE"/>
  <anchor x="251" y="0" name="bottom"/>
  <anchor x="251" y="657" name="top"/>
  <outline>
    <contour>
      <point x="260" y="-10" type="curve" smooth="yes"/>
      <point x="374" y="-10"/>
      <point x="444" y="60"/>
      <point x="444" y="136" type="curve" smooth="yes"/>
      <point x="444" y="245"/>
      <point x="373" y="258"/>
      <point x="342" y="265" type="curve" smooth="yes"/>
      <point x="308" y="275"/>
      <point x="241" y="291"/>
      <point x="241" y="353" type="curve" smooth="yes"/>
      <point x="241" y="526" type="line"/>
      <point x="395" y="526" type="line"/>
      <point x="395" y="536" type="line"/>
      <point x="241" y="536" type="line"/>
      <point x="241" y="657" type="line"/>
      <point x="231" y="657" type="line"/>
      <point x="232" y="584"/>
      <point x="210" y="555"/>
      <point x="201" y="553" type="curve" smooth="yes"/>
      <point x="184" y="542"/>
      <point x="168" y="534"/>
      <point x="117" y="536" type="curve"/>
      <point x="117" y="526" type="line"/>
      <point x="213" y="526" type="line"/>
      <point x="213" y="351" type="line" smooth="yes"/>
      <point x="213" y="258"/>
      <point x="305" y="251"/>
      <point x="337" y="242" type="curve" smooth="yes"/>
      <point x="371" y="230"/>
      <point x="416" y="214"/>
      <point x="416" y="138" type="curve" smooth="yes"/>
      <point x="416" y="70"/>
      <point x="367" y="0"/>
      <point x="261" y="0" type="curve" smooth="yes"/>
      <point x="188" y="0"/>
      <point x="123" y="34"/>
      <point x="123" y="130" type="curve"/>
      <point x="106" y="130"/>
      <point x="92" y="119"/>
      <point x="92" y="92" type="curve" smooth="yes"/>
      <point x="92" y="45"/>
      <point x="158" y="-10"/>
    </contour>
  </outline>
</glyph>
<glyph name="uni01BF" format="2">
  <advance width="706"/>
  <unicode hex="01BF"/>
  <anchor x="353" y="-240" name="bottom"/>
  <anchor x="353" y="536" name="top"/>
  <outline>
    <contour>
      <point x="30" y="-240" type="line"/>
      <point x="323" y="-240" type="line"/>
      <point x="323" y="-230" type="line"/>
      <point x="260" y="-230" type="line" smooth="yes"/>
      <point x="186" y="-230"/>
      <point x="182" y="-228"/>
      <point x="182" y="-150" type="curve" smooth="yes"/>
      <point x="182" y="-22" type="line"/>
      <point x="358" y="-10"/>
      <point x="625" y="-7"/>
      <point x="625" y="305" type="curve" smooth="yes"/>
      <point x="625" y="467"/>
      <point x="565" y="546"/>
      <point x="396" y="546" type="curve" smooth="yes"/>
      <point x="286" y="546"/>
      <point x="203" y="476"/>
      <point x="184" y="394" type="curve"/>
      <point x="182" y="394" type="line"/>
      <point x="182" y="536" type="line"/>
      <point x="-1" y="536" type="line"/>
      <point x="-1" y="526" type="line"/>
      <point x="90" y="526" type="line" smooth="yes"/>
      <point x="145" y="526"/>
      <point x="154" y="522"/>
      <point x="154" y="453" type="curve" smooth="yes"/>
      <point x="154" y="-150" type="line" smooth="yes"/>
      <point x="154" y="-228"/>
      <point x="148" y="-230"/>
      <point x="77" y="-230" type="curve" smooth="yes"/>
      <point x="30" y="-230" type="line"/>
    </contour>
    <contour>
      <point x="182" y="-12" type="curve"/>
      <point x="182" y="302" type="line" smooth="yes"/>
      <point x="182" y="424"/>
      <point x="233" y="526"/>
      <point x="398" y="526" type="curve" smooth="yes"/>
      <point x="560" y="526"/>
      <point x="599" y="434"/>
      <point x="599" y="303" type="curve" smooth="yes"/>
      <point x="599" y="16"/>
      <point x="369" y="0"/>
    </contour>
  </outline>
</glyph>
<glyph name="uni01E5" format="2">
  <advance width="628"/>
  <unicode hex="01E5"/>
  <anchor x="314" y="-238" name="bottom"/>
  <anchor x="314" y="536" name="top"/>
  <outline>
    <contour>
      <point x="288" y="-238" type="curve" smooth="yes"/>
      <point x="458" y="-238"/>
      <point x="546" y="-181"/>
      <point x="562" y="-93" type="curve"/>
      <point x="633" y="-93" type="line"/>
      <point x="633" y="-83" type="line"/>
      <point x="563" y="-83" type="line"/>
      <point x="563" y="-76"/>
      <point x="563" y="-70"/>
      <point x="563" y="-63" type="curve" smooth="yes"/>
      <point x="563" y="41"/>
      <point x="494" y="71"/>
      <point x="392" y="71" type="curve" smooth="yes"/>
      <point x="283" y="71" type="line" smooth="yes"/>
      <point x="214" y="71"/>
      <point x="169" y="100"/>
      <point x="169" y="143" type="curve" smooth="yes"/>
      <point x="169" y="163"/>
      <point x="185" y="191"/>
      <point x="219" y="211" type="curve"/>
      <point x="244" y="202"/>
      <point x="274" y="196"/>
      <point x="311" y="196" type="curve" smooth="yes"/>
      <point x="437" y="196"/>
      <point x="504" y="271"/>
      <point x="504" y="366" type="curve" smooth="yes"/>
      <point x="504" y="406"/>
      <point x="470" y="476"/>
      <point x="456" y="490" type="curve"/>
      <point x="504" y="525"/>
      <point x="534" y="539"/>
      <point x="555" y="539" type="curve" smooth="yes"/>
      <point x="576" y="539"/>
      <point x="583" y="524"/>
      <point x="583" y="476" type="curve"/>
      <point x="607" y="476"/>
      <point x="609" y="493"/>
      <point x="609" y="510" type="curve" smooth="yes"/>
      <point x="609" y="548"/>
      <point x="588" y="557"/>
      <point x="562" y="557" type="curve" smooth="yes"/>
      <point x="536" y="557"/>
      <point x="510" y="551"/>
      <point x="448" y="496" type="curve"/>
      <point x="416" y="522"/>
      <point x="369" y="542"/>
      <point x="309" y="542" type="curve" smooth="yes"/>
      <point x="177" y="542"/>
      <point x="106" y="451"/>
      <point x="106" y="387" type="curve" smooth="yes"/>
      <point x="106" y="334"/>
      <point x="121" y="261"/>
      <point x="207" y="217" type="curve"/>
      <point x="168" y="196"/>
      <point x="144" y="160"/>
      <point x="144" y="137" type="curve" smooth="yes"/>
      <point x="144" y="94"/>
      <point x="181" y="63"/>
      <point x="241" y="55" type="curve"/>
      <point x="191" y="70"/>
      <point x="65" y="25"/>
      <point x="65" y="-67" type="curve" smooth="yes"/>
      <point x="65" y="-170"/>
      <point x="142" y="-238"/>
    </contour>
    <contour>
      <point x="295" y="-228" type="curve" smooth="yes"/>
      <point x="130" y="-228"/>
      <point x="93" y="-152"/>
      <point x="93" y="-72" type="curve" smooth="yes"/>
      <point x="93" y="39"/>
      <point x="180" y="46"/>
      <point x="280" y="46" type="curve" smooth="yes"/>
      <point x="400" y="46" type="line" smooth="yes"/>
      <point x="505" y="46"/>
      <point x="535" y="14"/>
      <point x="535" y="-83" type="curve"/>
      <point x="338" y="-83" type="line"/>
      <point x="338" y="-93" type="line"/>
      <point x="534" y="-93" type="line"/>
      <point x="521" y="-192"/>
      <point x="436" y="-228"/>
    </contour>
    <contour>
      <point x="306" y="206" type="curve" smooth="yes"/>
      <point x="215" y="206"/>
      <point x="134" y="244"/>
      <point x="134" y="364" type="curve" smooth="yes"/>
      <point x="134" y="487"/>
      <point x="209" y="532"/>
      <point x="308" y="532" type="curve" smooth="yes"/>
      <point x="413" y="532"/>
      <point x="476" y="480"/>
      <point x="476" y="365" type="curve" smooth="yes"/>
      <point x="476" y="231"/>
      <point x="406" y="206"/>
    </contour>
  </outline>
</glyph>
<glyph name="uni0220" format="2">
  <advance width="890"/>
  <unicode hex="0220"/>
  <anchor x="445" y="-240" name="bottom"/>
  <anchor x="445" y="714" name="top"/>
  <outline>
    <contour>
      <point x="597" y="-240" type="line"/>
      <point x="873" y="-240" type="line"/>
      <point x="873" y="-230" type="line"/>
      <point x="792" y="-230" type="line" smooth="yes"/>
      <point x="754" y="-230"/>
      <point x="748" y="-223"/>
      <point x="748" y="-164" type="curve" smooth="yes"/>
      <point x="748" y="520" type="line" smooth="yes"/>
      <point x="748" y="632"/>
      <point x="672" y="725"/>
      <point x="499" y="725" type="curve" smooth="yes"/>
      <point x="388" y="725"/>
      <point x="259" y="694"/>
      <point x="217" y="593" type="curve"/>
      <point x="215" y="593" type="line"/>
      <point x="215" y="714" type="line"/>
      <point x="54" y="714" type="line"/>
      <point x="54" y="704" type="line"/>
      <point x="123" y="704" type="line" smooth="yes"/>
      <point x="183" y="704"/>
      <point x="189" y="693"/>
      <point x="189" y="614" type="curve" smooth="yes"/>
      <point x="189" y="98" type="line" smooth="yes"/>
      <point x="189" y="21"/>
      <point x="183" y="10"/>
      <point x="131" y="10" type="curve" smooth="yes"/>
      <point x="64" y="10" type="line"/>
      <point x="64" y="0" type="line"/>
      <point x="340" y="0" type="line"/>
      <point x="340" y="10" type="line"/>
      <point x="273" y="10" type="line" smooth="yes"/>
      <point x="223" y="10"/>
      <point x="217" y="21"/>
      <point x="217" y="98" type="curve" smooth="yes"/>
      <point x="217" y="574" type="line" smooth="yes"/>
      <point x="217" y="557"/>
      <point x="252" y="709"/>
      <point x="493" y="709" type="curve" smooth="yes"/>
      <point x="674" y="709"/>
      <point x="720" y="613"/>
      <point x="720" y="503" type="curve" smooth="yes"/>
      <point x="720" y="-162" type="line" smooth="yes"/>
      <point x="720" y="-223"/>
      <point x="716" y="-230"/>
      <point x="672" y="-230" type="curve" smooth="yes"/>
      <point x="597" y="-230" type="line"/>
    </contour>
  </outline>
</glyph>
<glyph name="jdotless" format="2">
  <advance width="355"/>
  <unicode hex="0237"/>
  <anchor x="177" y="-240" name="bottom"/>
  <anchor x="177" y="536" name="top"/>
  <outline>
    <contour>
      <point x="40" y="-240" type="line"/>
      <point x="63" y="-240" type="line" smooth="yes"/>
      <point x="159" y="-240"/>
      <point x="217" y="-173"/>
      <point x="217" y="2" type="curve" smooth="yes"/>
      <point x="217" y="536" type="line"/>
      <point x="86" y="536" type="line"/>
      <point x="86" y="526" type="line"/>
      <point x="125" y="526" type="line" smooth="yes"/>
      <point x="177" y="526"/>
      <point x="189" y="526"/>
      <point x="189" y="454" type="curve" smooth="yes"/>
      <point x="189" y="-11" type="line" smooth="yes"/>
      <point x="189" y="-174"/>
      <point x="140" y="-230"/>
      <point x="57" y="-230" type="curve" smooth="yes"/>
      <point x="40" y="-230" type="line"/>
    </contour>
  </outline>
</glyph>
<glyph name="uni0239" format="2">
  <advance width="1075"/>
  <unicode hex="0239"/>
  <anchor x="537" y="-241" name="bottom"/>
  <anchor x="537" y="536" name="top"/>
  <outline>
    <contour>
      <point x="385" y="-241" type="line"/>
      <point x="694" y="-241" type="line"/>
      <point x="694" y="-211" type="line"/>
      <point x="627" y="-211" type="line" smooth="yes"/>
      <point x="557" y="-211"/>
      <point x="551" y="-209"/>
      <point x="551" y="-131" type="curve" smooth="yes"/>
      <point x="551" y="-27" type="line" smooth="yes"/>
      <point x="551" y="6"/>
      <point x="551" y="99"/>
      <point x="548" y="222" type="curve"/>
      <point x="550" y="222" type="line"/>
      <point x="574" y="60"/>
      <point x="653" y="-14"/>
      <point x="766" y="-14" type="curve" smooth="yes"/>
      <point x="935" y="-14"/>
      <point x="995" y="96"/>
      <point x="995" y="270" type="curve" smooth="yes"/>
      <point x="995" y="433"/>
      <point x="903" y="542"/>
      <point x="755" y="542" type="curve" smooth="yes"/>
      <point x="715" y="542"/>
      <point x="564" y="564"/>
      <point x="538" y="271" type="curve"/>
      <point x="508" y="565"/>
      <point x="352" y="542"/>
      <point x="318" y="542" type="curve" smooth="yes"/>
      <point x="173" y="542"/>
      <point x="80" y="441"/>
      <point x="80" y="271" type="curve" smooth="yes"/>
      <point x="80" y="77"/>
      <point x="151" y="-14"/>
      <point x="305" y="-14" type="curve" smooth="yes"/>
      <point x="421" y="-14"/>
      <point x="498" y="61"/>
      <point x="524" y="221" type="curve"/>
      <point x="526" y="221" type="line"/>
      <point x="525" y="103"/>
      <point x="523" y="30"/>
      <point x="523" y="-24" type="curve" smooth="yes"/>
      <point x="523" y="-131" type="line" smooth="yes"/>
      <point x="523" y="-209"/>
      <point x="517" y="-211"/>
      <point x="448" y="-211" type="curve" smooth="yes"/>
      <point x="385" y="-211" type="line"/>
    </contour>
    <contour>
      <point x="315" y="-4" type="curve" smooth="yes"/>
      <point x="173" y="-4"/>
      <point x="108" y="71"/>
      <point x="108" y="265" type="curve" smooth="yes"/>
      <point x="108" y="427"/>
      <point x="177" y="532"/>
      <point x="314" y="532" type="curve" smooth="yes"/>
      <point x="473" y="532"/>
      <point x="525" y="425"/>
      <point x="525" y="289" type="curve" smooth="yes"/>
      <point x="525" y="128"/>
      <point x="457" y="-4"/>
    </contour>
    <contour>
      <point x="760" y="-4" type="curve" smooth="yes"/>
      <point x="618" y="-4"/>
      <point x="549" y="124"/>
      <point x="549" y="289" type="curve" smooth="yes"/>
      <point x="549" y="423"/>
      <point x="593" y="532"/>
      <point x="759" y="532" type="curve" smooth="yes"/>
      <point x="894" y="532"/>
      <point x="967" y="420"/>
      <point x="967" y="264" type="curve" smooth="yes"/>
      <point x="967" y="87"/>
      <point x="909" y="-4"/>
    </contour>
  </outline>
</glyph>
<glyph name="uni023A" format="2">
  <advance width="791"/>
  <unicode hex="023A"/>
  <anchor x="376" y="-84" name="bottom"/>
  <anchor x="376" y="714" name="top"/>
  <anchor x="615" y="714" name="topright"/>
  <outline>
    <contour>
      <point x="182" y="-84" type="line"/>
      <point x="194" y="-84" type="line"/>
      <point x="631" y="760" type="line"/>
      <point x="619" y="760" type="line"/>
    </contour>
    <component base="A"/>
  </outline>
</glyph>
<glyph name="uni023E" format="2">
  <advance width="690"/>
  <unicode hex="023E"/>
  <anchor x="348" y="0" name="bottom"/>
  <anchor x="348" y="714" name="top"/>
  <anchor x="672" y="714" name="topright"/>
  <anchor x="348" y="357" name="center"/>
  <outline>
    <contour>
      <point x="28" y="-67" type="line"/>
      <point x="41" y="-67" type="line"/>
      <point x="627" y="760" type="line"/>
      <point x="614" y="760" type="line"/>
    </contour>
    <component base="T" xOffset="2"/>
  </outline>
</glyph>
<glyph name="uni0241" format="2">
  <advance width="571"/>
  <unicode hex="0241"/>
  <anchor x="285" y="0" name="bottom"/>
  <anchor x="285" y="714" name="top"/>
  <outline>
    <contour>
      <point x="78" y="0" type="line"/>
      <point x="344" y="0" type="line"/>
      <point x="344" y="10" type="line"/>
      <point x="279" y="10" type="line" smooth="yes"/>
      <point x="234" y="10"/>
      <point x="227" y="21"/>
      <point x="227" y="98" type="curve" smooth="yes"/>
      <point x="227" y="255" type="line"/>
      <point x="431" y="311"/>
      <point x="507" y="427"/>
      <point x="507" y="513" type="curve" smooth="yes"/>
      <point x="507" y="605"/>
      <point x="456" y="725"/>
      <point x="269" y="725" type="curve" smooth="yes"/>
      <point x="153" y="725"/>
      <point x="57" y="688"/>
      <point x="57" y="613" type="curve" smooth="yes"/>
      <point x="57" y="594"/>
      <point x="72" y="589"/>
      <point x="91" y="589" type="curve"/>
      <point x="91" y="649"/>
      <point x="132" y="715"/>
      <point x="261" y="715" type="curve" smooth="yes"/>
      <point x="397" y="715"/>
      <point x="479" y="661"/>
      <point x="479" y="491" type="curve" smooth="yes"/>
      <point x="479" y="383"/>
      <point x="337" y="285"/>
      <point x="199" y="260" type="curve"/>
      <point x="199" y="98" type="line" smooth="yes"/>
      <point x="199" y="21"/>
      <point x="195" y="10"/>
      <point x="141" y="10" type="curve" smooth="yes"/>
      <point x="78" y="10" type="line"/>
    </contour>
  </outline>
</glyph>
<glyph name="uni0242" format="2">
  <advance width="544"/>
  <unicode hex="0242"/>
  <anchor x="272" y="0" name="bottom"/>
  <anchor x="272" y="536" name="top"/>
  <outline>
    <contour>
      <point x="117" y="0" type="line"/>
      <point x="386" y="0" type="line"/>
      <point x="386" y="10" type="line"/>
      <point x="314" y="10" type="line" smooth="yes"/>
      <point x="270" y="10"/>
      <point x="268" y="12"/>
      <point x="268" y="82" type="curve" smooth="yes"/>
      <point x="268" y="193" type="line"/>
      <point x="306" y="197" type="line" smooth="yes"/>
      <point x="426" y="228"/>
      <point x="469" y="282"/>
      <point x="469" y="377" type="curve" smooth="yes"/>
      <point x="469" y="499"/>
      <point x="378" y="547"/>
      <point x="274" y="547" type="curve" smooth="yes"/>
      <point x="180" y="547"/>
      <point x="70" y="519"/>
      <point x="70" y="435" type="curve" smooth="yes"/>
      <point x="70" y="399"/>
      <point x="86" y="398"/>
      <point x="114" y="398" type="curve"/>
      <point x="114" y="510"/>
      <point x="184" y="537"/>
      <point x="274" y="537" type="curve" smooth="yes"/>
      <point x="367" y="537"/>
      <point x="441" y="494"/>
      <point x="441" y="377" type="curve" smooth="yes"/>
      <point x="441" y="272"/>
      <point x="398" y="228"/>
      <point x="248" y="180" type="curve" smooth="yes"/>
      <point x="240" y="197" type="line"/>
      <point x="240" y="82" type="line" smooth="yes"/>
      <point x="240" y="12"/>
      <point x="240" y="10"/>
      <point x="197" y="10" type="curve" smooth="yes"/>
      <point x="117" y="10" type="line"/>
    </contour>
  </outline>
</glyph>
<glyph name="uni0244" format="2">
  <advance width="837"/>
  <unicode hex="0244"/>
  <anchor x="419" y="0" name="bottom"/>
  <anchor x="419" y="714" name="top"/>
  <anchor x="833" y="714" name="topright"/>
  <outline>
    <contour>
      <point x="12" y="376" type="line"/>
      <point x="821" y="376" type="line"/>
      <point x="821" y="386" type="line"/>
      <point x="12" y="386" type="line"/>
    </contour>
    <component base="U"/>
  </outline>
</glyph>
<glyph name="uni0247" format="2">
  <advance width="599"/>
  <unicode hex="0247"/>
  <anchor x="300" y="-182" name="bottom"/>
  <anchor x="300" y="714" name="top"/>
  <anchor x="579" y="536" name="topright"/>
  <outline>
    <contour>
      <point x="162" y="-182" type="line"/>
      <point x="172" y="-182" type="line"/>
      <point x="429" y="714" type="line"/>
      <point x="419" y="714" type="line"/>
    </contour>
    <component base="e"/>
  </outline>
</glyph>
<glyph name="uni024D" format="2">
  <advance width="492"/>
  <unicode hex="024D"/>
  <anchor x="247" y="0" name="bottom"/>
  <anchor x="247" y="536" name="top"/>
  <anchor x="492" y="536" name="topright"/>
  <outline>
    <contour>
      <point x="61" y="281" type="line"/>
      <point x="383" y="281" type="line"/>
      <point x="383" y="291" type="line"/>
      <point x="61" y="291" type="line"/>
    </contour>
    <component base="r"/>
  </outline>
</glyph>
<glyph name="uni0253" format="2">
  <advance width="701"/>
  <unicode hex="0253"/>
  <anchor x="350" y="0" name="bottom"/>
  <anchor x="350" y="766" name="top"/>
  <outline>
    <contour>
      <point x="377" y="-10" type="curve" smooth="yes"/>
      <point x="526" y="-10"/>
      <point x="621" y="110"/>
      <point x="621" y="267" type="curve" smooth="yes"/>
      <point x="621" y="454"/>
      <point x="553" y="544"/>
      <point x="392" y="544" type="curve" smooth="yes"/>
      <point x="280" y="544"/>
      <point x="206" y="482"/>
      <point x="176" y="366" type="curve"/>
      <point x="174" y="366" type="line"/>
      <point x="175" y="443"/>
      <point x="176" y="518"/>
      <point x="176" y="559" type="curve" smooth="yes"/>
      <point x="176" y="707" type="line" smooth="yes"/>
      <point x="176" y="742"/>
      <point x="229" y="756"/>
      <point x="270" y="756" type="curve" smooth="yes"/>
      <point x="297" y="756"/>
      <point x="332" y="754"/>
      <point x="356" y="710" type="curve"/>
      <point x="363" y="712"/>
      <point x="365" y="713"/>
      <point x="365" y="715" type="curve" smooth="yes"/>
      <point x="365" y="738"/>
      <point x="335" y="766"/>
      <point x="273" y="766" type="curve" smooth="yes"/>
      <point x="170" y="766"/>
      <point x="148" y="712"/>
      <point x="148" y="698" type="curve" smooth="yes"/>
      <point x="148" y="91" type="line" smooth="yes"/>
      <point x="148" y="10"/>
      <point x="147" y="10"/>
      <point x="58" y="10" type="curve" smooth="yes"/>
      <point x="26" y="10" type="line"/>
      <point x="26" y="0" type="line"/>
      <point x="175" y="0" type="line"/>
      <point x="175" y="152" type="line"/>
      <point x="177" y="152" type="line"/>
      <point x="208" y="19"/>
      <point x="296" y="-10"/>
    </contour>
    <contour>
      <point x="385" y="10" type="curve" smooth="yes"/>
      <point x="212" y="10"/>
      <point x="175" y="124"/>
      <point x="175" y="270" type="curve" smooth="yes"/>
      <point x="175" y="408"/>
      <point x="234" y="524"/>
      <point x="383" y="524" type="curve" smooth="yes"/>
      <point x="536" y="524"/>
      <point x="593" y="450"/>
      <point x="593" y="271" type="curve" smooth="yes"/>
      <point x="593" y="125"/>
      <point x="518" y="10"/>
    </contour>
  </outline>
</glyph>
<glyph name="uni0258" format="2">
  <advance width="599"/>
  <unicode hex="0258"/>
  <anchor x="280" y="0" name="bottom"/>
  <anchor x="280" y="536" name="top"/>
  <outline>
    <contour>
      <point x="272" y="-10" type="curve" smooth="yes"/>
      <point x="424" y="-10"/>
      <point x="519" y="86"/>
      <point x="519" y="262" type="curve" smooth="yes"/>
      <point x="519" y="452"/>
      <point x="435" y="542"/>
      <point x="282" y="542" type="curve" smooth="yes"/>
      <point x="154" y="542"/>
      <point x="65" y="451"/>
      <point x="65" y="281" type="curve" smooth="yes"/>
      <point x="65" y="274" type="line"/>
      <point x="489" y="274" type="line"/>
      <point x="493" y="94"/>
      <point x="398" y="0"/>
      <point x="270" y="0" type="curve" smooth="yes"/>
      <point x="176" y="0"/>
      <point x="119" y="36"/>
      <point x="83" y="107" type="curve"/>
      <point x="82" y="101"/>
      <point x="80" y="99"/>
      <point x="80" y="91" type="curve" smooth="yes"/>
      <point x="80" y="57"/>
      <point x="145" y="-10"/>
    </contour>
    <contour>
      <point x="93" y="284" type="line"/>
      <point x="93" y="433"/>
      <point x="167" y="532"/>
      <point x="284" y="532" type="curve" smooth="yes"/>
      <point x="430" y="532"/>
      <point x="477" y="435"/>
      <point x="487" y="284" type="curve"/>
    </contour>
  </outline>
</glyph>
<glyph name="schwahook" format="2">
  <advance width="831"/>
  <unicode hex="025A"/>
  <anchor x="345" y="0" name="bottom"/>
  <anchor x="345" y="536" name="top"/>
  <outline>
    <contour>
      <point x="277" y="-10" type="curve" smooth="yes"/>
      <point x="430" y="-10"/>
      <point x="514" y="80"/>
      <point x="514" y="270" type="curve" smooth="yes"/>
      <point x="514" y="293"/>
      <point x="512" y="313"/>
      <point x="506" y="353" type="curve"/>
      <point x="627" y="388" type="line"/>
      <point x="675" y="229" type="line" smooth="yes"/>
      <point x="676" y="231"/>
      <point x="710" y="195"/>
      <point x="751" y="195" type="curve" smooth="yes"/>
      <point x="760" y="195"/>
      <point x="831" y="206"/>
      <point x="831" y="235" type="curve" smooth="yes"/>
      <point x="831" y="246"/>
      <point x="828" y="247"/>
      <point x="818" y="251" type="curve"/>
      <point x="806" y="230"/>
      <point x="763" y="219"/>
      <point x="744" y="219" type="curve" smooth="yes"/>
      <point x="693" y="219"/>
      <point x="678" y="271"/>
      <point x="673" y="279" type="curve" smooth="yes"/>
      <point x="634" y="401" type="line"/>
      <point x="503" y="362" type="line"/>
      <point x="476" y="481"/>
      <point x="388" y="542"/>
      <point x="268" y="542" type="curve" smooth="yes"/>
      <point x="140" y="542"/>
      <point x="75" y="476"/>
      <point x="75" y="441" type="curve" smooth="yes"/>
      <point x="75" y="433"/>
      <point x="77" y="424"/>
      <point x="89" y="425" type="curve"/>
      <point x="114" y="496"/>
      <point x="171" y="532"/>
      <point x="265" y="532" type="curve" smooth="yes"/>
      <point x="370" y="532"/>
      <point x="452" y="479"/>
      <point x="477" y="355" type="curve"/>
      <point x="60" y="244" type="line"/>
      <point x="60" y="221" type="line" smooth="yes"/>
      <point x="60" y="59"/>
      <point x="149" y="-10"/>
    </contour>
    <contour>
      <point x="279" y="0" type="curve" smooth="yes"/>
      <point x="162" y="0"/>
      <point x="88" y="72"/>
      <point x="88" y="240" type="curve"/>
      <point x="477" y="345" type="line"/>
      <point x="482" y="314"/>
      <point x="484" y="302"/>
      <point x="484" y="288" type="curve" smooth="yes"/>
      <point x="484" y="88"/>
      <point x="426" y="0"/>
    </contour>
  </outline>
</glyph>
<glyph name="uni026D" format="2">
  <advance width="317"/>
  <unicode hex="026D"/>
  <anchor x="158" y="-240" name="bottom"/>
  <anchor x="158" y="760" name="top"/>
  <outline>
    <contour>
      <point x="257" y="-240" type="curve" smooth="yes"/>
      <point x="288" y="-240"/>
      <point x="316" y="-237"/>
      <point x="339" y="-231" type="curve"/>
      <point x="339" y="-220" type="line"/>
      <point x="315" y="-226"/>
      <point x="292" y="-230"/>
      <point x="257" y="-230" type="curve" smooth="yes"/>
      <point x="218" y="-230"/>
      <point x="181" y="-218"/>
      <point x="181" y="-108" type="curve" smooth="yes"/>
      <point x="181" y="760" type="line"/>
      <point x="19" y="760" type="line"/>
      <point x="19" y="750" type="line"/>
      <point x="94" y="750" type="line" smooth="yes"/>
      <point x="142" y="750"/>
      <point x="153" y="746"/>
      <point x="153" y="672" type="curve" smooth="yes"/>
      <point x="153" y="-108" type="line" smooth="yes"/>
      <point x="153" y="-204"/>
      <point x="181" y="-240"/>
    </contour>
  </outline>
</glyph>
<glyph name="uni0276" format="2">
  <advance width="945"/>
  <unicode hex="0276"/>
  <anchor x="472" y="0" name="bottom"/>
  <anchor x="472" y="536" name="top"/>
  <outline>
    <contour>
      <point x="376" y="-10" type="curve" smooth="yes"/>
      <point x="399" y="-10"/>
      <point x="454" y="-6"/>
      <point x="495" y="0" type="curve"/>
      <point x="868" y="0" type="line"/>
      <point x="876" y="157" type="line"/>
      <point x="866" y="157" type="line"/>
      <point x="850" y="-19" type="line" smooth="yes"/>
      <point x="848" y="6"/>
      <point x="832" y="10"/>
      <point x="843" y="10" type="curve" smooth="yes"/>
      <point x="523" y="10" type="line"/>
      <point x="523" y="272" type="line"/>
      <point x="790" y="272" type="line"/>
      <point x="790" y="282" type="line"/>
      <point x="523" y="282" type="line"/>
      <point x="523" y="526" type="line"/>
      <point x="794" y="526" type="line" smooth="yes"/>
      <point x="808" y="526"/>
      <point x="817" y="507"/>
      <point x="819" y="528" type="curve" smooth="yes"/>
      <point x="833" y="379" type="line"/>
      <point x="843" y="379" type="line"/>
      <point x="834" y="536" type="line"/>
      <point x="495" y="536" type="line"/>
      <point x="469" y="539"/>
      <point x="421" y="542"/>
      <point x="365" y="542" type="curve" smooth="yes"/>
      <point x="213" y="542"/>
      <point x="82" y="488"/>
      <point x="82" y="266" type="curve" smooth="yes"/>
      <point x="82" y="-7"/>
      <point x="269" y="-10"/>
    </contour>
    <contour>
      <point x="379" y="0" type="curve" smooth="yes"/>
      <point x="213" y="0"/>
      <point x="110" y="64"/>
      <point x="110" y="266" type="curve" smooth="yes"/>
      <point x="110" y="470"/>
      <point x="182" y="532"/>
      <point x="372" y="532" type="curve" smooth="yes"/>
      <point x="403" y="532"/>
      <point x="453" y="529"/>
      <point x="495" y="523" type="curve"/>
      <point x="495" y="11" type="line"/>
      <point x="457" y="5"/>
      <point x="409" y="0"/>
    </contour>
  </outline>
</glyph>
<glyph name="omegaclosed" format="2">
  <advance width="898"/>
  <unicode hex="0277"/>
  <anchor x="449" y="0" name="bottom"/>
  <anchor x="449" y="536" name="top"/>
  <outline>
    <contour>
      <point x="280" y="-10" type="curve" smooth="yes"/>
      <point x="372" y="-10"/>
      <point x="421" y="40"/>
      <point x="443" y="116" type="curve"/>
      <point x="446" y="116" type="line"/>
      <point x="470" y="34"/>
      <point x="523" y="-10"/>
      <point x="623" y="-10" type="curve" smooth="yes"/>
      <point x="743" y="-10"/>
      <point x="813" y="66"/>
      <point x="813" y="243" type="curve" smooth="yes"/>
      <point x="813" y="407"/>
      <point x="679" y="542"/>
      <point x="448" y="542" type="curve" smooth="yes"/>
      <point x="238" y="542"/>
      <point x="82" y="442"/>
      <point x="82" y="243" type="curve" smooth="yes"/>
      <point x="82" y="71"/>
      <point x="156" y="-10"/>
    </contour>
    <contour>
      <point x="280" y="0" type="curve" smooth="yes"/>
      <point x="161" y="0"/>
      <point x="110" y="115"/>
      <point x="110" y="244" type="curve" smooth="yes"/>
      <point x="110" y="438"/>
      <point x="253" y="532"/>
      <point x="450" y="532" type="curve" smooth="yes"/>
      <point x="629" y="532"/>
      <point x="785" y="437"/>
      <point x="785" y="244" type="curve" smooth="yes"/>
      <point x="785" y="115"/>
      <point x="740" y="0"/>
      <point x="623" y="0" type="curve" smooth="yes"/>
      <point x="513" y="0"/>
      <point x="477" y="69"/>
      <point x="462" y="147" type="curve"/>
      <point x="462" y="331" type="line"/>
      <point x="435" y="331" type="line"/>
      <point x="435" y="147" type="line"/>
      <point x="420" y="69"/>
      <point x="382" y="0"/>
    </contour>
  </outline>
</glyph>
<glyph name="uni027B" format="2">
  <advance width="492"/>
  <unicode hex="027B"/>
  <anchor x="247" y="-240" name="bottom"/>
  <anchor x="247" y="536" name="top"/>
  <outline>
    <contour>
      <point x="392" y="-240" type="curve" smooth="yes"/>
      <point x="427" y="-240"/>
      <point x="456" y="-237"/>
      <point x="477" y="-231" type="curve"/>
      <point x="477" y="-222" type="line"/>
      <point x="453" y="-228"/>
      <point x="431" y="-230"/>
      <point x="398" y="-230" type="curve" smooth="yes"/>
      <point x="338" y="-230"/>
      <point x="320" y="-194"/>
      <point x="320" y="-135" type="curve" smooth="yes"/>
      <point x="320" y="462" type="line" smooth="yes"/>
      <point x="320" y="539"/>
      <point x="328" y="542"/>
      <point x="387" y="542" type="curve" smooth="yes"/>
      <point x="430" y="542" type="line"/>
      <point x="430" y="552" type="line"/>
      <point x="168" y="552" type="line"/>
      <point x="168" y="542" type="line"/>
      <point x="227" y="542" type="line" smooth="yes"/>
      <point x="284" y="542"/>
      <point x="292" y="539"/>
      <point x="292" y="462" type="curve" smooth="yes"/>
      <point x="292" y="232" type="line" smooth="yes"/>
      <point x="292" y="129"/>
      <point x="219" y="23"/>
      <point x="129" y="23" type="curve" smooth="yes"/>
      <point x="73" y="23"/>
      <point x="45" y="53"/>
      <point x="45" y="109" type="curve"/>
      <point x="23" y="109"/>
      <point x="19" y="96"/>
      <point x="19" y="84" type="curve" smooth="yes"/>
      <point x="19" y="41"/>
      <point x="65" y="8"/>
      <point x="123" y="8" type="curve" smooth="yes"/>
      <point x="209" y="8"/>
      <point x="273" y="107"/>
      <point x="291" y="162" type="curve"/>
      <point x="293" y="162" type="line"/>
      <point x="292" y="109"/>
      <point x="292" y="58"/>
      <point x="292" y="6" type="curve" smooth="yes"/>
      <point x="292" y="-109" type="line" smooth="yes"/>
      <point x="292" y="-196"/>
      <point x="318" y="-240"/>
    </contour>
  </outline>
</glyph>
<glyph name="uni0280" format="2">
  <advance width="721"/>
  <unicode hex="0280"/>
  <anchor x="361" y="0" name="bottom"/>
  <anchor x="361" y="536" name="top"/>
  <outline>
    <contour>
      <point x="77" y="0" type="line"/>
      <point x="313" y="0" type="line"/>
      <point x="313" y="10" type="line"/>
      <point x="287" y="10" type="line" smooth="yes"/>
      <point x="213" y="10"/>
      <point x="209" y="12"/>
      <point x="209" y="82" type="curve" smooth="yes"/>
      <point x="209" y="242" type="line"/>
      <point x="401" y="242" type="line"/>
      <point x="539" y="64" type="line" smooth="yes"/>
      <point x="590" y="-4"/>
      <point x="601" y="0"/>
      <point x="678" y="0" type="curve" smooth="yes"/>
      <point x="688" y="0" type="line"/>
      <point x="688" y="10" type="line"/>
      <point x="673" y="10" type="line" smooth="yes"/>
      <point x="629" y="10"/>
      <point x="599" y="29"/>
      <point x="557" y="86" type="curve" smooth="yes"/>
      <point x="436" y="246" type="line"/>
      <point x="545" y="261"/>
      <point x="597" y="310"/>
      <point x="597" y="385" type="curve" smooth="yes"/>
      <point x="597" y="500"/>
      <point x="527" y="536"/>
      <point x="381" y="536" type="curve" smooth="yes"/>
      <point x="74" y="536" type="line"/>
      <point x="74" y="526" type="line"/>
      <point x="117" y="526" type="line" smooth="yes"/>
      <point x="172" y="526"/>
      <point x="181" y="521"/>
      <point x="181" y="454" type="curve" smooth="yes"/>
      <point x="181" y="82" type="line" smooth="yes"/>
      <point x="181" y="12"/>
      <point x="175" y="10"/>
      <point x="104" y="10" type="curve" smooth="yes"/>
      <point x="77" y="10" type="line"/>
    </contour>
    <contour>
      <point x="209" y="252" type="line"/>
      <point x="209" y="526" type="line"/>
      <point x="380" y="526" type="line" smooth="yes"/>
      <point x="495" y="526"/>
      <point x="569" y="487"/>
      <point x="569" y="379" type="curve" smooth="yes"/>
      <point x="569" y="271"/>
      <point x="494" y="252"/>
      <point x="373" y="252" type="curve" smooth="yes"/>
    </contour>
  </outline>
</glyph>
<glyph name="uni0282" format="2">
  <advance width="496"/>
  <unicode hex="0282"/>
  <anchor x="241" y="-197" name="bottom"/>
  <anchor x="241" y="536" name="top"/>
  <outline>
    <contour>
      <point x="179" y="-199" type="curve" smooth="yes"/>
      <point x="212" y="-199"/>
      <point x="244" y="-189"/>
      <point x="244" y="-174" type="curve" smooth="yes"/>
      <point x="244" y="-169"/>
      <point x="240" y="-165"/>
      <point x="228" y="-159" type="curve"/>
      <point x="218" y="-161"/>
      <point x="210" y="-176"/>
      <point x="169" y="-176" type="curve" smooth="yes"/>
      <point x="125" y="-176"/>
      <point x="94" y="-158"/>
      <point x="94" y="-81" type="curve" smooth="yes"/>
      <point x="94" y="52" type="line"/>
      <point x="111" y="20"/>
      <point x="154" y="-10"/>
      <point x="252" y="-10" type="curve" smooth="yes"/>
      <point x="347" y="-10"/>
      <point x="422" y="53"/>
      <point x="422" y="135" type="curve" smooth="yes"/>
      <point x="422" y="167"/>
      <point x="432" y="210"/>
      <point x="276" y="283" type="curve" smooth="yes"/>
      <point x="181" y="321"/>
      <point x="116" y="355"/>
      <point x="116" y="416" type="curve" smooth="yes"/>
      <point x="116" y="496"/>
      <point x="161" y="533"/>
      <point x="248" y="533" type="curve" smooth="yes"/>
      <point x="327" y="533"/>
      <point x="374" y="520"/>
      <point x="374" y="405" type="curve"/>
      <point x="397" y="405"/>
      <point x="400" y="417"/>
      <point x="400" y="441" type="curve" smooth="yes"/>
      <point x="400" y="474"/>
      <point x="374" y="543"/>
      <point x="255" y="543" type="curve" smooth="yes"/>
      <point x="154" y="543"/>
      <point x="88" y="493"/>
      <point x="88" y="426" type="curve" smooth="yes"/>
      <point x="88" y="359"/>
      <point x="117" y="324"/>
      <point x="286" y="244" type="curve" smooth="yes"/>
      <point x="379" y="207"/>
      <point x="394" y="178"/>
      <point x="394" y="139" type="curve" smooth="yes"/>
      <point x="394" y="69"/>
      <point x="347" y="0"/>
      <point x="252" y="0" type="curve" smooth="yes"/>
      <point x="126" y="0"/>
      <point x="110" y="47"/>
      <point x="110" y="135" type="curve"/>
      <point x="85" y="135"/>
      <point x="84" y="122"/>
      <point x="84" y="95" type="curve" smooth="yes"/>
      <point x="84" y="-96" type="line" smooth="yes"/>
      <point x="84" y="-126"/>
      <point x="94" y="-199"/>
    </contour>
  </outline>
</glyph>
<glyph name="uni0284" format="2">
  <advance width="362"/>
  <unicode hex="0284"/>
  <anchor x="181" y="-240" name="bottom"/>
  <anchor x="181" y="766" name="top"/>
  <outline>
    <contour>
      <point x="13" y="-240" type="line"/>
      <point x="28" y="-240" type="line" smooth="yes"/>
      <point x="115" y="-240"/>
      <point x="191" y="-262"/>
      <point x="191" y="-83" type="curve" smooth="yes"/>
      <point x="191" y="242" type="line"/>
      <point x="323" y="242" type="line"/>
      <point x="323" y="252" type="line"/>
      <point x="191" y="252" type="line"/>
      <point x="191" y="596" type="line" smooth="yes"/>
      <point x="191" y="675"/>
      <point x="192" y="756"/>
      <point x="287" y="756" type="curve" smooth="yes"/>
      <point x="339" y="756"/>
      <point x="357" y="733"/>
      <point x="357" y="642" type="curve"/>
      <point x="385" y="642"/>
      <point x="388" y="666"/>
      <point x="388" y="683" type="curve" smooth="yes"/>
      <point x="388" y="718"/>
      <point x="372" y="766"/>
      <point x="294" y="766" type="curve" smooth="yes"/>
      <point x="229" y="766"/>
      <point x="163" y="749"/>
      <point x="163" y="617" type="curve" smooth="yes"/>
      <point x="163" y="252" type="line"/>
      <point x="22" y="252" type="line"/>
      <point x="22" y="242" type="line"/>
      <point x="163" y="242" type="line"/>
      <point x="163" y="-114" type="line" smooth="yes"/>
      <point x="163" y="-242"/>
      <point x="111" y="-230"/>
      <point x="24" y="-230" type="curve" smooth="yes"/>
      <point x="13" y="-230" type="line"/>
    </contour>
  </outline>
</glyph>
<glyph name="uni029D" format="2">
  <advance width="356"/>
  <unicode hex="029D"/>
  <anchor x="178" y="-240" name="bottom"/>
  <anchor x="178" y="738" name="top"/>
  <outline>
    <contour>
      <point x="92" y="-240" type="curve" smooth="yes"/>
      <point x="143" y="-240"/>
      <point x="215" y="-205"/>
      <point x="217" y="-62" type="curve"/>
      <point x="327" y="-62" type="line"/>
      <point x="327" y="-52" type="line"/>
      <point x="217" y="-52" type="line"/>
      <point x="217" y="536" type="line"/>
      <point x="86" y="536" type="line"/>
      <point x="86" y="526" type="line"/>
      <point x="111" y="526" type="line" smooth="yes"/>
      <point x="181" y="526"/>
      <point x="189" y="528"/>
      <point x="189" y="446" type="curve" smooth="yes"/>
      <point x="189" y="-52" type="line"/>
      <point x="166" y="-52" type="line" smooth="yes"/>
      <point x="64" y="-52"/>
      <point x="2" y="-95"/>
      <point x="2" y="-165" type="curve" smooth="yes"/>
      <point x="2" y="-212"/>
      <point x="36" y="-240"/>
    </contour>
    <contour>
      <point x="92" y="-230" type="curve" smooth="yes"/>
      <point x="41" y="-230"/>
      <point x="12" y="-205"/>
      <point x="12" y="-164" type="curve" smooth="yes"/>
      <point x="12" y="-102"/>
      <point x="72" y="-62"/>
      <point x="168" y="-62" type="curve" smooth="yes"/>
      <point x="189" y="-62" type="line"/>
      <point x="189" y="-72" type="line" smooth="yes"/>
      <point x="189" y="-212"/>
      <point x="142" y="-230"/>
    </contour>
    <contour>
      <point x="198" y="658" type="curve" smooth="yes"/>
      <point x="209" y="658"/>
      <point x="217" y="662"/>
      <point x="217" y="698" type="curve" smooth="yes"/>
      <point x="217" y="732"/>
      <point x="209" y="738"/>
      <point x="198" y="738" type="curve" smooth="yes"/>
      <point x="189" y="738"/>
      <point x="179" y="732"/>
      <point x="179" y="698" type="curve" smooth="yes"/>
      <point x="179" y="662"/>
      <point x="189" y="658"/>
    </contour>
  </outline>
</glyph>
<glyph name="dzlig" format="2">
  <advance width="1062"/>
  <unicode hex="02A3"/>
  <anchor x="531" y="0" name="bottom"/>
  <anchor x="531" y="760" name="top"/>
  <outline>
    <contour>
      <point x="324" y="-10" type="curve" smooth="yes"/>
      <point x="425" y="-10"/>
      <point x="511" y="62"/>
      <point x="538" y="166" type="curve"/>
      <point x="540" y="166" type="line"/>
      <point x="540" y="0" type="line"/>
      <point x="977" y="0" type="line"/>
      <point x="982" y="138" type="line"/>
      <point x="972" y="138" type="line"/>
      <point x="970" y="85" type="line" smooth="yes"/>
      <point x="968" y="29"/>
      <point x="961" y="15"/>
      <point x="909" y="15" type="curve" smooth="yes"/>
      <point x="580" y="15" type="line"/>
      <point x="983" y="534" type="line"/>
      <point x="983" y="536" type="line"/>
      <point x="568" y="536" type="line"/>
      <point x="568" y="760" type="line"/>
      <point x="423" y="760" type="line"/>
      <point x="423" y="750" type="line"/>
      <point x="468" y="750" type="line" smooth="yes"/>
      <point x="532" y="750"/>
      <point x="540" y="747"/>
      <point x="540" y="678" type="curve" smooth="yes"/>
      <point x="540" y="542" type="line" smooth="yes"/>
      <point x="540" y="521"/>
      <point x="540" y="388"/>
      <point x="542" y="373" type="curve"/>
      <point x="540" y="373" type="line"/>
      <point x="517" y="483"/>
      <point x="434" y="542"/>
      <point x="310" y="542" type="curve" smooth="yes"/>
      <point x="140" y="542"/>
      <point x="83" y="410"/>
      <point x="83" y="267" type="curve" smooth="yes"/>
      <point x="83" y="116"/>
      <point x="176" y="-10"/>
    </contour>
    <contour>
      <point x="323" y="10" type="curve" smooth="yes"/>
      <point x="205" y="6"/>
      <point x="111" y="114"/>
      <point x="111" y="263" type="curve" smooth="yes"/>
      <point x="111" y="405"/>
      <point x="156" y="522"/>
      <point x="308" y="522" type="curve" smooth="yes"/>
      <point x="490" y="522"/>
      <point x="541" y="440"/>
      <point x="541" y="265" type="curve" smooth="yes"/>
      <point x="541" y="116"/>
      <point x="471" y="14"/>
    </contour>
    <contour>
      <point x="568" y="44" type="line"/>
      <point x="568" y="521" type="line"/>
      <point x="940" y="521" type="line"/>
    </contour>
  </outline>
</glyph>
<glyph name="uni02A9" format="2">
  <advance width="1096"/>
  <unicode hex="02A9"/>
  <anchor x="548" y="-240" name="bottom"/>
  <anchor x="548" y="772" name="top"/>
  <outline>
    <contour>
      <point x="773" y="-240" type="line"/>
      <point x="797" y="-240" type="line" smooth="yes"/>
      <point x="895" y="-240"/>
      <point x="960" y="-169"/>
      <point x="960" y="34" type="curve" smooth="yes"/>
      <point x="960" y="351" type="line" smooth="yes"/>
      <point x="960" y="478"/>
      <point x="894" y="542"/>
      <point x="758" y="542" type="curve" smooth="yes"/>
      <point x="662" y="542"/>
      <point x="581" y="507"/>
      <point x="547" y="413" type="curve"/>
      <point x="545" y="413" type="line"/>
      <point x="545" y="536" type="line"/>
      <point x="198" y="536" type="line"/>
      <point x="198" y="598" type="line" smooth="yes"/>
      <point x="198" y="695"/>
      <point x="259" y="762"/>
      <point x="351" y="762" type="curve" smooth="yes"/>
      <point x="433" y="762"/>
      <point x="459" y="716"/>
      <point x="459" y="658" type="curve"/>
      <point x="469" y="658"/>
      <point x="477" y="675"/>
      <point x="477" y="693" type="curve" smooth="yes"/>
      <point x="477" y="719"/>
      <point x="431" y="772"/>
      <point x="353" y="772" type="curve" smooth="yes"/>
      <point x="242" y="772"/>
      <point x="170" y="706"/>
      <point x="170" y="604" type="curve" smooth="yes"/>
      <point x="170" y="536" type="line"/>
      <point x="50" y="536" type="line"/>
      <point x="50" y="526" type="line"/>
      <point x="170" y="526" type="line"/>
      <point x="170" y="83" type="line" smooth="yes"/>
      <point x="170" y="9"/>
      <point x="162" y="10"/>
      <point x="92" y="10" type="curve" smooth="yes"/>
      <point x="45" y="10" type="line"/>
      <point x="45" y="0" type="line"/>
      <point x="347" y="0" type="line"/>
      <point x="347" y="10" type="line"/>
      <point x="276" y="10" type="line" smooth="yes"/>
      <point x="206" y="10"/>
      <point x="198" y="9"/>
      <point x="198" y="83" type="curve" smooth="yes"/>
      <point x="198" y="526" type="line"/>
      <point x="455" y="526" type="line" smooth="yes"/>
      <point x="508" y="526"/>
      <point x="518" y="521"/>
      <point x="518" y="453" type="curve" smooth="yes"/>
      <point x="518" y="0" type="line"/>
      <point x="660" y="0" type="line"/>
      <point x="660" y="10" type="line"/>
      <point x="632" y="10" type="line" smooth="yes"/>
      <point x="548" y="10"/>
      <point x="546" y="12"/>
      <point x="546" y="82" type="curve" smooth="yes"/>
      <point x="546" y="335" type="line" smooth="yes"/>
      <point x="546" y="389"/>
      <point x="563" y="527"/>
      <point x="758" y="527" type="curve" smooth="yes"/>
      <point x="887" y="527"/>
      <point x="932" y="461"/>
      <point x="932" y="366" type="curve" smooth="yes"/>
      <point x="932" y="45" type="line" smooth="yes"/>
      <point x="932" y="-163"/>
      <point x="877" y="-230"/>
      <point x="790" y="-230" type="curve" smooth="yes"/>
      <point x="773" y="-230" type="line"/>
    </contour>
  </outline>
</glyph>
<glyph name="uni02AD" format="2">
  <advance width="593"/>
  <unicode hex="02AD"/>
  <anchor x="297" y="0" name="bottom"/>
  <anchor x="297" y="714" name="top"/>
  <outline>
    <contour>
      <point x="80" y="519" type="line"/>
      <point x="90" y="519" type="line"/>
      <point x="90" y="657" type="line" smooth="yes"/>
      <point x="90" y="669"/>
      <point x="111" y="689"/>
      <point x="138" y="689" type="curve" smooth="yes"/>
      <point x="446" y="689" type="line" smooth="yes"/>
      <point x="483" y="689"/>
      <point x="503" y="672"/>
      <point x="503" y="657" type="curve" smooth="yes"/>
      <point x="503" y="519" type="line"/>
      <point x="513" y="519" type="line"/>
      <point x="513" y="714" type="line"/>
      <point x="80" y="714" type="line"/>
    </contour>
    <contour>
      <point x="80" y="0" type="line"/>
      <point x="90" y="0" type="line"/>
      <point x="90" y="138" type="line" smooth="yes"/>
      <point x="90" y="150"/>
      <point x="111" y="170"/>
      <point x="138" y="170" type="curve" smooth="yes"/>
      <point x="446" y="170" type="line" smooth="yes"/>
      <point x="483" y="170"/>
      <point x="503" y="153"/>
      <point x="503" y="138" type="curve" smooth="yes"/>
      <point x="503" y="0" type="line"/>
      <point x="513" y="0" type="line"/>
      <point x="513" y="195" type="line"/>
      <point x="80" y="195" type="line"/>
    </contour>
  </outline>
</glyph>
<glyph name="uni02AE" format="2">
  <advance width="776"/>
  <unicode hex="02AE"/>
  <anchor x="389" y="-240" name="bottom"/>
  <anchor x="389" y="536" name="top"/>
  <outline>
    <contour>
      <point x="600" y="-240" type="line"/>
      <point x="751" y="-240" type="line"/>
      <point x="751" y="-230" type="line"/>
      <point x="705" y="-230" type="line" smooth="yes"/>
      <point x="635" y="-230"/>
      <point x="628" y="-231"/>
      <point x="628" y="-150" type="curve" smooth="yes"/>
      <point x="628" y="454" type="line" smooth="yes"/>
      <point x="628" y="524"/>
      <point x="630" y="526"/>
      <point x="715" y="526" type="curve" smooth="yes"/>
      <point x="756" y="526" type="line"/>
      <point x="756" y="536" type="line"/>
      <point x="479" y="536" type="line"/>
      <point x="479" y="526" type="line"/>
      <point x="512" y="526" type="line" smooth="yes"/>
      <point x="598" y="526"/>
      <point x="600" y="524"/>
      <point x="600" y="454" type="curve" smooth="yes"/>
      <point x="600" y="201" type="line" smooth="yes"/>
      <point x="600" y="83"/>
      <point x="507" y="9"/>
      <point x="381" y="9" type="curve" smooth="yes"/>
      <point x="273" y="9"/>
      <point x="220" y="52"/>
      <point x="220" y="180" type="curve" smooth="yes"/>
      <point x="220" y="458" type="line" smooth="yes"/>
      <point x="220" y="486"/>
      <point x="197" y="547"/>
      <point x="107" y="547" type="curve" smooth="yes"/>
      <point x="49" y="547"/>
      <point x="11" y="524"/>
      <point x="11" y="491" type="curve" smooth="yes"/>
      <point x="11" y="483"/>
      <point x="14" y="483"/>
      <point x="17" y="481" type="curve"/>
      <point x="29" y="536"/>
      <point x="85" y="537"/>
      <point x="108" y="537" type="curve" smooth="yes"/>
      <point x="144" y="537"/>
      <point x="192" y="526"/>
      <point x="192" y="484" type="curve" smooth="yes"/>
      <point x="192" y="176" type="line" smooth="yes"/>
      <point x="192" y="40"/>
      <point x="258" y="-6"/>
      <point x="387" y="-6" type="curve" smooth="yes"/>
      <point x="485" y="-6"/>
      <point x="565" y="45"/>
      <point x="599" y="140" type="curve"/>
      <point x="601" y="140" type="line"/>
      <point x="600" y="113"/>
      <point x="600" y="89"/>
      <point x="600" y="67" type="curve" smooth="yes"/>
    </contour>
  </outline>
</glyph>
<glyph name="uni02BE" format="2">
  <advance width="190"/>
  <unicode hex="02BE"/>
  <outline>
    <contour>
      <point x="30" y="583" type="line"/>
      <point x="120" y="583"/>
      <point x="160" y="627"/>
      <point x="160" y="692" type="curve" smooth="yes"/>
      <point x="160" y="749"/>
      <point x="120" y="789"/>
      <point x="30" y="789" type="curve"/>
      <point x="30" y="779" type="line"/>
      <point x="115" y="779"/>
      <point x="148" y="737"/>
      <point x="148" y="692" type="curve" smooth="yes"/>
      <point x="148" y="641"/>
      <point x="115" y="593"/>
      <point x="30" y="593" type="curve"/>
    </contour>
  </outline>
</glyph>
<glyph name="uni02C4" format="2">
  <advance width="335"/>
  <unicode hex="02C4"/>
  <outline>
    <contour>
      <point x="28" y="571" type="line"/>
      <point x="42" y="571" type="line"/>
      <point x="58" y="590"/>
      <point x="148" y="742"/>
      <point x="167" y="772" type="curve"/>
      <point x="188" y="742"/>
      <point x="279" y="590"/>
      <point x="295" y="571" type="curve"/>
      <point x="309" y="571" type="line"/>
      <point x="309" y="579" type="line"/>
      <point x="262" y="656"/>
      <point x="209" y="740"/>
      <point x="178" y="783" type="curve"/>
      <point x="158" y="783" type="line"/>
      <point x="119" y="719"/>
      <point x="67" y="642"/>
      <point x="28" y="579" type="curve"/>
    </contour>
  </outline>
</glyph>
<glyph name="uni02D1" format="2">
  <advance width="419"/>
  <unicode hex="02D1"/>
  <outline>
    <contour>
      <point x="195" y="405" type="line"/>
      <point x="295" y="536" type="line"/>
      <point x="98" y="536" type="line"/>
    </contour>
  </outline>
</glyph>
<glyph name="rhotichookmod" format="2">
  <advance width="183"/>
  <unicode hex="02DE"/>
  <outline>
    <contour>
      <point x="113" y="187" type="curve" smooth="yes"/>
      <point x="146" y="187"/>
      <point x="183" y="202"/>
      <point x="183" y="227" type="curve" smooth="yes"/>
      <point x="183" y="238"/>
      <point x="180" y="239"/>
      <point x="170" y="243" type="curve"/>
      <point x="158" y="220"/>
      <point x="133" y="211"/>
      <point x="106" y="211" type="curve" smooth="yes"/>
      <point x="45" y="211"/>
      <point x="34" y="253"/>
      <point x="25" y="271" type="curve" smooth="yes"/>
      <point x="-14" y="393" type="line"/>
      <point x="-145" y="357" type="line"/>
      <point x="-142" y="348" type="line"/>
      <point x="-21" y="380" type="line"/>
      <point x="21" y="241" type="line" smooth="yes"/>
      <point x="28" y="223"/>
      <point x="62" y="187"/>
    </contour>
  </outline>
</glyph>
<glyph name="uni02EC" format="2">
  <advance width="339"/>
  <unicode hex="02EC"/>
  <outline>
    <contour>
      <point x="161" y="-230" type="curve"/>
      <point x="179" y="-230" type="line"/>
      <point x="211" y="-155"/>
      <point x="266" y="-102"/>
      <point x="299" y="-82" type="curve"/>
      <point x="299" y="-68" type="line"/>
      <point x="303" y="-68" type="line"/>
      <point x="237" y="-102"/>
      <point x="197" y="-155"/>
      <point x="170" y="-203" type="curve"/>
      <point x="144" y="-155"/>
      <point x="102" y="-102"/>
      <point x="38" y="-68" type="curve"/>
      <point x="40" y="-68" type="line"/>
      <point x="40" y="-82" type="line"/>
      <point x="74" y="-101"/>
      <point x="130" y="-155"/>
    </contour>
  </outline>
</glyph>
<glyph name="uni02EF" format="2">
  <advance width="361"/>
  <unicode hex="02EF"/>
  <outline>
    <contour>
      <point x="172" y="-240" type="curve"/>
      <point x="192" y="-240" type="line"/>
      <point x="223" y="-197"/>
      <point x="274" y="-119"/>
      <point x="321" y="-36" type="curve"/>
      <point x="321" y="-28" type="line"/>
      <point x="307" y="-28" type="line"/>
      <point x="291" y="-47"/>
      <point x="202" y="-199"/>
      <point x="183" y="-229" type="curve"/>
      <point x="162" y="-199"/>
      <point x="70" y="-47"/>
      <point x="54" y="-28" type="curve"/>
      <point x="40" y="-28" type="line"/>
      <point x="40" y="-36" type="line"/>
      <point x="79" y="-93"/>
      <point x="133" y="-176"/>
    </contour>
  </outline>
</glyph>
<glyph name="uni02F1" format="2">
  <advance width="344"/>
  <unicode hex="02F1"/>
  <outline>
    <contour>
      <point x="296" y="-219" type="curve"/>
      <point x="304" y="-219" type="line"/>
      <point x="304" y="-205" type="line"/>
      <point x="265" y="-198"/>
      <point x="100" y="-121"/>
      <point x="60" y="-113" type="curve"/>
      <point x="100" y="-103"/>
      <point x="265" y="-24"/>
      <point x="304" y="-15" type="curve"/>
      <point x="304" y="-1" type="line"/>
      <point x="296" y="-1" type="line"/>
      <point x="209" y="-29"/>
      <point x="122" y="-68"/>
      <point x="40" y="-101" type="curve"/>
      <point x="40" y="-121" type="line"/>
      <point x="112" y="-148"/>
      <point x="206" y="-190"/>
    </contour>
  </outline>
</glyph>
<glyph name="uni02F3" format="2">
  <advance width="415"/>
  <unicode hex="02F3"/>
  <outline>
    <contour>
      <point x="207" y="-255" type="curve" smooth="yes"/>
      <point x="294" y="-255"/>
      <point x="346" y="-216"/>
      <point x="346" y="-152" type="curve" smooth="yes"/>
      <point x="346" y="-88"/>
      <point x="294" y="-49"/>
      <point x="207" y="-49" type="curve" smooth="yes"/>
      <point x="119" y="-49"/>
      <point x="66" y="-88"/>
      <point x="66" y="-152" type="curve" smooth="yes"/>
      <point x="66" y="-216"/>
      <point x="119" y="-255"/>
    </contour>
    <contour>
      <point x="207" y="-245" type="curve" smooth="yes"/>
      <point x="128" y="-245"/>
      <point x="78" y="-211"/>
      <point x="78" y="-152" type="curve" smooth="yes"/>
      <point x="78" y="-94"/>
      <point x="128" y="-59"/>
      <point x="207" y="-59" type="curve" smooth="yes"/>
      <point x="285" y="-59"/>
      <point x="334" y="-94"/>
      <point x="334" y="-152" type="curve" smooth="yes"/>
      <point x="334" y="-211"/>
      <point x="285" y="-245"/>
    </contour>
  </outline>
</glyph>
<glyph name="uni02F7" format="2">
  <advance width="451"/>
  <unicode hex="02F7"/>
  <outline>
    <contour>
      <point x="327" y="-158" type="curve" smooth="yes"/>
      <point x="387" y="-158"/>
      <point x="407" y="-124"/>
      <point x="411" y="-84" type="curve"/>
      <point x="401" y="-84" type="line"/>
      <point x="396" y="-122"/>
      <point x="376" y="-131"/>
      <point x="321" y="-131" type="curve" smooth="yes"/>
      <point x="272" y="-131"/>
      <point x="214" y="-78"/>
      <point x="134" y="-78" type="curve" smooth="yes"/>
      <point x="72" y="-78"/>
      <point x="45" y="-122"/>
      <point x="40" y="-162" type="curve"/>
      <point x="50" y="-162" type="line"/>
      <point x="56" y="-132"/>
      <point x="68" y="-105"/>
      <point x="137" y="-105" type="curve" smooth="yes"/>
      <point x="193" y="-105"/>
      <point x="260" y="-158"/>
    </contour>
  </outline>
</glyph>
<glyph name="ringhalfleftbelowcomb" format="2">
  <unicode hex="031C"/>
  <anchor x="1" y="0" name="_bottom"/>
  <anchor x="1" y="-224" name="bottom"/>
  <outline>
    <contour>
      <point x="53" y="-224" type="curve"/>
      <point x="53" y="-214" type="line"/>
      <point x="-19" y="-217"/>
      <point x="-56" y="-171"/>
      <point x="-56" y="-131" type="curve" smooth="yes"/>
      <point x="-56" y="-93"/>
      <point x="-19" y="-49"/>
      <point x="53" y="-52" type="curve"/>
      <point x="53" y="-42" type="line"/>
      <point x="-18" y="-42"/>
      <point x="-52" y="-80"/>
      <point x="-52" y="-131" type="curve" smooth="yes"/>
      <point x="-52" y="-187"/>
      <point x="-18" y="-224"/>
    </contour>
  </outline>
</glyph>
<glyph name="bridgeinvertedbelowcomb" format="2">
  <unicode hex="033A"/>
  <anchor x="0" y="0" name="_bottom"/>
  <anchor x="0" y="-240" name="bottom"/>
  <outline>
    <contour>
      <point x="-224" y="-240" type="line"/>
      <point x="224" y="-240" type="line"/>
      <point x="224" y="-86" type="line"/>
      <point x="214" y="-86" type="line"/>
      <point x="214" y="-58" type="line" smooth="yes"/>
      <point x="214" y="-192"/>
      <point x="190" y="-220"/>
      <point x="105" y="-220" type="curve" smooth="yes"/>
      <point x="-104" y="-220" type="line" smooth="yes"/>
      <point x="-189" y="-220"/>
      <point x="-214" y="-189"/>
      <point x="-214" y="-58" type="curve" smooth="yes"/>
      <point x="-214" y="-86" type="line"/>
      <point x="-224" y="-86" type="line"/>
    </contour>
  </outline>
</glyph>
<glyph name="koroniscomb" format="2">
  <unicode hex="0343"/>
  <anchor x="10" y="536" name="_top"/>
  <anchor x="10" y="714" name="top"/>
  <outline>
    <contour>
      <point x="-35" y="554" type="line"/>
      <point x="-27" y="554" type="line"/>
      <point x="-6" y="601"/>
      <point x="28" y="678"/>
      <point x="46" y="702" type="curve"/>
      <point x="46" y="714" type="line"/>
      <point x="16" y="714" type="line"/>
      <point x="8" y="677"/>
      <point x="-20" y="582"/>
      <point x="-35" y="562" type="curve"/>
    </contour>
  </outline>
</glyph>
<glyph name="nottildeabovecomb" format="2">
  <unicode hex="034A"/>
  <anchor x="-2" y="536" name="_top"/>
  <anchor x="-2" y="728" name="top"/>
  <outline>
    <contour>
      <point x="-49" y="580" type="line"/>
      <point x="-4" y="646" type="line"/>
      <point x="25" y="630"/>
      <point x="61" y="608"/>
      <point x="99" y="608" type="curve" smooth="yes"/>
      <point x="159" y="608"/>
      <point x="179" y="642"/>
      <point x="183" y="682" type="curve"/>
      <point x="173" y="682" type="line"/>
      <point x="167" y="650"/>
      <point x="155" y="632"/>
      <point x="98" y="632" type="curve" smooth="yes"/>
      <point x="73" y="632"/>
      <point x="34" y="653"/>
      <point x="10" y="667" type="curve"/>
      <point x="47" y="717" type="line"/>
      <point x="38" y="723" type="line"/>
      <point x="1" y="671" type="line"/>
      <point x="-23" y="680"/>
      <point x="-57" y="700"/>
      <point x="-94" y="700" type="curve" smooth="yes"/>
      <point x="-156" y="700"/>
      <point x="-183" y="656"/>
      <point x="-188" y="616" type="curve"/>
      <point x="-178" y="616" type="line"/>
      <point x="-171" y="646"/>
      <point x="-162" y="676"/>
      <point x="-96" y="676" type="curve" smooth="yes"/>
      <point x="-73" y="676"/>
      <point x="-34" y="658"/>
      <point x="-14" y="651" type="curve"/>
      <point x="-58" y="586" type="line"/>
    </contour>
  </outline>
</glyph>
<glyph name="doubleringbelowcomb" format="2">
  <unicode hex="035A"/>
  <anchor x="0" y="-19" name="_bottom"/>
  <anchor x="0" y="-230" name="bottom"/>
  <outline>
    <contour>
      <point x="-77" y="-230" type="curve" smooth="yes"/>
      <point x="-44" y="-230"/>
      <point x="-16" y="-217"/>
      <point x="0" y="-199" type="curve"/>
      <point x="16" y="-217"/>
      <point x="44" y="-230"/>
      <point x="75" y="-230" type="curve" smooth="yes"/>
      <point x="136" y="-230"/>
      <point x="178" y="-195"/>
      <point x="178" y="-139" type="curve" smooth="yes"/>
      <point x="178" y="-83"/>
      <point x="136" y="-48"/>
      <point x="75" y="-48" type="curve" smooth="yes"/>
      <point x="44" y="-48"/>
      <point x="16" y="-61"/>
      <point x="0" y="-79" type="curve"/>
      <point x="-16" y="-61"/>
      <point x="-44" y="-48"/>
      <point x="-77" y="-48" type="curve" smooth="yes"/>
      <point x="-136" y="-48"/>
      <point x="-178" y="-83"/>
      <point x="-178" y="-139" type="curve" smooth="yes"/>
      <point x="-178" y="-195"/>
      <point x="-136" y="-230"/>
    </contour>
    <contour>
      <point x="-75" y="-198" type="curve" smooth="yes"/>
      <point x="-113" y="-198"/>
      <point x="-136" y="-177"/>
      <point x="-136" y="-139" type="curve" smooth="yes"/>
      <point x="-136" y="-101"/>
      <point x="-113" y="-80"/>
      <point x="-75" y="-80" type="curve" smooth="yes"/>
      <point x="-41" y="-80"/>
      <point x="-20" y="-101"/>
      <point x="-20" y="-139" type="curve" smooth="yes"/>
      <point x="-20" y="-177"/>
      <point x="-41" y="-198"/>
    </contour>
    <contour>
      <point x="71" y="-198" type="curve" smooth="yes"/>
      <point x="39" y="-198"/>
      <point x="18" y="-177"/>
      <point x="18" y="-139" type="curve" smooth="yes"/>
      <point x="18" y="-101"/>
      <point x="39" y="-80"/>
      <point x="71" y="-80" type="curve" smooth="yes"/>
      <point x="113" y="-80"/>
      <point x="136" y="-101"/>
      <point x="136" y="-139" type="curve" smooth="yes"/>
      <point x="136" y="-177"/>
      <point x="113" y="-198"/>
    </contour>
  </outline>
</glyph>
<glyph name="doublebrevebelowcomb" format="2">
  <unicode hex="035C"/>
  <anchor x="-279" y="0" name="_bottom"/>
  <anchor x="0" y="-211" name="bottom"/>
  <outline>
    <contour>
      <point x="0" y="-211" type="curve" smooth="yes"/>
      <point x="192" y="-211"/>
      <point x="388" y="-146"/>
      <point x="465" y="-19" type="curve"/>
      <point x="454" y="-19" type="line"/>
      <point x="371" y="-154"/>
      <point x="167" y="-199"/>
      <point x="0" y="-199" type="curve" smooth="yes"/>
      <point x="-165" y="-199"/>
      <point x="-373" y="-154"/>
      <point x="-456" y="-19" type="curve"/>
      <point x="-467" y="-19" type="line"/>
      <point x="-388" y="-144"/>
      <point x="-188" y="-211"/>
    </contour>
  </outline>
</glyph>
<glyph name="heta" format="2">
  <advance width="583"/>
  <unicode hex="0371"/>
  <anchor x="292" y="0" name="bottom"/>
  <anchor x="292" y="536" name="top"/>
  <outline>
    <contour>
      <point x="171" y="0" type="line"/>
      <point x="199" y="0" type="line"/>
      <point x="199" y="270" type="line"/>
      <point x="559" y="270" type="line"/>
      <point x="559" y="280" type="line"/>
      <point x="199" y="280" type="line"/>
      <point x="199" y="536" type="line"/>
      <point x="65" y="536" type="line"/>
      <point x="65" y="526" type="line"/>
      <point x="128" y="526" type="line" smooth="yes"/>
      <point x="175" y="526"/>
      <point x="171" y="522"/>
      <point x="171" y="454" type="curve" smooth="yes"/>
    </contour>
  </outline>
</glyph>
<glyph name="uni0375" format="2">
  <advance width="188"/>
  <unicode hex="0375"/>
  <outline>
    <contour>
      <point x="56" y="-240" type="line"/>
      <point x="82" y="-240" type="line"/>
      <point x="90" y="-223"/>
      <point x="112" y="-152"/>
      <point x="132" y="-103" type="curve"/>
      <point x="132" y="-90" type="line"/>
      <point x="122" y="-90" type="line"/>
      <point x="97" y="-135"/>
      <point x="71" y="-202"/>
      <point x="56" y="-232" type="curve"/>
    </contour>
  </outline>
</glyph>
<glyph name="anoteleia" format="2">
  <advance width="205"/>
  <unicode hex="0387"/>
  <outline>
    <contour>
      <point x="103" y="433" type="curve" smooth="yes"/>
      <point x="111" y="433"/>
      <point x="123" y="439"/>
      <point x="123" y="473" type="curve" smooth="yes"/>
      <point x="123" y="506"/>
      <point x="111" y="511"/>
      <point x="103" y="511" type="curve" smooth="yes"/>
      <point x="97" y="511"/>
      <point x="83" y="506"/>
      <point x="83" y="473" type="curve" smooth="yes"/>
      <point x="83" y="439"/>
      <point x="97" y="433"/>
    </contour>
  </outline>
</glyph>
<glyph name="Lambda" format="2">
  <advance width="842"/>
  <unicode hex="039B"/>
  <anchor x="394" y="0" name="bottom"/>
  <anchor x="410" y="714" name="top"/>
  <outline>
    <contour>
      <point x="-10" y="0" type="line"/>
      <point x="213" y="0" type="line"/>
      <point x="213" y="10" type="line"/>
      <point x="178" y="10" type="line" smooth="yes"/>
      <point x="118" y="10"/>
      <point x="96" y="5"/>
      <point x="96" y="36" type="curve" smooth="yes"/>
      <point x="96" y="47"/>
      <point x="108" y="73"/>
      <point x="114" y="70" type="curve" smooth="yes"/>
      <point x="306" y="482" type="line" smooth="yes"/>
      <point x="353" y="580"/>
      <point x="375" y="624"/>
      <point x="400" y="675" type="curve"/>
      <point x="424" y="629"/>
      <point x="451" y="566"/>
      <point x="498" y="470" type="curve" smooth="yes"/>
      <point x="689" y="69" type="line" smooth="yes"/>
      <point x="698" y="50"/>
      <point x="704" y="43"/>
      <point x="704" y="36" type="curve" smooth="yes"/>
      <point x="704" y="-3"/>
      <point x="657" y="10"/>
      <point x="603" y="10" type="curve" smooth="yes"/>
      <point x="576" y="10" type="line"/>
      <point x="576" y="0" type="line"/>
      <point x="834" y="0" type="line"/>
      <point x="834" y="10" type="line"/>
      <point x="790" y="10" type="line" smooth="yes"/>
      <point x="760" y="10"/>
      <point x="756" y="12"/>
      <point x="733" y="60" type="curve" smooth="yes"/>
      <point x="412" y="714" type="line"/>
      <point x="410" y="714" type="line"/>
      <point x="113" y="122" type="line" smooth="yes"/>
      <point x="72" y="27"/>
      <point x="73" y="10"/>
      <point x="43" y="10" type="curve" smooth="yes"/>
      <point x="-10" y="10" type="line"/>
    </contour>
  </outline>
</glyph>
<glyph name="Psi" format="2">
  <advance width="768"/>
  <unicode hex="03A8"/>
  <anchor x="384" y="0" name="bottom"/>
  <anchor x="384" y="714" name="top"/>
  <outline>
    <contour>
      <point x="249" y="0" type="line"/>
      <point x="516" y="0" type="line"/>
      <point x="516" y="10" type="line"/>
      <point x="423" y="10" type="line" smooth="yes"/>
      <point x="409" y="10"/>
      <point x="400" y="21"/>
      <point x="400" y="98" type="curve" smooth="yes"/>
      <point x="400" y="264" type="line"/>
      <point x="443" y="264" type="line" smooth="yes"/>
      <point x="650" y="264"/>
      <point x="670" y="386"/>
      <point x="670" y="473" type="curve" smooth="yes"/>
      <point x="670" y="684" type="line" smooth="yes"/>
      <point x="670" y="703"/>
      <point x="670" y="704"/>
      <point x="772" y="704" type="curve"/>
      <point x="772" y="714" type="line"/>
      <point x="642" y="714" type="line"/>
      <point x="642" y="478" type="line" smooth="yes"/>
      <point x="642" y="339"/>
      <point x="593" y="274"/>
      <point x="435" y="274" type="curve" smooth="yes"/>
      <point x="400" y="274" type="line"/>
      <point x="400" y="614" type="line" smooth="yes"/>
      <point x="400" y="693"/>
      <point x="402" y="704"/>
      <point x="436" y="704" type="curve" smooth="yes"/>
      <point x="515" y="704" type="line"/>
      <point x="515" y="714" type="line"/>
      <point x="250" y="714" type="line"/>
      <point x="250" y="704" type="line"/>
      <point x="336" y="704" type="line" smooth="yes"/>
      <point x="364" y="704"/>
      <point x="372" y="693"/>
      <point x="372" y="614" type="curve" smooth="yes"/>
      <point x="372" y="274" type="line"/>
      <point x="327" y="274" type="line" smooth="yes"/>
      <point x="168" y="274"/>
      <point x="128" y="343"/>
      <point x="128" y="478" type="curve" smooth="yes"/>
      <point x="128" y="714" type="line"/>
      <point x="-2" y="714" type="line"/>
      <point x="-2" y="704" type="line"/>
      <point x="100" y="704"/>
      <point x="100" y="697"/>
      <point x="100" y="684" type="curve" smooth="yes"/>
      <point x="100" y="473" type="line" smooth="yes"/>
      <point x="100" y="396"/>
      <point x="111" y="264"/>
      <point x="325" y="264" type="curve" smooth="yes"/>
      <point x="372" y="264" type="line"/>
      <point x="372" y="98" type="line" smooth="yes"/>
      <point x="372" y="21"/>
      <point x="364" y="10"/>
      <point x="338" y="10" type="curve" smooth="yes"/>
      <point x="249" y="10" type="line"/>
    </contour>
  </outline>
</glyph>
<glyph name="delta" format="2">
  <advance width="651"/>
  <unicode hex="03B4"/>
  <anchor x="326" y="0" name="bottom"/>
  <anchor x="326" y="765" name="top"/>
  <outline>
    <contour>
      <point x="315" y="-10" type="curve" smooth="yes"/>
      <point x="460" y="-10"/>
      <point x="569" y="79"/>
      <point x="569" y="228" type="curve" smooth="yes"/>
      <point x="569" y="398"/>
      <point x="449" y="443"/>
      <point x="335" y="497" type="curve" smooth="yes"/>
      <point x="229" y="552"/>
      <point x="212" y="592"/>
      <point x="212" y="651" type="curve" smooth="yes"/>
      <point x="212" y="724"/>
      <point x="281" y="755"/>
      <point x="365" y="755" type="curve" smooth="yes"/>
      <point x="467" y="755"/>
      <point x="519" y="701"/>
      <point x="519" y="602" type="curve"/>
      <point x="530" y="602"/>
      <point x="543" y="604"/>
      <point x="543" y="624" type="curve" smooth="yes"/>
      <point x="543" y="695"/>
      <point x="478" y="765"/>
      <point x="372" y="765" type="curve" smooth="yes"/>
      <point x="279" y="765"/>
      <point x="184" y="734"/>
      <point x="184" y="642" type="curve" smooth="yes"/>
      <point x="184" y="553"/>
      <point x="256" y="507"/>
      <point x="324" y="473" type="curve"/>
      <point x="189" y="451"/>
      <point x="77" y="345"/>
      <point x="77" y="206" type="curve" smooth="yes"/>
      <point x="77" y="71"/>
      <point x="183" y="-10"/>
    </contour>
    <contour>
      <point x="316" y="0" type="curve" smooth="yes"/>
      <point x="198" y="0"/>
      <point x="105" y="71"/>
      <point x="105" y="219" type="curve" smooth="yes"/>
      <point x="105" y="344"/>
      <point x="246" y="444"/>
      <point x="334" y="465" type="curve"/>
      <point x="421" y="434"/>
      <point x="541" y="372"/>
      <point x="541" y="230" type="curve" smooth="yes"/>
      <point x="541" y="89"/>
      <point x="453" y="0"/>
    </contour>
  </outline>
</glyph>
<glyph name="epsilon" format="2">
  <advance width="544"/>
  <unicode hex="03B5"/>
  <anchor x="272" y="0" name="bottom"/>
  <anchor x="272" y="536" name="top"/>
  <outline>
    <contour>
      <point x="294" y="-10" type="curve" smooth="yes"/>
      <point x="413" y="-10"/>
      <point x="513" y="55"/>
      <point x="513" y="83" type="curve" smooth="yes"/>
      <point x="513" y="100"/>
      <point x="506" y="103"/>
      <point x="493" y="108" type="curve"/>
      <point x="459" y="44"/>
      <point x="393" y="0"/>
      <point x="293" y="0" type="curve" smooth="yes"/>
      <point x="209" y="0"/>
      <point x="126" y="33"/>
      <point x="126" y="145" type="curve" smooth="yes"/>
      <point x="126" y="222"/>
      <point x="203" y="272"/>
      <point x="264" y="293" type="curve"/>
      <point x="322" y="280"/>
      <point x="339" y="276"/>
      <point x="369" y="276" type="curve" smooth="yes"/>
      <point x="391" y="276"/>
      <point x="402" y="281"/>
      <point x="402" y="291" type="curve" smooth="yes"/>
      <point x="402" y="303"/>
      <point x="391" y="308"/>
      <point x="371" y="308" type="curve" smooth="yes"/>
      <point x="329" y="308"/>
      <point x="292" y="298"/>
      <point x="272" y="304" type="curve"/>
      <point x="192" y="306"/>
      <point x="151" y="372"/>
      <point x="151" y="413" type="curve" smooth="yes"/>
      <point x="151" y="491"/>
      <point x="216" y="531"/>
      <point x="308" y="531" type="curve" smooth="yes"/>
      <point x="436" y="531"/>
      <point x="464" y="486"/>
      <point x="464" y="403" type="curve"/>
      <point x="476" y="403"/>
      <point x="493" y="401"/>
      <point x="493" y="430" type="curve" smooth="yes"/>
      <point x="493" y="484"/>
      <point x="446" y="541"/>
      <point x="307" y="541" type="curve" smooth="yes"/>
      <point x="188" y="541"/>
      <point x="123" y="481"/>
      <point x="123" y="417" type="curve" smooth="yes"/>
      <point x="123" y="358"/>
      <point x="159" y="312"/>
      <point x="248" y="296" type="curve"/>
      <point x="248" y="296" type="line"/>
      <point x="166" y="277"/>
      <point x="98" y="231"/>
      <point x="98" y="150" type="curve" smooth="yes"/>
      <point x="98" y="55"/>
      <point x="159" y="-10"/>
    </contour>
  </outline>
</glyph>
<glyph name="eta" format="2">
  <advance width="658"/>
  <unicode hex="03B7"/>
  <anchor x="330" y="-240" name="bottom"/>
  <anchor x="330" y="536" name="top"/>
  <outline>
    <contour>
      <point x="525" y="-240" type="curve"/>
      <point x="557" y="-240" type="line"/>
      <point x="543" y="-200"/>
      <point x="530" y="-98"/>
      <point x="530" y="-72" type="curve" smooth="yes"/>
      <point x="530" y="382" type="line" smooth="yes"/>
      <point x="530" y="475"/>
      <point x="491" y="542"/>
      <point x="351" y="542" type="curve" smooth="yes"/>
      <point x="256" y="542"/>
      <point x="204" y="499"/>
      <point x="165" y="405" type="curve"/>
      <point x="163" y="405" type="line"/>
      <point x="154" y="447"/>
      <point x="147" y="491"/>
      <point x="118" y="536" type="curve"/>
      <point x="98" y="536" type="line"/>
      <point x="125" y="459"/>
      <point x="130" y="401"/>
      <point x="130" y="341" type="curve" smooth="yes"/>
      <point x="130" y="0" type="line"/>
      <point x="158" y="0" type="line"/>
      <point x="158" y="308" type="line" smooth="yes"/>
      <point x="158" y="409"/>
      <point x="223" y="527"/>
      <point x="348" y="527" type="curve" smooth="yes"/>
      <point x="470" y="527"/>
      <point x="502" y="455"/>
      <point x="502" y="383" type="curve" smooth="yes"/>
      <point x="502" y="-72" type="line" smooth="yes"/>
      <point x="502" y="-155"/>
      <point x="511" y="-190"/>
    </contour>
  </outline>
</glyph>
<glyph name="theta" format="2">
  <advance width="660"/>
  <unicode hex="03B8"/>
  <anchor x="331" y="0" name="bottom"/>
  <anchor x="331" y="764" name="top"/>
  <anchor x="640" y="764" name="topright"/>
  <outline>
    <contour>
      <point x="328" y="-10" type="curve" smooth="yes"/>
      <point x="509" y="-10"/>
      <point x="574" y="139"/>
      <point x="574" y="378" type="curve" smooth="yes"/>
      <point x="574" y="616"/>
      <point x="511" y="764"/>
      <point x="329" y="764" type="curve" smooth="yes"/>
      <point x="148" y="764"/>
      <point x="82" y="618"/>
      <point x="82" y="379" type="curve" smooth="yes"/>
      <point x="82" y="141"/>
      <point x="149" y="-10"/>
    </contour>
    <contour>
      <point x="328" y="0" type="curve" smooth="yes"/>
      <point x="159" y="0"/>
      <point x="108" y="166"/>
      <point x="110" y="378" type="curve"/>
      <point x="546" y="378" type="line"/>
      <point x="552" y="165"/>
      <point x="498" y="0"/>
    </contour>
    <contour>
      <point x="110" y="388" type="line"/>
      <point x="108" y="606"/>
      <point x="156" y="754"/>
      <point x="327" y="754" type="curve" smooth="yes"/>
      <point x="502" y="754"/>
      <point x="545" y="606"/>
      <point x="544" y="388" type="curve"/>
    </contour>
  </outline>
</glyph>
<glyph name="sigma1" format="2">
  <advance width="526"/>
  <unicode hex="03C2"/>
  <anchor x="264" y="-200" name="bottom"/>
  <anchor x="264" y="536" name="top"/>
  <outline>
    <contour>
      <point x="358" y="-200" type="line"/>
      <point x="405" y="-202"/>
      <point x="468" y="-171"/>
      <point x="468" y="-64" type="curve" smooth="yes"/>
      <point x="468" y="2"/>
      <point x="438" y="25"/>
      <point x="299" y="72" type="curve" smooth="yes"/>
      <point x="197" y="108"/>
      <point x="110" y="99"/>
      <point x="110" y="276" type="curve" smooth="yes"/>
      <point x="110" y="481"/>
      <point x="227" y="532"/>
      <point x="312" y="532" type="curve" smooth="yes"/>
      <point x="406" y="532"/>
      <point x="471" y="495"/>
      <point x="471" y="414" type="curve"/>
      <point x="482" y="414"/>
      <point x="491" y="424"/>
      <point x="491" y="433" type="curve" smooth="yes"/>
      <point x="491" y="507"/>
      <point x="430" y="542"/>
      <point x="320" y="542" type="curve" smooth="yes"/>
      <point x="224" y="542"/>
      <point x="82" y="499"/>
      <point x="82" y="296" type="curve" smooth="yes"/>
      <point x="82" y="131"/>
      <point x="161" y="90"/>
      <point x="235" y="65" type="curve" smooth="yes"/>
      <point x="427" y="4"/>
      <point x="435" y="-17"/>
      <point x="435" y="-69" type="curve" smooth="yes"/>
      <point x="435" y="-155"/>
      <point x="412" y="-179"/>
      <point x="358" y="-192" type="curve"/>
    </contour>
  </outline>
</glyph>
<glyph name="tau" format="2">
  <advance width="554"/>
  <unicode hex="03C4"/>
  <anchor x="277" y="0" name="bottom"/>
  <anchor x="277" y="536" name="top"/>
  <outline>
    <contour>
      <point x="326" y="-10" type="curve" smooth="yes"/>
      <point x="376" y="-10"/>
      <point x="423" y="3"/>
      <point x="454" y="16" type="curve"/>
      <point x="454" y="27" type="line"/>
      <point x="423" y="14"/>
      <point x="385" y="2"/>
      <point x="339" y="2" type="curve" smooth="yes"/>
      <point x="268" y="2"/>
      <point x="223" y="3"/>
      <point x="223" y="93" type="curve" smooth="yes"/>
      <point x="223" y="184"/>
      <point x="268" y="375"/>
      <point x="325" y="514" type="curve"/>
      <point x="531" y="514" type="line"/>
      <point x="531" y="536" type="line"/>
      <point x="177" y="536" type="line" smooth="yes"/>
      <point x="64" y="536"/>
      <point x="37" y="483"/>
      <point x="37" y="431" type="curve"/>
      <point x="47" y="431" type="line"/>
      <point x="47" y="488"/>
      <point x="85" y="514"/>
      <point x="133" y="514" type="curve" smooth="yes"/>
      <point x="310" y="514" type="line"/>
      <point x="237" y="340"/>
      <point x="193" y="166"/>
      <point x="193" y="105" type="curve" smooth="yes"/>
      <point x="193" y="54"/>
      <point x="212" y="-10"/>
    </contour>
  </outline>
</glyph>
<glyph name="psi" format="2">
  <advance width="817"/>
  <unicode hex="03C8"/>
  <anchor x="408" y="-240" name="bottom"/>
  <anchor x="408" y="760" name="top"/>
  <outline>
    <contour>
      <point x="407" y="-240" type="line"/>
      <point x="432" y="-240" type="line"/>
      <point x="432" y="-10" type="line"/>
      <point x="591" y="-16"/>
      <point x="731" y="108"/>
      <point x="731" y="337" type="curve" smooth="yes"/>
      <point x="731" y="524"/>
      <point x="675" y="544"/>
      <point x="633" y="544" type="curve" smooth="yes"/>
      <point x="615" y="544"/>
      <point x="609" y="537"/>
      <point x="608" y="528" type="curve"/>
      <point x="640" y="529"/>
      <point x="717" y="471"/>
      <point x="717" y="313" type="curve" smooth="yes"/>
      <point x="717" y="163"/>
      <point x="641" y="1"/>
      <point x="432" y="8" type="curve"/>
      <point x="432" y="760" type="line"/>
      <point x="407" y="760" type="line"/>
      <point x="407" y="8" type="line"/>
      <point x="274" y="15"/>
      <point x="164" y="27"/>
      <point x="164" y="186" type="curve" smooth="yes"/>
      <point x="164" y="536" type="line"/>
      <point x="41" y="536" type="line"/>
      <point x="41" y="526" type="line"/>
      <point x="65" y="526" type="line" smooth="yes"/>
      <point x="127" y="526"/>
      <point x="136" y="512"/>
      <point x="136" y="455" type="curve" smooth="yes"/>
      <point x="136" y="168" type="line" smooth="yes"/>
      <point x="136" y="-6"/>
      <point x="279" y="-8"/>
      <point x="407" y="-10" type="curve"/>
    </contour>
  </outline>
</glyph>
<glyph name="uni03D7" format="2">
  <advance width="685"/>
  <unicode hex="03D7"/>
  <outline>
    <contour>
      <point x="503" y="-197" type="curve" smooth="yes"/>
      <point x="568" y="-197"/>
      <point x="581" y="-145"/>
      <point x="581" y="-91" type="curve" smooth="yes"/>
      <point x="581" y="20" type="line"/>
      <point x="502" y="22"/>
      <point x="493" y="83"/>
      <point x="493" y="123" type="curve" smooth="yes"/>
      <point x="493" y="265"/>
      <point x="561" y="455"/>
      <point x="592" y="536" type="curve"/>
      <point x="593" y="536" type="line"/>
      <point x="89" y="57" type="line"/>
      <point x="116" y="144"/>
      <point x="164" y="336"/>
      <point x="164" y="449" type="curve" smooth="yes"/>
      <point x="164" y="505"/>
      <point x="152" y="546"/>
      <point x="102" y="546" type="curve" smooth="yes"/>
      <point x="62" y="546"/>
      <point x="54" y="520"/>
      <point x="54" y="509" type="curve"/>
      <point x="132" y="509"/>
      <point x="152" y="498"/>
      <point x="152" y="432" type="curve" smooth="yes"/>
      <point x="152" y="319"/>
      <point x="92" y="101"/>
      <point x="64" y="0" type="curve"/>
      <point x="61" y="0" type="line"/>
      <point x="555" y="462" type="line"/>
      <point x="520" y="366"/>
      <point x="481" y="223"/>
      <point x="481" y="106" type="curve" smooth="yes"/>
      <point x="481" y="42"/>
      <point x="493" y="-11"/>
      <point x="541" y="-11" type="curve" smooth="yes"/>
      <point x="554" y="-11"/>
      <point x="565" y="-7"/>
      <point x="571" y="-3" type="curve"/>
      <point x="571" y="-91" type="line" smooth="yes"/>
      <point x="571" y="-153"/>
      <point x="537" y="-172"/>
      <point x="506" y="-172" type="curve" smooth="yes"/>
      <point x="475" y="-172"/>
      <point x="464" y="-153"/>
      <point x="458" y="-136" type="curve"/>
      <point x="448" y="-139"/>
      <point x="443" y="-146"/>
      <point x="443" y="-157" type="curve" smooth="yes"/>
      <point x="443" y="-178"/>
      <point x="463" y="-197"/>
    </contour>
  </outline>
</glyph>
<glyph name="uni03D8" format="2">
  <advance width="842"/>
  <unicode hex="03D8"/>
  <anchor x="421" y="0" name="bottom"/>
  <anchor x="421" y="714" name="top"/>
  <outline>
    <contour>
      <point x="285" y="0" type="line"/>
      <point x="562" y="0" type="line"/>
      <point x="562" y="10" type="line"/>
      <point x="453" y="10" type="line" smooth="yes"/>
      <point x="433" y="10"/>
      <point x="435" y="21"/>
      <point x="435" y="97" type="curve" smooth="yes"/>
      <point x="435" y="160" type="line"/>
      <point x="665" y="164"/>
      <point x="769" y="299"/>
      <point x="769" y="443" type="curve" smooth="yes"/>
      <point x="769" y="597"/>
      <point x="675" y="725"/>
      <point x="425" y="725" type="curve" smooth="yes"/>
      <point x="206" y="725"/>
      <point x="72" y="596"/>
      <point x="72" y="444" type="curve" smooth="yes"/>
      <point x="72" y="294"/>
      <point x="194" y="165"/>
      <point x="407" y="160" type="curve"/>
      <point x="407" y="97" type="line" smooth="yes"/>
      <point x="407" y="21"/>
      <point x="407" y="10"/>
      <point x="389" y="10" type="curve" smooth="yes"/>
      <point x="285" y="10" type="line"/>
    </contour>
    <contour>
      <point x="422" y="170" type="curve" smooth="yes"/>
      <point x="236" y="170"/>
      <point x="99" y="280"/>
      <point x="99" y="446" type="curve" smooth="yes"/>
      <point x="99" y="612"/>
      <point x="230" y="715"/>
      <point x="427" y="715" type="curve" smooth="yes"/>
      <point x="645" y="715"/>
      <point x="741" y="609"/>
      <point x="741" y="444" type="curve" smooth="yes"/>
      <point x="741" y="280"/>
      <point x="641" y="170"/>
    </contour>
  </outline>
</glyph>
<glyph name="uni03DA" format="2">
  <advance width="694"/>
  <unicode hex="03DA"/>
  <anchor x="347" y="0" name="bottom"/>
  <anchor x="347" y="714" name="top"/>
  <outline>
    <contour>
      <point x="253" y="0" type="line"/>
      <point x="528" y="0" type="line"/>
      <point x="528" y="10" type="line"/>
      <point x="419" y="10" type="line" smooth="yes"/>
      <point x="399" y="10"/>
      <point x="399" y="21"/>
      <point x="399" y="98" type="curve" smooth="yes"/>
      <point x="399" y="113" type="line"/>
      <point x="392" y="113" type="line" smooth="yes"/>
      <point x="193" y="113"/>
      <point x="98" y="192"/>
      <point x="98" y="412" type="curve" smooth="yes"/>
      <point x="98" y="628"/>
      <point x="202" y="714"/>
      <point x="373" y="714" type="curve" smooth="yes"/>
      <point x="569" y="714"/>
      <point x="597" y="665"/>
      <point x="597" y="569" type="curve"/>
      <point x="612" y="569"/>
      <point x="629" y="588"/>
      <point x="629" y="609" type="curve" smooth="yes"/>
      <point x="629" y="643"/>
      <point x="580" y="724"/>
      <point x="384" y="724" type="curve" smooth="yes"/>
      <point x="180" y="724"/>
      <point x="70" y="635"/>
      <point x="70" y="412" type="curve" smooth="yes"/>
      <point x="70" y="210"/>
      <point x="159" y="112"/>
      <point x="371" y="102" type="curve"/>
      <point x="371" y="58" type="line" smooth="yes"/>
      <point x="371" y="21"/>
      <point x="367" y="10"/>
      <point x="347" y="10" type="curve" smooth="yes"/>
      <point x="253" y="10" type="line"/>
    </contour>
  </outline>
</glyph>
<glyph name="uni03DC" format="2">
  <advance width="676"/>
  <unicode hex="03DC"/>
  <anchor x="338" y="0" name="bottom"/>
  <anchor x="338" y="714" name="top"/>
  <outline>
    <contour>
      <point x="64" y="0" type="line"/>
      <point x="376" y="0" type="line"/>
      <point x="376" y="10" type="line"/>
      <point x="275" y="10" type="line" smooth="yes"/>
      <point x="221" y="10"/>
      <point x="217" y="21"/>
      <point x="217" y="98" type="curve" smooth="yes"/>
      <point x="217" y="351" type="line"/>
      <point x="471" y="351" type="line" smooth="yes"/>
      <point x="503" y="351"/>
      <point x="508" y="344"/>
      <point x="513" y="261" type="curve"/>
      <point x="523" y="261" type="line"/>
      <point x="519" y="361" type="line"/>
      <point x="217" y="361" type="line"/>
      <point x="217" y="704" type="line"/>
      <point x="538" y="704" type="line" smooth="yes"/>
      <point x="596" y="704"/>
      <point x="596" y="678"/>
      <point x="598" y="607" type="curve" smooth="yes"/>
      <point x="599" y="551" type="line"/>
      <point x="609" y="551" type="line"/>
      <point x="604" y="714" type="line"/>
      <point x="64" y="714" type="line"/>
      <point x="64" y="704" type="line"/>
      <point x="127" y="704" type="line" smooth="yes"/>
      <point x="187" y="704"/>
      <point x="189" y="693"/>
      <point x="189" y="614" type="curve" smooth="yes"/>
      <point x="189" y="98" type="line" smooth="yes"/>
      <point x="189" y="21"/>
      <point x="183" y="10"/>
      <point x="135" y="10" type="curve" smooth="yes"/>
      <point x="64" y="10" type="line"/>
    </contour>
  </outline>
</glyph>
<glyph name="uni03DE" format="2">
  <advance width="487"/>
  <unicode hex="03DE"/>
  <anchor x="257" y="0" name="bottom"/>
  <anchor x="257" y="714" name="top"/>
  <outline>
    <contour>
      <point x="380" y="-10" type="curve" smooth="yes"/>
      <point x="401" y="-10"/>
      <point x="432" y="2"/>
      <point x="432" y="28" type="curve" smooth="yes"/>
      <point x="432" y="37"/>
      <point x="429" y="47"/>
      <point x="416" y="49" type="curve"/>
      <point x="414" y="10"/>
      <point x="399" y="0"/>
      <point x="379" y="0" type="curve" smooth="yes"/>
      <point x="349" y="0"/>
      <point x="337" y="25"/>
      <point x="337" y="77" type="curve" smooth="yes"/>
      <point x="337" y="163"/>
      <point x="396" y="292"/>
      <point x="444" y="373" type="curve"/>
      <point x="444" y="386" type="line"/>
      <point x="87" y="386" type="line"/>
      <point x="124" y="466"/>
      <point x="181" y="580"/>
      <point x="181" y="635" type="curve" smooth="yes"/>
      <point x="181" y="693"/>
      <point x="159" y="720"/>
      <point x="113" y="720" type="curve" smooth="yes"/>
      <point x="89" y="720"/>
      <point x="58" y="708"/>
      <point x="58" y="682" type="curve" smooth="yes"/>
      <point x="58" y="673"/>
      <point x="61" y="667"/>
      <point x="74" y="661" type="curve"/>
      <point x="80" y="698"/>
      <point x="91" y="710"/>
      <point x="114" y="710" type="curve" smooth="yes"/>
      <point x="141" y="710"/>
      <point x="153" y="685"/>
      <point x="153" y="633" type="curve" smooth="yes"/>
      <point x="153" y="580"/>
      <point x="125" y="487"/>
      <point x="70" y="373" type="curve"/>
      <point x="70" y="361" type="line"/>
      <point x="425" y="361" type="line"/>
      <point x="387" y="294"/>
      <point x="309" y="158"/>
      <point x="309" y="75" type="curve" smooth="yes"/>
      <point x="309" y="17"/>
      <point x="331" y="-10"/>
    </contour>
  </outline>
</glyph>
<glyph name="uni03DF" format="2">
  <advance width="621"/>
  <unicode hex="03DF"/>
  <anchor x="312" y="-235" name="bottom"/>
  <anchor x="312" y="760" name="top"/>
  <outline>
    <contour>
      <point x="437" y="-240" type="curve" smooth="yes"/>
      <point x="467" y="-240"/>
      <point x="478" y="-230"/>
      <point x="482" y="-216" type="curve"/>
      <point x="415" y="-229"/>
      <point x="384" y="-178"/>
      <point x="384" y="-105" type="curve" smooth="yes"/>
      <point x="384" y="61"/>
      <point x="486" y="236"/>
      <point x="538" y="332" type="curve"/>
      <point x="538" y="362" type="line"/>
      <point x="94" y="221" type="line"/>
      <point x="165" y="365"/>
      <point x="237" y="490"/>
      <point x="237" y="612" type="curve" smooth="yes"/>
      <point x="237" y="698"/>
      <point x="204" y="760"/>
      <point x="155" y="760" type="curve" smooth="yes"/>
      <point x="134" y="760"/>
      <point x="122" y="748"/>
      <point x="122" y="733" type="curve"/>
      <point x="173" y="737"/>
      <point x="207" y="701"/>
      <point x="207" y="604" type="curve" smooth="yes"/>
      <point x="207" y="512"/>
      <point x="181" y="416"/>
      <point x="83" y="222" type="curve"/>
      <point x="83" y="194" type="line"/>
      <point x="529" y="336" type="line"/>
      <point x="487" y="263"/>
      <point x="356" y="54"/>
      <point x="356" y="-106" type="curve" smooth="yes"/>
      <point x="356" y="-185"/>
      <point x="388" y="-240"/>
    </contour>
  </outline>
</glyph>
<glyph name="afii10051" format="2">
  <advance width="842"/>
  <unicode hex="0402"/>
  <anchor x="421" y="0" name="bottom"/>
  <anchor x="421" y="714" name="top"/>
  <outline>
    <contour>
      <point x="150" y="0" type="line"/>
      <point x="479" y="0" type="line"/>
      <point x="479" y="10" type="line"/>
      <point x="358" y="10" type="line" smooth="yes"/>
      <point x="342" y="10"/>
      <point x="330" y="21"/>
      <point x="330" y="98" type="curve" smooth="yes"/>
      <point x="330" y="404" type="line"/>
      <point x="404" y="425"/>
      <point x="450" y="428"/>
      <point x="510" y="428" type="curve" smooth="yes"/>
      <point x="627" y="428"/>
      <point x="732" y="400"/>
      <point x="732" y="231" type="curve" smooth="yes"/>
      <point x="732" y="53"/>
      <point x="677" y="10"/>
      <point x="572" y="10" type="curve" smooth="yes"/>
      <point x="552" y="10" type="line"/>
      <point x="552" y="0" type="line"/>
      <point x="575" y="0" type="line" smooth="yes"/>
      <point x="691" y="0"/>
      <point x="760" y="56"/>
      <point x="760" y="222" type="curve" smooth="yes"/>
      <point x="760" y="386"/>
      <point x="672" y="438"/>
      <point x="510" y="438" type="curve" smooth="yes"/>
      <point x="443" y="438"/>
      <point x="379" y="430"/>
      <point x="330" y="414" type="curve"/>
      <point x="330" y="694" type="line"/>
      <point x="539" y="694" type="line" smooth="yes"/>
      <point x="569" y="694"/>
      <point x="573" y="694"/>
      <point x="577" y="629" type="curve" smooth="yes"/>
      <point x="581" y="563" type="line"/>
      <point x="591" y="563" type="line"/>
      <point x="585" y="714" type="line"/>
      <point x="47" y="714" type="line"/>
      <point x="41" y="563" type="line"/>
      <point x="51" y="563" type="line"/>
      <point x="55" y="639" type="line" smooth="yes"/>
      <point x="57" y="682"/>
      <point x="61" y="694"/>
      <point x="83" y="694" type="curve" smooth="yes"/>
      <point x="302" y="694" type="line"/>
      <point x="302" y="98" type="line" smooth="yes"/>
      <point x="302" y="21"/>
      <point x="294" y="10"/>
      <point x="256" y="10" type="curve" smooth="yes"/>
      <point x="150" y="10" type="line"/>
    </contour>
  </outline>
</glyph>
<glyph name="afii10060" format="2">
  <advance width="914"/>
  <unicode hex="040B"/>
  <anchor x="457" y="0" name="bottom"/>
  <anchor x="457" y="714" name="top"/>
  <outline>
    <contour>
      <point x="152" y="0" type="line"/>
      <point x="481" y="0" type="line"/>
      <point x="481" y="10" type="line"/>
      <point x="384" y="10" type="line" smooth="yes"/>
      <point x="340" y="10"/>
      <point x="332" y="21"/>
      <point x="332" y="98" type="curve" smooth="yes"/>
      <point x="332" y="404" type="line"/>
      <point x="406" y="425"/>
      <point x="466" y="428"/>
      <point x="526" y="428" type="curve" smooth="yes"/>
      <point x="643" y="428"/>
      <point x="734" y="400"/>
      <point x="734" y="220" type="curve" smooth="yes"/>
      <point x="734" y="98" type="line" smooth="yes"/>
      <point x="734" y="21"/>
      <point x="728" y="10"/>
      <point x="676" y="10" type="curve" smooth="yes"/>
      <point x="615" y="10" type="line"/>
      <point x="615" y="0" type="line"/>
      <point x="873" y="0" type="line"/>
      <point x="873" y="10" type="line"/>
      <point x="820" y="10" type="line" smooth="yes"/>
      <point x="768" y="10"/>
      <point x="762" y="21"/>
      <point x="762" y="98" type="curve" smooth="yes"/>
      <point x="762" y="204" type="line" smooth="yes"/>
      <point x="762" y="386"/>
      <point x="688" y="438"/>
      <point x="526" y="438" type="curve" smooth="yes"/>
      <point x="459" y="438"/>
      <point x="381" y="430"/>
      <point x="332" y="414" type="curve"/>
      <point x="332" y="694" type="line"/>
      <point x="543" y="694" type="line" smooth="yes"/>
      <point x="571" y="694"/>
      <point x="575" y="694"/>
      <point x="579" y="629" type="curve" smooth="yes"/>
      <point x="583" y="563" type="line"/>
      <point x="593" y="563" type="line"/>
      <point x="587" y="714" type="line"/>
      <point x="49" y="714" type="line"/>
      <point x="43" y="563" type="line"/>
      <point x="57" y="563" type="line"/>
      <point x="61" y="639" type="line" smooth="yes"/>
      <point x="63" y="682"/>
      <point x="63" y="694"/>
      <point x="95" y="694" type="curve" smooth="yes"/>
      <point x="304" y="694" type="line"/>
      <point x="304" y="98" type="line" smooth="yes"/>
      <point x="304" y="21"/>
      <point x="298" y="10"/>
      <point x="248" y="10" type="curve" smooth="yes"/>
      <point x="152" y="10" type="line"/>
    </contour>
  </outline>
</glyph>
<glyph name="afii10018" format="2">
  <advance width="657"/>
  <unicode hex="0411"/>
  <anchor x="328" y="0" name="bottom"/>
  <anchor x="328" y="714" name="top"/>
  <outline>
    <contour>
      <point x="64" y="0" type="line"/>
      <point x="316" y="0" type="line" smooth="yes"/>
      <point x="503" y="0"/>
      <point x="628" y="45"/>
      <point x="628" y="191" type="curve" smooth="yes"/>
      <point x="628" y="333"/>
      <point x="538" y="388"/>
      <point x="371" y="388" type="curve" smooth="yes"/>
      <point x="216" y="388" type="line"/>
      <point x="216" y="694" type="line"/>
      <point x="490" y="694" type="line" smooth="yes"/>
      <point x="548" y="694"/>
      <point x="556" y="669"/>
      <point x="558" y="598" type="curve" smooth="yes"/>
      <point x="560" y="555" type="line"/>
      <point x="570" y="555" type="line"/>
      <point x="564" y="714" type="line"/>
      <point x="64" y="714" type="line"/>
      <point x="64" y="704" type="line"/>
      <point x="128" y="704" type="line" smooth="yes"/>
      <point x="184" y="704"/>
      <point x="188" y="693"/>
      <point x="188" y="614" type="curve" smooth="yes"/>
      <point x="188" y="98" type="line" smooth="yes"/>
      <point x="188" y="21"/>
      <point x="182" y="10"/>
      <point x="132" y="10" type="curve" smooth="yes"/>
      <point x="64" y="10" type="line"/>
    </contour>
    <contour>
      <point x="216" y="10" type="line"/>
      <point x="216" y="378" type="line"/>
      <point x="354" y="378" type="line" smooth="yes"/>
      <point x="516" y="378"/>
      <point x="600" y="337"/>
      <point x="600" y="191" type="curve" smooth="yes"/>
      <point x="600" y="58"/>
      <point x="511" y="10"/>
      <point x="326" y="10" type="curve" smooth="yes"/>
    </contour>
  </outline>
</glyph>
<glyph name="afii10024" format="2">
  <advance width="1107"/>
  <unicode hex="0416"/>
  <anchor x="554" y="0" name="bottom"/>
  <anchor x="554" y="714" name="top"/>
  <outline>
    <contour>
      <point x="0" y="0" type="line"/>
      <point x="16" y="0" type="line" smooth="yes"/>
      <point x="37" y="0"/>
      <point x="110" y="-8"/>
      <point x="167" y="86" type="curve" smooth="yes"/>
      <point x="275" y="268" type="line" smooth="yes"/>
      <point x="318" y="337"/>
      <point x="367" y="352"/>
      <point x="539" y="352" type="curve"/>
      <point x="539" y="98" type="line" smooth="yes"/>
      <point x="539" y="21"/>
      <point x="535" y="10"/>
      <point x="479" y="10" type="curve" smooth="yes"/>
      <point x="415" y="10" type="line"/>
      <point x="415" y="0" type="line"/>
      <point x="685" y="0" type="line"/>
      <point x="685" y="10" type="line"/>
      <point x="619" y="10" type="line" smooth="yes"/>
      <point x="576" y="10"/>
      <point x="567" y="21"/>
      <point x="567" y="94" type="curve" smooth="yes"/>
      <point x="567" y="352" type="line"/>
      <point x="734" y="352"/>
      <point x="783" y="335"/>
      <point x="825" y="268" type="curve" smooth="yes"/>
      <point x="933" y="86" type="line" smooth="yes"/>
      <point x="990" y="-8"/>
      <point x="1063" y="0"/>
      <point x="1084" y="0" type="curve" smooth="yes"/>
      <point x="1100" y="0" type="line"/>
      <point x="1100" y="10" type="line"/>
      <point x="1096" y="10" type="line" smooth="yes"/>
      <point x="1050" y="10"/>
      <point x="1012" y="15"/>
      <point x="975" y="72" type="curve" smooth="yes"/>
      <point x="865" y="250" type="line" smooth="yes"/>
      <point x="835" y="297"/>
      <point x="785" y="353"/>
      <point x="664" y="359" type="curve"/>
      <point x="713" y="363"/>
      <point x="745" y="413"/>
      <point x="791" y="529" type="curve" smooth="yes"/>
      <point x="845" y="666"/>
      <point x="898" y="696"/>
      <point x="956" y="696" type="curve" smooth="yes"/>
      <point x="1021" y="696"/>
      <point x="1059" y="662"/>
      <point x="1059" y="606" type="curve"/>
      <point x="1082" y="611"/>
      <point x="1080" y="634"/>
      <point x="1080" y="642" type="curve" smooth="yes"/>
      <point x="1080" y="668"/>
      <point x="1054" y="720"/>
      <point x="957" y="720" type="curve" smooth="yes"/>
      <point x="861" y="720"/>
      <point x="836" y="678"/>
      <point x="792" y="563" type="curve" smooth="yes"/>
      <point x="755" y="465"/>
      <point x="734" y="426"/>
      <point x="715" y="401" type="curve"/>
      <point x="686" y="369"/>
      <point x="676" y="363"/>
      <point x="567" y="362" type="curve"/>
      <point x="567" y="613" type="line" smooth="yes"/>
      <point x="567" y="693"/>
      <point x="569" y="704"/>
      <point x="633" y="704" type="curve" smooth="yes"/>
      <point x="685" y="704" type="line"/>
      <point x="685" y="714" type="line"/>
      <point x="415" y="714" type="line"/>
      <point x="415" y="704" type="line"/>
      <point x="481" y="704" type="line" smooth="yes"/>
      <point x="535" y="704"/>
      <point x="539" y="693"/>
      <point x="539" y="613" type="curve" smooth="yes"/>
      <point x="539" y="362" type="line"/>
      <point x="425" y="361"/>
      <point x="412" y="365"/>
      <point x="385" y="401" type="curve"/>
      <point x="368" y="426"/>
      <point x="345" y="465"/>
      <point x="308" y="563" type="curve" smooth="yes"/>
      <point x="264" y="678"/>
      <point x="239" y="720"/>
      <point x="143" y="720" type="curve" smooth="yes"/>
      <point x="46" y="720"/>
      <point x="20" y="668"/>
      <point x="20" y="642" type="curve" smooth="yes"/>
      <point x="20" y="634"/>
      <point x="18" y="611"/>
      <point x="41" y="606" type="curve"/>
      <point x="41" y="662"/>
      <point x="79" y="696"/>
      <point x="144" y="696" type="curve" smooth="yes"/>
      <point x="202" y="696"/>
      <point x="255" y="666"/>
      <point x="309" y="529" type="curve" smooth="yes"/>
      <point x="355" y="413"/>
      <point x="387" y="363"/>
      <point x="436" y="359" type="curve"/>
      <point x="315" y="353"/>
      <point x="265" y="297"/>
      <point x="235" y="250" type="curve" smooth="yes"/>
      <point x="125" y="72" type="line" smooth="yes"/>
      <point x="88" y="15"/>
      <point x="50" y="10"/>
      <point x="4" y="10" type="curve" smooth="yes"/>
      <point x="0" y="10" type="line"/>
    </contour>
  </outline>
</glyph>
<glyph name="afii10025" format="2">
  <advance width="657"/>
  <unicode hex="0417"/>
  <anchor x="329" y="0" name="bottom"/>
  <anchor x="329" y="714" name="top"/>
  <outline>
    <contour>
      <point x="307" y="-8" type="curve" smooth="yes"/>
      <point x="459" y="-8"/>
      <point x="569" y="91"/>
      <point x="569" y="203" type="curve" smooth="yes"/>
      <point x="569" y="291"/>
      <point x="488" y="365"/>
      <point x="409" y="372" type="curve"/>
      <point x="490" y="391"/>
      <point x="549" y="448"/>
      <point x="549" y="551" type="curve" smooth="yes"/>
      <point x="549" y="641"/>
      <point x="476" y="727"/>
      <point x="325" y="727" type="curve" smooth="yes"/>
      <point x="208" y="727"/>
      <point x="92" y="696"/>
      <point x="92" y="607" type="curve" smooth="yes"/>
      <point x="92" y="587"/>
      <point x="100" y="565"/>
      <point x="130" y="565" type="curve"/>
      <point x="130" y="658"/>
      <point x="171" y="717"/>
      <point x="325" y="717" type="curve" smooth="yes"/>
      <point x="453" y="717"/>
      <point x="521" y="639"/>
      <point x="521" y="544" type="curve" smooth="yes"/>
      <point x="521" y="429"/>
      <point x="467" y="377"/>
      <point x="353" y="377" type="curve" smooth="yes"/>
      <point x="238" y="377" type="line"/>
      <point x="238" y="367" type="line"/>
      <point x="355" y="367" type="line" smooth="yes"/>
      <point x="466" y="367"/>
      <point x="541" y="302"/>
      <point x="541" y="209" type="curve" smooth="yes"/>
      <point x="541" y="91"/>
      <point x="434" y="2"/>
      <point x="302" y="2" type="curve" smooth="yes"/>
      <point x="191" y="2"/>
      <point x="105" y="47"/>
      <point x="103" y="154" type="curve"/>
      <point x="77" y="154"/>
      <point x="68" y="148"/>
      <point x="68" y="129" type="curve" smooth="yes"/>
      <point x="68" y="46"/>
      <point x="171" y="-8"/>
    </contour>
  </outline>
</glyph>
<glyph name="afii10026" format="2">
  <advance width="970"/>
  <unicode hex="0418"/>
  <anchor x="486" y="0" name="bottom"/>
  <anchor x="486" y="714" name="top"/>
  <outline>
    <contour>
      <point x="63" y="0" type="line"/>
      <point x="337" y="0" type="line"/>
      <point x="337" y="10" type="line"/>
      <point x="272" y="10" type="line" smooth="yes"/>
      <point x="222" y="10"/>
      <point x="216" y="21"/>
      <point x="216" y="98" type="curve" smooth="yes"/>
      <point x="216" y="115" type="line"/>
      <point x="756" y="595" type="line"/>
      <point x="756" y="98" type="line" smooth="yes"/>
      <point x="756" y="21"/>
      <point x="748" y="10"/>
      <point x="704" y="10" type="curve" smooth="yes"/>
      <point x="631" y="10" type="line"/>
      <point x="631" y="0" type="line"/>
      <point x="903" y="0" type="line"/>
      <point x="903" y="10" type="line"/>
      <point x="834" y="10" type="line" smooth="yes"/>
      <point x="792" y="10"/>
      <point x="784" y="21"/>
      <point x="784" y="98" type="curve" smooth="yes"/>
      <point x="784" y="636" type="line" smooth="yes"/>
      <point x="784" y="693"/>
      <point x="800" y="704"/>
      <point x="832" y="704" type="curve" smooth="yes"/>
      <point x="903" y="704" type="line"/>
      <point x="903" y="714" type="line"/>
      <point x="631" y="714" type="line"/>
      <point x="631" y="704" type="line"/>
      <point x="712" y="704" type="line" smooth="yes"/>
      <point x="738" y="704"/>
      <point x="756" y="693"/>
      <point x="756" y="636" type="curve" smooth="yes"/>
      <point x="756" y="622" type="line"/>
      <point x="216" y="142" type="line"/>
      <point x="216" y="620" type="line" smooth="yes"/>
      <point x="216" y="693"/>
      <point x="224" y="704"/>
      <point x="268" y="704" type="curve" smooth="yes"/>
      <point x="337" y="704" type="line"/>
      <point x="337" y="714" type="line"/>
      <point x="63" y="714" type="line"/>
      <point x="63" y="704" type="line"/>
      <point x="136" y="704" type="line" smooth="yes"/>
      <point x="180" y="704"/>
      <point x="188" y="693"/>
      <point x="188" y="614" type="curve" smooth="yes"/>
      <point x="188" y="98" type="line" smooth="yes"/>
      <point x="188" y="21"/>
      <point x="178" y="10"/>
      <point x="138" y="10" type="curve" smooth="yes"/>
      <point x="63" y="10" type="line"/>
    </contour>
  </outline>
</glyph>
<glyph name="afii10037" format="2">
  <advance width="847"/>
  <unicode hex="0423"/>
  <anchor x="419" y="0" name="bottom"/>
  <anchor x="419" y="714" name="top"/>
  <outline>
    <contour>
      <point x="148" y="0" type="line"/>
      <point x="228" y="0" type="line" smooth="yes"/>
      <point x="351" y="0"/>
      <point x="369" y="76"/>
      <point x="424" y="170" type="curve" smooth="yes"/>
      <point x="668" y="581" type="line" smooth="yes"/>
      <point x="711" y="666"/>
      <point x="713" y="704"/>
      <point x="760" y="704" type="curve" smooth="yes"/>
      <point x="809" y="704" type="line"/>
      <point x="809" y="714" type="line"/>
      <point x="598" y="714" type="line"/>
      <point x="598" y="704" type="line"/>
      <point x="638" y="704" type="line" smooth="yes"/>
      <point x="661" y="704"/>
      <point x="682" y="700"/>
      <point x="682" y="669" type="curve" smooth="yes"/>
      <point x="682" y="653"/>
      <point x="679" y="643"/>
      <point x="658" y="601" type="curve" smooth="yes"/>
      <point x="525" y="377" type="line" smooth="yes"/>
      <point x="493" y="324"/>
      <point x="446" y="232"/>
      <point x="421" y="192" type="curve"/>
      <point x="398" y="228"/>
      <point x="376" y="265"/>
      <point x="352" y="292" type="curve" smooth="yes"/>
      <point x="145" y="601" type="line" smooth="yes"/>
      <point x="130" y="625"/>
      <point x="117" y="656"/>
      <point x="117" y="668" type="curve" smooth="yes"/>
      <point x="117" y="707"/>
      <point x="138" y="704"/>
      <point x="161" y="704" type="curve" smooth="yes"/>
      <point x="219" y="704" type="line"/>
      <point x="219" y="714" type="line"/>
      <point x="0" y="714" type="line"/>
      <point x="0" y="704" type="line"/>
      <point x="37" y="704" type="line" smooth="yes"/>
      <point x="40" y="704"/>
      <point x="67" y="687"/>
      <point x="100" y="632" type="curve" smooth="yes"/>
      <point x="405" y="164" type="line"/>
      <point x="345" y="28"/>
      <point x="311" y="10"/>
      <point x="202" y="10" type="curve" smooth="yes"/>
      <point x="148" y="10" type="line"/>
    </contour>
  </outline>
</glyph>
<glyph name="afii10045" format="2">
  <advance width="983"/>
  <unicode hex="042B"/>
  <anchor x="492" y="0" name="bottom"/>
  <anchor x="492" y="714" name="top"/>
  <outline>
    <contour>
      <point x="64" y="0" type="line"/>
      <point x="273" y="0" type="line" smooth="yes"/>
      <point x="460" y="0"/>
      <point x="585" y="45"/>
      <point x="585" y="191" type="curve" smooth="yes"/>
      <point x="585" y="333"/>
      <point x="495" y="388"/>
      <point x="328" y="388" type="curve" smooth="yes"/>
      <point x="216" y="388" type="line"/>
      <point x="216" y="614" type="line" smooth="yes"/>
      <point x="216" y="693"/>
      <point x="218" y="704"/>
      <point x="276" y="704" type="curve" smooth="yes"/>
      <point x="315" y="704" type="line"/>
      <point x="315" y="714" type="line"/>
      <point x="64" y="714" type="line"/>
      <point x="64" y="704" type="line"/>
      <point x="136" y="704" type="line" smooth="yes"/>
      <point x="180" y="704"/>
      <point x="188" y="693"/>
      <point x="188" y="614" type="curve" smooth="yes"/>
      <point x="188" y="84" type="line" smooth="yes"/>
      <point x="188" y="21"/>
      <point x="174" y="10"/>
      <point x="142" y="10" type="curve" smooth="yes"/>
      <point x="64" y="10" type="line"/>
    </contour>
    <contour>
      <point x="216" y="10" type="line"/>
      <point x="216" y="378" type="line"/>
      <point x="311" y="378" type="line" smooth="yes"/>
      <point x="473" y="378"/>
      <point x="557" y="337"/>
      <point x="557" y="191" type="curve" smooth="yes"/>
      <point x="557" y="58"/>
      <point x="468" y="10"/>
      <point x="283" y="10" type="curve" smooth="yes"/>
    </contour>
    <contour>
      <point x="646" y="0" type="line"/>
      <point x="912" y="0" type="line"/>
      <point x="912" y="10" type="line"/>
      <point x="846" y="10" type="line" smooth="yes"/>
      <point x="802" y="10"/>
      <point x="796" y="21"/>
      <point x="796" y="98" type="curve" smooth="yes"/>
      <point x="796" y="614" type="line" smooth="yes"/>
      <point x="796" y="693"/>
      <point x="798" y="704"/>
      <point x="858" y="704" type="curve" smooth="yes"/>
      <point x="912" y="704" type="line"/>
      <point x="912" y="714" type="line"/>
      <point x="646" y="714" type="line"/>
      <point x="646" y="704" type="line"/>
      <point x="716" y="704" type="line" smooth="yes"/>
      <point x="760" y="704"/>
      <point x="768" y="693"/>
      <point x="768" y="614" type="curve" smooth="yes"/>
      <point x="768" y="98" type="line" smooth="yes"/>
      <point x="768" y="21"/>
      <point x="758" y="10"/>
      <point x="720" y="10" type="curve" smooth="yes"/>
      <point x="646" y="10" type="line"/>
    </contour>
  </outline>
</glyph>
<glyph name="afii10073" format="2">
  <advance width="560"/>
  <unicode hex="0437"/>
  <anchor x="270" y="0" name="bottom"/>
  <anchor x="290" y="536" name="top"/>
  <outline>
    <contour>
      <point x="288" y="-10" type="curve" smooth="yes"/>
      <point x="437" y="-10"/>
      <point x="485" y="77"/>
      <point x="485" y="155" type="curve" smooth="yes"/>
      <point x="485" y="234"/>
      <point x="439" y="271"/>
      <point x="359" y="289" type="curve"/>
      <point x="359" y="291" type="line"/>
      <point x="421" y="303"/>
      <point x="467" y="327"/>
      <point x="467" y="411" type="curve" smooth="yes"/>
      <point x="467" y="491"/>
      <point x="393" y="543"/>
      <point x="279" y="543" type="curve" smooth="yes"/>
      <point x="198" y="543"/>
      <point x="95" y="517"/>
      <point x="95" y="441" type="curve" smooth="yes"/>
      <point x="95" y="420"/>
      <point x="99" y="410"/>
      <point x="115" y="410" type="curve"/>
      <point x="115" y="495"/>
      <point x="208" y="533"/>
      <point x="285" y="533" type="curve" smooth="yes"/>
      <point x="381" y="533"/>
      <point x="439" y="472"/>
      <point x="439" y="408" type="curve" smooth="yes"/>
      <point x="439" y="332"/>
      <point x="376" y="295"/>
      <point x="312" y="295" type="curve" smooth="yes"/>
      <point x="257" y="295" type="line"/>
      <point x="257" y="285" type="line"/>
      <point x="304" y="285" type="line" smooth="yes"/>
      <point x="394" y="285"/>
      <point x="457" y="238"/>
      <point x="457" y="164" type="curve" smooth="yes"/>
      <point x="457" y="61"/>
      <point x="405" y="0"/>
      <point x="285" y="0" type="curve" smooth="yes"/>
      <point x="185" y="0"/>
      <point x="89" y="37"/>
      <point x="64" y="108" type="curve"/>
      <point x="52" y="110"/>
      <point x="50" y="101"/>
      <point x="50" y="92" type="curve" smooth="yes"/>
      <point x="50" y="64"/>
      <point x="146" y="-10"/>
    </contour>
  </outline>
</glyph>
<glyph name="afii10074" format="2">
  <advance width="858"/>
  <unicode hex="0438"/>
  <anchor x="429" y="0" name="bottom"/>
  <anchor x="429" y="536" name="top"/>
  <outline>
    <contour>
      <point x="41" y="0" type="line"/>
      <point x="346" y="0" type="line"/>
      <point x="346" y="10" type="line"/>
      <point x="300" y="10" type="line" smooth="yes"/>
      <point x="205" y="10"/>
      <point x="201" y="13"/>
      <point x="201" y="82" type="curve" smooth="yes"/>
      <point x="201" y="135" type="line"/>
      <point x="657" y="401" type="line"/>
      <point x="657" y="82" type="line" smooth="yes"/>
      <point x="657" y="13"/>
      <point x="651" y="10"/>
      <point x="556" y="10" type="curve" smooth="yes"/>
      <point x="513" y="10" type="line"/>
      <point x="513" y="0" type="line"/>
      <point x="818" y="0" type="line"/>
      <point x="818" y="10" type="line"/>
      <point x="760" y="10" type="line" smooth="yes"/>
      <point x="689" y="10"/>
      <point x="685" y="13"/>
      <point x="685" y="83" type="curve" smooth="yes"/>
      <point x="685" y="454" type="line" smooth="yes"/>
      <point x="685" y="520"/>
      <point x="687" y="526"/>
      <point x="760" y="526" type="curve" smooth="yes"/>
      <point x="818" y="526" type="line"/>
      <point x="818" y="536" type="line"/>
      <point x="513" y="536" type="line"/>
      <point x="513" y="526" type="line"/>
      <point x="558" y="526" type="line" smooth="yes"/>
      <point x="653" y="526"/>
      <point x="657" y="521"/>
      <point x="657" y="454" type="curve" smooth="yes"/>
      <point x="657" y="425" type="line"/>
      <point x="201" y="159" type="line"/>
      <point x="201" y="454" type="line" smooth="yes"/>
      <point x="201" y="522"/>
      <point x="209" y="526"/>
      <point x="290" y="526" type="curve" smooth="yes"/>
      <point x="345" y="526" type="line"/>
      <point x="345" y="536" type="line"/>
      <point x="41" y="536" type="line"/>
      <point x="41" y="526" type="line"/>
      <point x="98" y="526" type="line" smooth="yes"/>
      <point x="169" y="526"/>
      <point x="173" y="522"/>
      <point x="173" y="454" type="curve" smooth="yes"/>
      <point x="173" y="82" type="line" smooth="yes"/>
      <point x="173" y="12"/>
      <point x="171" y="10"/>
      <point x="88" y="10" type="curve" smooth="yes"/>
      <point x="41" y="10" type="line"/>
    </contour>
  </outline>
</glyph>
<glyph name="afii10081" format="2">
  <advance width="830"/>
  <unicode hex="043F"/>
  <anchor x="415" y="0" name="bottom"/>
  <anchor x="415" y="536" name="top"/>
  <outline>
    <contour>
      <point x="41" y="0" type="line"/>
      <point x="328" y="0" type="line"/>
      <point x="328" y="10" type="line"/>
      <point x="282" y="10" type="line" smooth="yes"/>
      <point x="206" y="10"/>
      <point x="201" y="13"/>
      <point x="201" y="82" type="curve" smooth="yes"/>
      <point x="201" y="521" type="line"/>
      <point x="627" y="521" type="line"/>
      <point x="627" y="82" type="line" smooth="yes"/>
      <point x="627" y="12"/>
      <point x="621" y="10"/>
      <point x="542" y="10" type="curve" smooth="yes"/>
      <point x="501" y="10" type="line"/>
      <point x="501" y="0" type="line"/>
      <point x="788" y="0" type="line"/>
      <point x="788" y="10" type="line"/>
      <point x="731" y="10" type="line" smooth="yes"/>
      <point x="660" y="10"/>
      <point x="655" y="12"/>
      <point x="655" y="82" type="curve" smooth="yes"/>
      <point x="655" y="452" type="line" smooth="yes"/>
      <point x="655" y="520"/>
      <point x="655" y="524"/>
      <point x="739" y="524" type="curve" smooth="yes"/>
      <point x="788" y="524" type="line"/>
      <point x="788" y="536" type="line"/>
      <point x="41" y="536" type="line"/>
      <point x="41" y="526" type="line"/>
      <point x="96" y="526" type="line" smooth="yes"/>
      <point x="169" y="526"/>
      <point x="173" y="522"/>
      <point x="173" y="454" type="curve" smooth="yes"/>
      <point x="173" y="82" type="line" smooth="yes"/>
      <point x="173" y="13"/>
      <point x="169" y="10"/>
      <point x="92" y="10" type="curve" smooth="yes"/>
      <point x="41" y="10" type="line"/>
    </contour>
  </outline>
</glyph>
<glyph name="afii10089" format="2">
  <advance width="739"/>
  <unicode hex="0447"/>
  <anchor x="370" y="0" name="bottom"/>
  <anchor x="370" y="536" name="top"/>
  <outline>
    <contour>
      <point x="402" y="0" type="line"/>
      <point x="694" y="0" type="line"/>
      <point x="694" y="10" type="line"/>
      <point x="649" y="10" type="line" smooth="yes"/>
      <point x="564" y="10"/>
      <point x="562" y="12"/>
      <point x="562" y="82" type="curve" smooth="yes"/>
      <point x="562" y="454" type="line" smooth="yes"/>
      <point x="562" y="522"/>
      <point x="564" y="526"/>
      <point x="640" y="526" type="curve" smooth="yes"/>
      <point x="695" y="526" type="line"/>
      <point x="695" y="536" type="line"/>
      <point x="410" y="536" type="line"/>
      <point x="410" y="526" type="line"/>
      <point x="449" y="526" type="line" smooth="yes"/>
      <point x="532" y="526"/>
      <point x="534" y="522"/>
      <point x="534" y="454" type="curve" smooth="yes"/>
      <point x="534" y="251" type="line"/>
      <point x="468" y="227"/>
      <point x="394" y="201"/>
      <point x="315" y="201" type="curve" smooth="yes"/>
      <point x="223" y="201"/>
      <point x="176" y="229"/>
      <point x="176" y="316" type="curve" smooth="yes"/>
      <point x="176" y="454" type="line" smooth="yes"/>
      <point x="176" y="522"/>
      <point x="184" y="526"/>
      <point x="246" y="526" type="curve" smooth="yes"/>
      <point x="296" y="526" type="line"/>
      <point x="296" y="536" type="line"/>
      <point x="10" y="536" type="line"/>
      <point x="10" y="526" type="line"/>
      <point x="73" y="526" type="line" smooth="yes"/>
      <point x="144" y="526"/>
      <point x="148" y="522"/>
      <point x="148" y="454" type="curve" smooth="yes"/>
      <point x="148" y="312" type="line" smooth="yes"/>
      <point x="148" y="234"/>
      <point x="207" y="191"/>
      <point x="319" y="191" type="curve" smooth="yes"/>
      <point x="388" y="191"/>
      <point x="470" y="212"/>
      <point x="534" y="239" type="curve"/>
      <point x="534" y="82" type="line" smooth="yes"/>
      <point x="534" y="12"/>
      <point x="528" y="10"/>
      <point x="454" y="10" type="curve" smooth="yes"/>
      <point x="402" y="10" type="line"/>
    </contour>
  </outline>
</glyph>
<glyph name="afii10091" format="2">
  <advance width="1113"/>
  <unicode hex="0449"/>
  <anchor x="556" y="0" name="bottom"/>
  <anchor x="556" y="536" name="top"/>
  <outline>
    <contour>
      <point x="1035" y="-210" type="line"/>
      <point x="1045" y="-210" type="line"/>
      <point x="1045" y="20" type="line"/>
      <point x="957" y="20" type="line" smooth="yes"/>
      <point x="937" y="20"/>
      <point x="931" y="46"/>
      <point x="931" y="82" type="curve" smooth="yes"/>
      <point x="931" y="454" type="line" smooth="yes"/>
      <point x="931" y="522"/>
      <point x="938" y="526"/>
      <point x="997" y="526" type="curve" smooth="yes"/>
      <point x="1063" y="526" type="line"/>
      <point x="1063" y="536" type="line"/>
      <point x="777" y="536" type="line"/>
      <point x="777" y="526" type="line"/>
      <point x="828" y="526" type="line" smooth="yes"/>
      <point x="897" y="526"/>
      <point x="903" y="522"/>
      <point x="903" y="454" type="curve" smooth="yes"/>
      <point x="903" y="15" type="line"/>
      <point x="566" y="15" type="line"/>
      <point x="566" y="454" type="line" smooth="yes"/>
      <point x="566" y="522"/>
      <point x="569" y="526"/>
      <point x="644" y="526" type="curve" smooth="yes"/>
      <point x="692" y="526" type="line"/>
      <point x="692" y="536" type="line"/>
      <point x="401" y="536" type="line"/>
      <point x="401" y="526" type="line"/>
      <point x="461" y="526" type="line" smooth="yes"/>
      <point x="534" y="526"/>
      <point x="538" y="522"/>
      <point x="538" y="454" type="curve" smooth="yes"/>
      <point x="538" y="15" type="line"/>
      <point x="201" y="15" type="line"/>
      <point x="201" y="454" type="line" smooth="yes"/>
      <point x="201" y="521"/>
      <point x="208" y="526"/>
      <point x="270" y="526" type="curve" smooth="yes"/>
      <point x="327" y="526" type="line"/>
      <point x="327" y="536" type="line"/>
      <point x="41" y="536" type="line"/>
      <point x="41" y="526" type="line"/>
      <point x="96" y="526" type="line" smooth="yes"/>
      <point x="171" y="526"/>
      <point x="173" y="521"/>
      <point x="173" y="454" type="curve" smooth="yes"/>
      <point x="173" y="82" type="line" smooth="yes"/>
      <point x="173" y="12"/>
      <point x="169" y="10"/>
      <point x="92" y="10" type="curve" smooth="yes"/>
      <point x="41" y="10" type="line"/>
      <point x="41" y="0" type="line"/>
      <point x="1052" y="0" type="line" smooth="yes"/>
      <point x="1005" y="0"/>
      <point x="1010" y="8"/>
      <point x="1010" y="92" type="curve" smooth="yes"/>
    </contour>
  </outline>
</glyph>
<glyph name="afii10092" format="2">
  <advance width="717"/>
  <unicode hex="044A"/>
  <anchor x="358" y="0" name="bottom"/>
  <anchor x="358" y="536" name="top"/>
  <outline>
    <contour>
      <point x="134" y="0" type="line"/>
      <point x="442" y="0" type="line" smooth="yes"/>
      <point x="589" y="0"/>
      <point x="650" y="71"/>
      <point x="650" y="162" type="curve" smooth="yes"/>
      <point x="650" y="267"/>
      <point x="561" y="293"/>
      <point x="443" y="293" type="curve" smooth="yes"/>
      <point x="292" y="293" type="line"/>
      <point x="292" y="454" type="line" smooth="yes"/>
      <point x="292" y="522"/>
      <point x="302" y="526"/>
      <point x="359" y="526" type="curve" smooth="yes"/>
      <point x="396" y="526" type="line"/>
      <point x="396" y="536" type="line"/>
      <point x="11" y="536" type="line"/>
      <point x="5" y="382" type="line"/>
      <point x="15" y="382" type="line"/>
      <point x="26" y="530" type="line" smooth="yes"/>
      <point x="28" y="512"/>
      <point x="43" y="516"/>
      <point x="63" y="516" type="curve" smooth="yes"/>
      <point x="264" y="516" type="line"/>
      <point x="264" y="82" type="line" smooth="yes"/>
      <point x="264" y="14"/>
      <point x="258" y="10"/>
      <point x="189" y="10" type="curve" smooth="yes"/>
      <point x="134" y="10" type="line"/>
    </contour>
    <contour>
      <point x="292" y="10" type="line"/>
      <point x="292" y="283" type="line"/>
      <point x="424" y="283" type="line" smooth="yes"/>
      <point x="571" y="283"/>
      <point x="622" y="245"/>
      <point x="622" y="162" type="curve" smooth="yes"/>
      <point x="622" y="56"/>
      <point x="572" y="10"/>
      <point x="387" y="10" type="curve" smooth="yes"/>
    </contour>
  </outline>
</glyph>
<glyph name="afii10094" format="2">
  <advance width="659"/>
  <unicode hex="044C"/>
  <anchor x="330" y="0" name="bottom"/>
  <anchor x="330" y="536" name="top"/>
  <outline>
    <contour>
      <point x="41" y="0" type="line"/>
      <point x="387" y="0" type="line" smooth="yes"/>
      <point x="535" y="0"/>
      <point x="594" y="69"/>
      <point x="594" y="163" type="curve" smooth="yes"/>
      <point x="594" y="267"/>
      <point x="503" y="293"/>
      <point x="388" y="293" type="curve" smooth="yes"/>
      <point x="201" y="293" type="line"/>
      <point x="201" y="454" type="line" smooth="yes"/>
      <point x="201" y="521"/>
      <point x="207" y="526"/>
      <point x="278" y="526" type="curve" smooth="yes"/>
      <point x="313" y="526" type="line"/>
      <point x="313" y="536" type="line"/>
      <point x="41" y="536" type="line"/>
      <point x="41" y="526" type="line"/>
      <point x="96" y="526" type="line" smooth="yes"/>
      <point x="171" y="526"/>
      <point x="173" y="521"/>
      <point x="173" y="454" type="curve" smooth="yes"/>
      <point x="173" y="82" type="line" smooth="yes"/>
      <point x="173" y="12"/>
      <point x="169" y="10"/>
      <point x="92" y="10" type="curve" smooth="yes"/>
      <point x="41" y="10" type="line"/>
    </contour>
    <contour>
      <point x="201" y="10" type="line"/>
      <point x="201" y="283" type="line"/>
      <point x="372" y="283" type="line" smooth="yes"/>
      <point x="509" y="283"/>
      <point x="566" y="246"/>
      <point x="566" y="163" type="curve" smooth="yes"/>
      <point x="566" y="55"/>
      <point x="517" y="10"/>
      <point x="332" y="10" type="curve" smooth="yes"/>
    </contour>
  </outline>
</glyph>
<glyph name="uni0461" format="2">
  <advance width="960"/>
  <unicode hex="0461"/>
  <anchor x="481" y="0" name="bottom"/>
  <anchor x="481" y="536" name="top"/>
  <outline>
    <contour>
      <point x="373" y="0" type="curve"/>
      <point x="360" y="0" type="line"/>
      <point x="530" y="222" type="line"/>
      <point x="557" y="182"/>
      <point x="590" y="79"/>
      <point x="621" y="0" type="curve"/>
      <point x="633" y="0" type="line"/>
      <point x="770" y="90"/>
      <point x="903" y="310"/>
      <point x="903" y="452" type="curve" smooth="yes"/>
      <point x="903" y="485"/>
      <point x="893" y="546"/>
      <point x="822" y="546" type="curve" smooth="yes"/>
      <point x="805" y="546"/>
      <point x="797" y="544"/>
      <point x="793" y="530" type="curve"/>
      <point x="854" y="530"/>
      <point x="875" y="521"/>
      <point x="881" y="435" type="curve" smooth="yes"/>
      <point x="891" y="339"/>
      <point x="766" y="89"/>
      <point x="640" y="9" type="curve"/>
      <point x="600" y="96"/>
      <point x="466" y="466"/>
      <point x="421" y="536" type="curve"/>
      <point x="389" y="536" type="line"/>
      <point x="444" y="431"/>
      <point x="490" y="309"/>
      <point x="525" y="227" type="curve"/>
      <point x="380" y="56" type="line"/>
      <point x="228" y="398"/>
      <point x="176" y="538"/>
      <point x="91" y="538" type="curve" smooth="yes"/>
      <point x="62" y="538"/>
      <point x="40" y="521"/>
      <point x="31" y="505" type="curve"/>
      <point x="39" y="501" type="line"/>
      <point x="57" y="513"/>
      <point x="73" y="515"/>
      <point x="88" y="515" type="curve" smooth="yes"/>
      <point x="169" y="515"/>
      <point x="259" y="280"/>
    </contour>
  </outline>
</glyph>
<glyph name="uni0466" format="2">
  <advance width="781"/>
  <unicode hex="0466"/>
  <anchor x="335" y="0" name="bottom"/>
  <anchor x="335" y="714" name="top"/>
  <outline>
    <contour>
      <point x="-6" y="0" type="line"/>
      <point x="221" y="0" type="line"/>
      <point x="221" y="10" type="line"/>
      <point x="156" y="10" type="line" smooth="yes"/>
      <point x="99" y="10"/>
      <point x="100" y="20"/>
      <point x="100" y="40" type="curve" smooth="yes"/>
      <point x="100" y="71"/>
      <point x="131" y="145"/>
      <point x="136" y="156" type="curve" smooth="yes"/>
      <point x="229" y="371" type="line"/>
      <point x="345" y="371" type="line"/>
      <point x="345" y="0" type="line"/>
      <point x="373" y="0" type="line"/>
      <point x="373" y="371" type="line"/>
      <point x="483" y="371" type="line"/>
      <point x="571" y="173" type="line" smooth="yes"/>
      <point x="578" y="156"/>
      <point x="611" y="74"/>
      <point x="611" y="38" type="curve" smooth="yes"/>
      <point x="611" y="21"/>
      <point x="609" y="10"/>
      <point x="553" y="10" type="curve" smooth="yes"/>
      <point x="472" y="10" type="line"/>
      <point x="472" y="0" type="line"/>
      <point x="745" y="0" type="line"/>
      <point x="745" y="10" type="line"/>
      <point x="724" y="10" type="line" smooth="yes"/>
      <point x="663" y="10"/>
      <point x="663" y="13"/>
      <point x="641" y="71" type="curve" smooth="yes"/>
      <point x="371" y="714" type="line"/>
      <point x="361" y="714" type="line"/>
      <point x="77" y="22" type="line" smooth="yes"/>
      <point x="66" y="6"/>
      <point x="66" y="10"/>
      <point x="8" y="10" type="curve" smooth="yes"/>
      <point x="-6" y="10" type="line"/>
    </contour>
    <contour>
      <point x="233" y="381" type="line"/>
      <point x="261" y="431" type="line" smooth="yes"/>
      <point x="307" y="550"/>
      <point x="327" y="596"/>
      <point x="360" y="684" type="curve"/>
      <point x="386" y="603"/>
      <point x="410" y="535"/>
      <point x="447" y="447" type="curve" smooth="yes"/>
      <point x="478" y="381" type="line"/>
    </contour>
  </outline>
</glyph>
<glyph name="uni046C" format="2">
  <advance width="1127"/>
  <unicode hex="046C"/>
  <anchor x="564" y="0" name="bottom"/>
  <anchor x="564" y="714" name="top"/>
  <outline>
    <contour>
      <point x="63" y="0" type="line"/>
      <point x="327" y="0" type="line"/>
      <point x="327" y="10" type="line"/>
      <point x="268" y="10" type="line" smooth="yes"/>
      <point x="224" y="10"/>
      <point x="216" y="21"/>
      <point x="216" y="98" type="curve" smooth="yes"/>
      <point x="216" y="391" type="line"/>
      <point x="648" y="391" type="line"/>
      <point x="586" y="374"/>
      <point x="546" y="334"/>
      <point x="525" y="251" type="curve" smooth="yes"/>
      <point x="481" y="89" type="line" smooth="yes"/>
      <point x="464" y="24"/>
      <point x="435" y="10"/>
      <point x="391" y="10" type="curve" smooth="yes"/>
      <point x="380" y="10" type="line"/>
      <point x="380" y="0" type="line"/>
      <point x="386" y="0" type="line" smooth="yes"/>
      <point x="462" y="0"/>
      <point x="489" y="16"/>
      <point x="518" y="127" type="curve" smooth="yes"/>
      <point x="556" y="264" type="line" smooth="yes"/>
      <point x="584" y="369"/>
      <point x="636" y="389"/>
      <point x="740" y="389" type="curve"/>
      <point x="740" y="98" type="line" smooth="yes"/>
      <point x="740" y="21"/>
      <point x="730" y="10"/>
      <point x="698" y="10" type="curve" smooth="yes"/>
      <point x="612" y="10" type="line"/>
      <point x="612" y="0" type="line"/>
      <point x="888" y="0" type="line"/>
      <point x="888" y="10" type="line"/>
      <point x="814" y="10" type="line" smooth="yes"/>
      <point x="774" y="10"/>
      <point x="768" y="21"/>
      <point x="768" y="98" type="curve" smooth="yes"/>
      <point x="768" y="389" type="line"/>
      <point x="876" y="389"/>
      <point x="919" y="363"/>
      <point x="945" y="268" type="curve" smooth="yes"/>
      <point x="984" y="127" type="line" smooth="yes"/>
      <point x="1010" y="35"/>
      <point x="1019" y="0"/>
      <point x="1121" y="0" type="curve" smooth="yes"/>
      <point x="1126" y="0" type="line"/>
      <point x="1126" y="10" type="line"/>
      <point x="1105" y="10" type="line" smooth="yes"/>
      <point x="1061" y="10"/>
      <point x="1039" y="36"/>
      <point x="1021" y="99" type="curve" smooth="yes"/>
      <point x="977" y="250" type="line" smooth="yes"/>
      <point x="946" y="367"/>
      <point x="875" y="400"/>
      <point x="766" y="401" type="curve"/>
      <point x="1060" y="702" type="line"/>
      <point x="1060" y="714" type="line"/>
      <point x="450" y="714" type="line"/>
      <point x="450" y="702" type="line"/>
      <point x="736" y="401" type="line"/>
      <point x="216" y="401" type="line"/>
      <point x="216" y="616" type="line" smooth="yes"/>
      <point x="216" y="693"/>
      <point x="220" y="704"/>
      <point x="276" y="704" type="curve" smooth="yes"/>
      <point x="327" y="704" type="line"/>
      <point x="327" y="714" type="line"/>
      <point x="63" y="714" type="line"/>
      <point x="63" y="704" type="line"/>
      <point x="132" y="704" type="line" smooth="yes"/>
      <point x="182" y="704"/>
      <point x="188" y="693"/>
      <point x="188" y="614" type="curve" smooth="yes"/>
      <point x="188" y="98" type="line" smooth="yes"/>
      <point x="188" y="21"/>
      <point x="182" y="10"/>
      <point x="134" y="10" type="curve" smooth="yes"/>
      <point x="63" y="10" type="line"/>
    </contour>
    <contour>
      <point x="763" y="417" type="line"/>
      <point x="483" y="704" type="line"/>
      <point x="1034" y="704" type="line"/>
    </contour>
  </outline>
</glyph>
<glyph name="uni046F" format="2">
  <advance width="549"/>
  <unicode hex="046F"/>
  <anchor x="275" y="-187" name="bottom"/>
  <anchor x="275" y="659" name="top"/>
  <outline>
    <contour>
      <point x="516" y="-189" type="curve"/>
      <point x="532" y="-181"/>
      <point x="538" y="-170"/>
      <point x="538" y="-147" type="curve" smooth="yes"/>
      <point x="538" y="-109"/>
      <point x="514" y="-87"/>
      <point x="474" y="-87" type="curve" smooth="yes"/>
      <point x="392" y="-87"/>
      <point x="290" y="-159"/>
      <point x="192" y="-159" type="curve" smooth="yes"/>
      <point x="121" y="-159"/>
      <point x="78" y="-119"/>
      <point x="78" y="-74" type="curve" smooth="yes"/>
      <point x="78" y="-48"/>
      <point x="88" y="11"/>
      <point x="256" y="40" type="curve" smooth="yes"/>
      <point x="385" y="61"/>
      <point x="470" y="99"/>
      <point x="470" y="167" type="curve" smooth="yes"/>
      <point x="470" y="264"/>
      <point x="421" y="274"/>
      <point x="345" y="291" type="curve"/>
      <point x="345" y="293" type="line"/>
      <point x="403" y="302"/>
      <point x="452" y="330"/>
      <point x="452" y="413" type="curve" smooth="yes"/>
      <point x="452" y="475"/>
      <point x="410" y="528"/>
      <point x="311" y="541" type="curve"/>
      <point x="363" y="598"/>
      <point x="388" y="641"/>
      <point x="434" y="641" type="curve" smooth="yes"/>
      <point x="450" y="641"/>
      <point x="457" y="636"/>
      <point x="460" y="634" type="curve"/>
      <point x="461" y="635"/>
      <point x="463" y="639"/>
      <point x="463" y="645" type="curve" smooth="yes"/>
      <point x="463" y="659"/>
      <point x="448" y="665"/>
      <point x="432" y="665" type="curve" smooth="yes"/>
      <point x="380" y="665"/>
      <point x="364" y="633"/>
      <point x="296" y="544" type="curve"/>
      <point x="269" y="570"/>
      <point x="210" y="644"/>
      <point x="188" y="668" type="curve"/>
      <point x="180" y="668" type="line"/>
      <point x="180" y="655" type="line"/>
      <point x="203" y="625"/>
      <point x="232" y="575"/>
      <point x="252" y="543" type="curve"/>
      <point x="170" y="538"/>
      <point x="80" y="509"/>
      <point x="80" y="440" type="curve" smooth="yes"/>
      <point x="80" y="421"/>
      <point x="92" y="410"/>
      <point x="101" y="410" type="curve"/>
      <point x="101" y="500"/>
      <point x="190" y="533"/>
      <point x="276" y="533" type="curve" smooth="yes"/>
      <point x="381" y="533"/>
      <point x="424" y="472"/>
      <point x="424" y="419" type="curve" smooth="yes"/>
      <point x="424" y="329"/>
      <point x="361" y="295"/>
      <point x="286" y="295" type="curve" smooth="yes"/>
      <point x="242" y="295" type="line"/>
      <point x="242" y="285" type="line"/>
      <point x="280" y="285" type="line" smooth="yes"/>
      <point x="379" y="285"/>
      <point x="442" y="256"/>
      <point x="442" y="164" type="curve" smooth="yes"/>
      <point x="442" y="153"/>
      <point x="430" y="79"/>
      <point x="242" y="48" type="curve" smooth="yes"/>
      <point x="62" y="18"/>
      <point x="47" y="-29"/>
      <point x="47" y="-75" type="curve" smooth="yes"/>
      <point x="47" y="-178"/>
      <point x="149" y="-169"/>
      <point x="179" y="-169" type="curve" smooth="yes"/>
      <point x="276" y="-169"/>
      <point x="399" y="-111"/>
      <point x="469" y="-111" type="curve" smooth="yes"/>
      <point x="510" y="-111"/>
      <point x="516" y="-140"/>
    </contour>
  </outline>
</glyph>
<glyph name="uni047C" format="2">
  <advance width="1148"/>
  <unicode hex="047C"/>
  <outline>
    <contour>
      <point x="347" y="910" type="curve"/>
      <point x="357" y="910" type="line"/>
      <point x="358" y="921" type="line" smooth="yes"/>
      <point x="362" y="952"/>
      <point x="373" y="959"/>
      <point x="442" y="959" type="curve" smooth="yes"/>
      <point x="520" y="959"/>
      <point x="622" y="902"/>
      <point x="753" y="902" type="curve" smooth="yes"/>
      <point x="763" y="902" type="line"/>
      <point x="763" y="932" type="line"/>
      <point x="733" y="932" type="line"/>
      <point x="626" y="932"/>
      <point x="512" y="986"/>
      <point x="446" y="986" type="curve" smooth="yes"/>
      <point x="386" y="986"/>
      <point x="351" y="968"/>
    </contour>
    <contour>
      <point x="457" y="757" type="line"/>
      <point x="538" y="777"/>
      <point x="575" y="794"/>
      <point x="575" y="858" type="curve" smooth="yes"/>
      <point x="575" y="880"/>
      <point x="548" y="900"/>
      <point x="535" y="900" type="curve" smooth="yes"/>
      <point x="507" y="900"/>
      <point x="502" y="884"/>
      <point x="502" y="870" type="curve" smooth="yes"/>
      <point x="502" y="841"/>
      <point x="544" y="842"/>
      <point x="544" y="823" type="curve" smooth="yes"/>
      <point x="544" y="796"/>
      <point x="509" y="779"/>
      <point x="457" y="768" type="curve"/>
    </contour>
    <component base="uniA64C"/>
  </outline>
</glyph>
<glyph name="uni048B" format="2">
  <advance width="859"/>
  <unicode hex="048B"/>
  <anchor x="429" y="0" name="bottom"/>
  <anchor x="429" y="711" name="top"/>
  <outline>
    <contour>
      <point x="701" y="-210" type="line"/>
      <point x="733" y="-210" type="line"/>
      <point x="818" y="0" type="line"/>
      <point x="818" y="10" type="line"/>
      <point x="808" y="10" type="line"/>
      <point x="808" y="0" type="line"/>
    </contour>
    <component base="afii10074"/>
    <component base="cyrillicbreve" xOffset="75"/>
  </outline>
</glyph>
